<svg width="85" height="91" viewBox="0 0 85 91" fill="none" xmlns="http://www.w3.org/2000/svg">
<path d="M21.7021 72.6767L33.7557 65.7181L28.4813 56.5671L23.207 47.4162L11.0884 54.4082C10.735 52.4989 10.5486 50.572 10.5486 48.6293C10.5486 43.9422 11.6158 39.3816 13.6218 35.1674L4.47263 29.8562C1.55768 35.7054 0 42.0663 0 48.6293C0 56.3069 2.08863 63.4906 5.67341 69.7072C12.5494 81.6307 25.0337 90.0995 39.5574 90.9997V80.1416C32.903 79.5896 26.7074 76.9401 21.7021 72.6767Z" fill="#004C93"/>
<path d="M39.5578 91.0002V80.1421C32.9034 79.59 26.7078 76.9406 21.7025 72.6772L33.7561 65.7186L28.4818 56.5676L5.67383 69.7077C12.5498 81.6312 25.0341 90.1 39.5578 91.0002Z" fill="#004C93"/>
<path d="M79.944 29.8955L70.7772 35.212C72.857 39.5721 73.8398 44.1415 73.8398 48.6299C73.8398 50.5709 73.6535 52.4995 73.2983 54.4158L61.1815 47.4168L55.9071 56.5678L50.6328 65.7187L62.6969 72.6685C57.6916 76.9354 51.4925 79.5902 44.8311 80.1422V91.0003C59.353 90.1019 71.8374 81.6331 78.7151 69.7096C82.2999 63.4929 84.3885 56.3076 84.3885 48.6299C84.3885 42.2286 82.931 35.8485 79.944 29.8955Z" fill="#F2C94C"/>
<path d="M79.9441 29.8955L70.7773 35.212C72.8571 39.5721 73.8399 44.1415 73.8399 48.6299C73.8399 50.5709 73.6536 52.4995 73.2984 54.4158L61.1815 47.4168L55.9072 56.5678L78.7152 69.7096C82.2999 63.4929 84.3886 56.3076 84.3886 48.6299C84.3886 42.2286 82.9311 35.8485 79.9441 29.8955Z" fill="#F2C94C"/>
<path d="M42.1944 6.43457C28.6482 6.43457 15.5221 12.8024 7.06738 25.2639L16.2447 30.591C19.7855 25.3729 25.2972 21.0919 31.6457 18.8292V32.8062H52.743V18.8292C58.7628 20.9741 64.3166 25.0037 68.144 30.6437L77.3214 25.3166C70.7425 14.717 57.4178 6.43457 42.1944 6.43457Z" fill="#9F3787"/>
<path d="M52.744 18.8295C58.7637 20.9744 64.3176 25.0039 68.145 30.644L77.3223 25.3169C70.7435 14.7173 57.4188 6.43481 42.1953 6.43481V32.8064H52.744V18.8295Z" fill="#D93752"/>
<path d="M42.1947 0.984863C37.8258 0.984863 34.2832 4.70326 34.2832 9.07216C34.2832 13.4411 37.8258 16.9836 42.1947 16.9836C46.5636 16.9836 50.1062 13.4411 50.1062 9.07216C50.1062 4.70326 46.5636 0.984863 42.1947 0.984863Z" fill="#FFE6CC"/>
<path d="M50.1068 9.07216C50.1068 4.70326 46.5642 0.984863 42.1953 0.984863V16.9836C46.5642 16.9836 50.1068 13.4411 50.1068 9.07216Z" fill="#FFCCB3"/>
<path d="M15.1849 64.2292C12.9047 60.2787 7.84834 59.3065 4.42354 61.2949C0.63482 63.4749 -0.662663 68.3203 1.52442 72.1002C3.68162 75.8362 8.50763 77.2005 12.3333 74.994C15.8829 72.9494 17.5355 68.2992 15.1867 64.2274L15.1849 64.2292Z" fill="#FFE6CC"/>
<path d="M12.3313 74.9961C15.8809 72.9515 17.5336 68.3013 15.1847 64.2295L1.52246 72.1005C3.67966 75.8365 8.50567 77.2026 12.3313 74.9944V74.9961Z" fill="#FFCCB3"/>
<path d="M79.9672 61.2912C76.0202 59.0127 71.421 60.5703 69.1619 64.2044C67.0627 67.5817 68.056 72.6872 72.0575 74.9956C75.8919 77.2091 80.7232 75.8131 82.8663 72.1018C85.027 68.3605 83.8016 63.5064 79.9672 61.2929V61.2912Z" fill="#E77B45"/>
<path d="M79.9674 61.2912C76.0205 59.0127 71.4213 60.5703 69.1621 64.2044L82.8666 72.1C85.0273 68.3588 83.8019 63.5046 79.9674 61.2912Z" fill="#CC5229"/>
</svg>
