<svg width="108" height="91" viewBox="0 0 108 91" fill="none" xmlns="http://www.w3.org/2000/svg">
<path d="M34.4897 11.1951L39.7751 33.0367L34.4897 59.8941H33.3298C32.3371 59.8941 31.4594 59.2504 31.1584 58.3037L28.4917 49.8918C28.1928 48.943 27.3151 48.3014 26.3224 48.3014H19.3609C18.1676 48.3014 17.179 47.3819 17.0913 46.1906L16.5124 38.3284C16.412 36.9741 15.319 36.2155 14.2197 36.2155C13.3879 36.2155 12.5582 36.6481 12.1507 37.5907C11.6763 38.6879 10.4349 39.2312 9.30844 38.8362L8.14019 38.4266C3.26234 36.7254 0 32.1235 0 26.9593V20.3468C0 18.5641 0.90075 16.9006 2.39503 15.9309L19.6932 4.68716C21.0704 3.79268 22.9158 4.60566 23.1812 6.22742L23.733 9.57755C24.0318 11.4083 26.2785 12.1272 27.5909 10.8169L28.9222 9.48559C29.3674 9.04253 29.9484 8.81891 30.5314 8.81891C31.1145 8.81891 31.6976 9.04253 32.1428 9.48559C32.845 10.1878 33.6391 10.7583 34.4918 11.1951H34.4897Z" fill="#5E6B75"/>
<path d="M106.828 51.0686L106.188 53.8273C105.48 56.8828 102.761 59.0479 99.624 59.0479H94.8005C93.8872 59.0479 93.0617 59.5913 92.7043 60.4335L88.025 71.4306C87.7784 72.0095 87.7826 72.6595 88.0313 73.2342L92.2424 82.8791C93.3961 85.5228 91.9457 88.5762 89.1661 89.3557L83.9246 90.8228C81.795 91.4205 79.5379 90.4696 78.4741 88.5302L74.2463 80.8101C73.9516 80.273 73.4521 79.8738 72.8607 79.7087L72.4009 79.5812L65.5 41.2377L72.4009 9.67595C72.7917 9.9539 73.264 10.1023 73.7405 10.1023C74.3069 10.1023 74.8816 9.89121 75.3414 9.43352C77.2683 7.50453 80.2359 7.06983 82.6351 8.36558L83.423 8.78983C88.978 11.7888 90.0752 19.2916 85.6133 23.7536L80.33 29.0368C78.9653 30.4016 79.8096 32.7381 81.7302 32.9157L98.9699 34.5019C100.318 34.6252 101.26 35.8896 100.995 37.2167L100.408 40.1447C100.211 41.129 100.681 42.1259 101.566 42.6003L103.444 43.6077C106.128 45.0434 107.513 48.1031 106.828 51.0686Z" fill="#9F3787"/>
<path d="M72.4023 9.67368V79.5811L64.1889 77.2884C62.843 76.9143 62.1513 75.4284 62.726 74.1557L66.8807 64.981C67.1148 64.4648 67.2256 63.9214 67.2256 63.3885C67.2256 61.9694 66.4398 60.6047 65.0876 59.9276C63.1795 58.9725 60.8555 59.7478 59.9025 61.6559L55.66 70.1409C54.8136 71.8338 53.0852 72.8996 51.1939 72.8996H47.9629C45.2063 72.8996 42.9701 70.6655 42.9701 67.9068V62.1721C42.9701 60.914 41.9502 59.8962 40.6921 59.8962H34.4893V11.1951C36.9971 12.4742 40.0087 12.5745 42.6566 11.3393L44.3662 10.5431C45.9231 9.81579 47.2022 8.67053 48.0883 7.27865C48.9744 5.88677 49.4718 4.24619 49.4718 2.5262C49.4718 0.651555 51.6119 -0.420568 53.1124 0.699622L54.2347 1.53767C55.8836 2.76863 57.8252 3.3747 59.7583 3.3747C62.1366 3.3747 64.5024 2.45932 66.2914 0.668274C67.5704 -0.608659 69.7585 0.0392119 70.1326 1.80727L71.5036 8.29225C71.6311 8.89206 71.9676 9.36437 72.4023 9.67368Z" fill="#F2C94C"/>
</svg>
