<svg width="102" height="94" viewBox="0 0 102 94" fill="none" xmlns="http://www.w3.org/2000/svg">
<path d="M3.39941 78.3333H98.5995V92.4333H3.39941V78.3333Z" fill="#EDCFB0"/>
<path d="M11.9004 65.7998H90.1005V78.3332H11.9004V65.7998Z" fill="#F2D9C6"/>
<path d="M83.3005 56.3997H18.7004L11.9004 65.7997H90.1005L83.3005 56.3997Z" fill="#073257"/>
<path d="M39.1006 47V50.1333L40.8006 51.7V92.4334H61.2006V51.7L62.9006 50.1333V47H39.1006Z" fill="#EDC193"/>
<path d="M91.8008 25.0669H95.2008V37.6002H91.8008V25.0669Z" fill="#EDCFB0"/>
<path d="M93.4996 28.2002L96.8996 39.1669V78.3336H90.0996V39.1669L93.4996 28.2002Z" fill="#EDCFB0"/>
<path d="M88.4004 39.1667H98.6004V42.3001H88.4004V39.1667Z" fill="#EDC193"/>
<path d="M88.4004 48.5669H98.6004V51.7002H88.4004V48.5669Z" fill="#EDC193"/>
<path d="M68 83.0334H71.4V87.7335H68V83.0334Z" fill="#DDAE82"/>
<path d="M74.7998 83.0334H78.1998V87.7335H74.7998V83.0334Z" fill="#DDAE82"/>
<path d="M81.6006 83.0334H85.0006V87.7335H81.6006V83.0334Z" fill="#DDAE82"/>
<path d="M88.4004 83.0334H91.8004V87.7335H88.4004V83.0334Z" fill="#DDAE82"/>
<path d="M68 70.5H71.4V73.6333H68V70.5Z" fill="#DDAE82"/>
<path d="M74.7998 70.5H78.1998V73.6333H74.7998V70.5Z" fill="#DDAE82"/>
<path d="M81.6006 70.5H85.0006V73.6333H81.6006V70.5Z" fill="#DDAE82"/>
<path d="M6.7998 25.0669H10.1998V37.6002H6.7998V25.0669Z" fill="#EDCFB0"/>
<path d="M51.0006 78.3333C49.1221 78.3333 47.6006 79.7354 47.6006 81.4666V92.4333H54.4006V81.4666C54.4006 79.7354 52.8791 78.3333 51.0006 78.3333Z" fill="#C59670"/>
<path d="M45.8994 65.7998H49.2994V73.6331H45.8994V65.7998Z" fill="#C59670"/>
<path d="M52.7002 65.7998H56.1002V73.6331H52.7002V65.7998Z" fill="#C59670"/>
<path d="M45.8994 53.2668H49.2994V61.1002H45.8994V53.2668Z" fill="#C59670"/>
<path d="M52.7002 53.2668H56.1002V61.1002H52.7002V53.2668Z" fill="#C59670"/>
<path d="M59.5 37.6003H62.9V47.0004H59.5V37.6003Z" fill="#EDCFB0"/>
<path d="M50.9994 7.83325L45.8994 26.6333V47H56.0994V26.6333L50.9994 7.83325Z" fill="#EDCFB0"/>
<path d="M49.3008 0H52.7008V15.6667H49.3008V0Z" fill="#EDC193"/>
<path d="M45.8994 26.6333H56.0994L50.9994 7.83325L45.8994 26.6333Z" fill="#EDC193"/>
<path d="M8.49961 28.2002L5.09961 39.1669V78.3336H11.8996V39.1669L8.49961 28.2002Z" fill="#EDCFB0"/>
<path d="M3.39941 39.1667H13.5994V42.3001H3.39941V39.1667Z" fill="#EDC193"/>
<path d="M3.39941 48.5669H13.5994V51.7002H3.39941V48.5669Z" fill="#EDC193"/>
<path d="M30.6006 83.0334H34.0006V87.7335H30.6006V83.0334Z" fill="#DDAE82"/>
<path d="M23.7998 83.0334H27.1998V87.7335H23.7998V83.0334Z" fill="#DDAE82"/>
<path d="M17 83.0334H20.4V87.7335H17V83.0334Z" fill="#DDAE82"/>
<path d="M10.2002 83.0334H13.6002V87.7335H10.2002V83.0334Z" fill="#DDAE82"/>
<path d="M30.6006 70.5H34.0006V73.6333H30.6006V70.5Z" fill="#DDAE82"/>
<path d="M23.7998 70.5H27.1998V73.6333H23.7998V70.5Z" fill="#DDAE82"/>
<path d="M17 70.5H20.4V73.6333H17V70.5Z" fill="#DDAE82"/>
<path d="M39.1006 37.6003H42.5006V47.0004H39.1006V37.6003Z" fill="#EDCFB0"/>
<path d="M0 90.8667H102V94H0V90.8667Z" fill="#F2D9C6"/>
</svg>
