<svg width="565" height="529" viewBox="0 0 565 529" fill="none" xmlns="http://www.w3.org/2000/svg">
<path d="M320.802 456.703C327.996 446.337 333.567 435.765 337.839 425.554C338.838 423.176 329.52 419.454 330.394 417.101C331.319 414.62 342.41 413.534 343.184 411.104C353.526 379.077 352.177 353.538 352.177 353.538C340.686 358.294 330.544 364.472 321.551 371.606C319.128 373.519 321.251 384.066 319.003 386.108C317.255 387.711 311.084 380.809 309.436 382.489C291.5 400.609 279.284 422.659 271.015 443.416C271.015 436.85 270.741 430.414 270.216 424.055C270.016 421.496 259.075 423.383 258.8 420.901C258.525 418.446 268.992 408.545 268.642 406.167C261.898 359.535 243.712 328.645 243.712 328.645C231.896 343.224 223.128 358.785 216.733 374.708C215.708 377.242 223.602 387.53 222.678 390.089C221.679 392.906 211.562 390.787 210.687 393.63C198.097 435.351 200.495 475.728 206.341 509.771C222.028 513.209 237.267 514.915 252.03 515.096C323.924 517.759 351.853 458.512 351.853 458.512C340.362 456.031 330.045 455.617 320.752 456.728L320.802 456.703Z" fill="white"/>
<path d="M256.702 515.923C255.178 515.923 253.629 515.898 252.055 515.846C237.042 515.665 221.604 513.881 206.216 510.521C205.916 510.469 205.691 510.211 205.641 509.9C198.122 466.163 199.546 428.061 210.013 393.397C210.587 391.485 213.51 391.304 216.633 391.097C218.756 390.968 221.679 390.761 222.004 389.83C222.328 388.9 220.455 385.41 219.081 382.877C216.783 378.612 215.434 375.923 216.058 374.424C222.803 357.596 231.921 342.035 243.162 328.179C243.312 327.998 243.537 327.895 243.787 327.921C244.012 327.921 244.236 328.076 244.361 328.283C244.536 328.593 262.722 359.845 269.392 406.089C269.592 407.537 267.593 410.044 264.321 414.025C262.372 416.377 259.425 419.945 259.549 420.849C259.624 421.444 263.197 421.651 264.521 421.728C267.893 421.909 270.791 422.09 270.966 424.029C271.39 429.328 271.665 434.601 271.74 439.745C281.383 416.584 293.898 397.171 308.936 381.972C310.185 380.705 312.334 382.153 314.607 383.678C315.831 384.479 318.079 386.004 318.554 385.591C319.403 384.815 319.478 381.584 319.503 379.025C319.553 375.535 319.628 372.253 321.127 371.064C330.544 363.567 340.911 357.467 351.928 352.891C352.153 352.814 352.402 352.814 352.602 352.969C352.802 353.098 352.927 353.331 352.952 353.563C352.952 353.822 354.201 379.62 343.909 411.414C343.434 412.888 341.011 413.715 337.089 414.878C334.841 415.55 331.419 416.558 331.094 417.437C330.869 418.032 333.342 419.841 334.541 420.694C336.989 422.478 339.288 424.132 338.538 425.916C334.092 436.488 328.671 446.544 322.351 455.849C331.768 454.919 341.761 455.591 352.078 457.814C352.303 457.866 352.477 458.021 352.577 458.228C352.677 458.434 352.677 458.693 352.577 458.9C352.502 459.055 345.358 474.022 329.445 488.446C315.406 501.189 291.55 516.001 256.702 516.001V515.923ZM207.015 509.125C222.154 512.408 237.317 514.14 252.08 514.321C288.952 515.691 313.957 500.362 328.421 487.256C341.911 475.03 349.03 462.415 350.804 459.029C340.387 456.858 330.32 456.341 320.877 457.452C320.577 457.504 320.302 457.349 320.152 457.09C320.003 456.832 320.028 456.496 320.177 456.263C326.822 446.673 332.543 436.256 337.139 425.244C337.414 424.598 334.966 422.814 333.642 421.883C331.169 420.1 329.046 418.549 329.67 416.843C330.22 415.343 332.668 414.542 336.64 413.353C338.863 412.707 342.21 411.699 342.46 410.872C351.453 383.006 351.553 359.819 351.453 354.649C340.936 359.121 331.019 365.015 321.976 372.201C321.027 372.951 320.977 376.311 320.927 378.999C320.877 382.334 320.827 385.462 319.478 386.677C318.179 387.866 316.031 386.418 313.782 384.893C312.658 384.143 310.36 382.592 309.935 383.006C294.298 398.8 281.433 419.221 271.69 443.674C271.565 444.01 271.215 444.217 270.866 444.14C270.516 444.062 270.266 443.752 270.266 443.39C270.266 437.135 270.016 430.646 269.467 424.106C269.417 423.46 265.895 423.279 264.421 423.202C261.123 423.021 258.275 422.866 258.051 420.979C257.876 419.505 259.899 416.972 263.172 412.991C265.095 410.665 267.993 407.149 267.893 406.27C261.898 364.756 246.585 335.417 243.587 329.937C232.745 343.482 223.952 358.63 217.382 374.967C217.007 375.923 219.006 379.646 220.33 382.101C222.553 386.237 223.852 388.822 223.353 390.321C222.703 392.182 219.78 392.389 216.683 392.57C214.559 392.699 211.662 392.906 211.387 393.811C201.045 428.113 199.596 465.827 206.99 509.099L207.015 509.125Z" fill="black"/>
<path d="M272.015 504.808C271.79 504.808 271.59 504.705 271.44 504.524C271.19 504.188 271.24 503.723 271.54 503.464C290.9 487.024 331.968 468.516 332.368 468.335C332.743 468.18 333.167 468.335 333.342 468.723C333.492 469.11 333.342 469.55 332.967 469.731C332.568 469.912 291.675 488.342 272.489 504.627C272.365 504.731 272.19 504.808 272.015 504.808Z" fill="black"/>
<path d="M236.166 500.078C235.767 500.078 235.442 499.768 235.442 499.354C234.817 484.879 234.543 470.17 234.618 455.695C234.618 455.281 234.942 454.945 235.342 454.945C235.742 454.945 236.066 455.281 236.066 455.72C235.966 470.196 236.241 484.853 236.891 499.302C236.891 499.716 236.591 500.078 236.191 500.104C236.191 500.104 236.191 500.104 236.166 500.104V500.078Z" fill="black"/>
<path d="M235.716 435.765C235.317 435.765 234.992 435.403 235.017 434.989C235.766 410.562 237.54 385.85 240.363 361.577L241.637 350.462C241.687 350.048 242.037 349.738 242.461 349.79C242.861 349.841 243.161 350.229 243.111 350.643L241.837 361.758C239.039 386.005 237.24 410.665 236.516 435.041C236.516 435.454 236.166 435.765 235.791 435.765H235.716Z" fill="black"/>
<path d="M171.992 77.182C170.418 64.9553 170.369 47.4294 179.786 32.23C205.766 -9.77526 288.277 -8.58619 306.013 23.4412C315.031 39.7004 307.537 64.2573 295.172 78.2677C276.861 98.9731 244.186 100.679 223.602 90.055C204.017 79.9479 196.998 59.4752 185.032 62.1118C178.387 63.5853 174.315 71.2625 171.992 77.182Z" fill="#9F3787"/>
<path d="M259.498 99.2834C249.231 99.2834 239.239 96.9569 231.07 92.7435C222.027 88.0906 215.782 81.3956 210.261 75.4761C204.016 68.7811 199.07 63.482 192.9 64.852C187.954 65.9377 183.707 70.8749 180.31 79.5344L179.435 81.7833L179.136 79.3793C176.812 61.4657 179.46 46.1888 187.004 33.9879C202.442 9.01737 236.291 0.900669 260.547 1.4952C285.953 2.14144 306.537 11.2404 314.306 25.2249C321.55 38.2789 319.427 62.6548 303.364 80.8011C291.973 93.674 275.411 99.2834 259.498 99.2834ZM194.873 63.3269C200.644 63.3269 205.365 68.3675 211.136 74.5714C216.581 80.4133 222.752 87.0049 231.595 91.5803C251.579 101.894 284.354 100.395 302.415 79.948C314.456 66.3254 322 41.7944 313.182 25.8712C305.637 12.2744 285.453 3.43391 260.472 2.78767C236.516 2.19314 203.167 10.1806 188.004 34.6858C180.959 46.0854 178.286 60.2508 180.035 76.8461C183.457 69.1171 187.679 64.6711 192.6 63.5854C193.375 63.4044 194.124 63.3269 194.848 63.3269H194.873Z" fill="black"/>
<path d="M394.647 116.628C396.421 114.069 416.306 84.058 403.815 49.8335C395.047 25.8194 372.714 6.35481 346.809 5.29499C342.438 5.11404 314.859 4.00252 300.071 26.8017C290.103 42.1562 289.029 63.5853 298.697 79.1983C310.213 97.7323 332.196 100.369 335.443 100.731C358.276 103.109 370.866 87.9613 383.306 95.2767C390.925 99.7486 393.548 109.752 394.622 116.654L394.647 116.628Z" fill="white"/>
<path d="M394.646 117.378C394.646 117.378 394.546 117.378 394.471 117.378C394.171 117.3 393.972 117.068 393.922 116.757C392.298 106.237 388.601 99.2314 382.955 95.9227C376.81 92.3038 370.615 94.4235 362.771 97.1118C355.177 99.6967 346.583 102.644 335.367 101.48C329.422 100.86 309.137 97.4478 298.071 79.6118C288.528 64.2314 289.078 42.337 299.445 26.3879C313.009 5.50162 337.091 4.15746 346.808 4.5452C371.839 5.55332 394.996 23.6479 404.463 49.5748C417.004 83.8769 397.469 113.785 395.196 117.068C395.046 117.274 394.821 117.378 394.596 117.378H394.646ZM375.861 92.4589C378.509 92.4589 381.106 93.0534 383.68 94.5527C389.375 97.9131 393.197 104.66 395.046 114.612C399.517 107.477 414.256 80.5424 403.114 50.0659C393.847 24.7077 371.214 7.00089 346.758 6.01861C337.266 5.63087 313.809 6.92334 300.669 27.1892C290.627 42.6472 290.077 63.8437 299.32 78.7329C310.311 96.4397 331.42 99.4899 335.517 99.9035C346.408 101.041 354.852 98.1458 362.321 95.6125C367.167 93.9582 371.589 92.4331 375.861 92.4331V92.4589Z" fill="black"/>
<path d="M343.235 68.9878C343.235 67.3335 343.81 65.9893 344.959 64.9295C346.108 63.8697 347.557 63.3527 349.256 63.3527C350.954 63.3527 352.403 63.8697 353.552 64.9295C354.701 65.9893 355.276 67.3335 355.276 68.9878C355.276 70.6422 354.701 71.9864 353.552 73.0462C352.403 74.106 350.954 74.623 349.256 74.623C347.557 74.623 346.108 74.106 344.959 73.0462C343.81 71.9864 343.235 70.6422 343.235 68.9878ZM353.752 58.6481H344.959L343.56 25.4316H355.151L353.752 58.6481Z" fill="#9F3787"/>
<path d="M346.658 75.2691C344.784 75.2691 343.21 74.6746 341.936 73.5113C340.662 72.3223 340.013 70.7972 340.013 68.9877C340.013 67.1783 340.662 65.6273 341.936 64.4641C343.21 63.3008 344.784 62.7063 346.658 62.7063C348.531 62.7063 350.105 63.3008 351.379 64.4641C352.653 65.6531 353.302 67.1783 353.302 68.9877C353.302 70.7972 352.653 72.3481 351.379 73.5113C350.105 74.6746 348.531 75.2691 346.658 75.2691ZM346.658 63.9988C345.084 63.9988 343.81 64.4641 342.761 65.4205C341.736 66.3511 341.237 67.5401 341.237 68.9877C341.237 70.4353 341.736 71.6243 342.761 72.5549C343.81 73.5113 345.084 73.9766 346.658 73.9766C348.231 73.9766 349.505 73.5113 350.555 72.5549C351.579 71.6243 352.078 70.4611 352.078 68.9877C352.078 67.5143 351.579 66.3511 350.555 65.4205C349.505 64.4641 348.231 63.9988 346.658 63.9988ZM351.729 59.2942H341.736L340.287 24.7853H353.177L351.729 59.2942ZM342.935 58.0017H350.555L351.878 26.0777H341.611L342.935 58.0017Z" fill="black"/>
<path d="M524.469 369.151C523.795 370.65 521.596 372.77 518.948 374.812L510.73 374.321C511.754 372.925 512.903 371.115 514.077 368.53C517.599 360.776 516.625 350.281 512.304 355.993C507.982 361.706 508.032 366.178 508.057 358.475C508.107 350.746 515.201 333.789 515.201 333.789C521.147 260.997 500.987 203.405 500.987 203.405L529.29 192.961C544.628 244.117 528.366 334.564 528.366 334.564C528.366 334.564 526.642 364.317 524.444 369.151H524.469Z" fill="white"/>
<path d="M518.948 375.587C518.948 375.587 518.923 375.587 518.898 375.587L510.68 375.096C510.405 375.096 510.18 374.915 510.055 374.657C509.93 374.398 509.98 374.114 510.13 373.881C511.354 372.227 512.378 370.417 513.378 368.22C515.976 362.456 515.801 355.942 514.602 355.166C514.352 355.011 513.752 355.27 512.853 356.459C511.279 358.553 510.28 360.491 509.681 361.68C509.031 362.947 508.756 363.516 508.032 363.335C507.282 363.128 507.282 362.74 507.307 358.837V358.475C507.357 350.927 513.802 335.236 514.477 333.608C520.297 261.902 500.513 204.232 500.313 203.663C500.238 203.482 500.263 203.275 500.338 203.069C500.413 202.888 500.563 202.733 500.763 202.681L529.066 192.238C529.24 192.16 529.465 192.186 529.64 192.264C529.815 192.367 529.965 192.522 530.015 192.729C545.078 243.006 529.565 332.16 529.115 334.668C529.016 336.426 527.342 364.627 525.144 369.487C524.269 371.374 521.546 373.778 519.398 375.432C519.273 375.536 519.123 375.587 518.948 375.587ZM512.104 373.674L518.699 374.062C521.371 371.943 523.22 370.056 523.77 368.841C525.468 365.118 527.017 344.775 527.617 334.539C527.617 334.513 527.617 334.487 527.617 334.435C527.767 333.53 543.504 244.479 528.791 193.944L501.912 203.87C504.185 210.772 521.446 266.089 515.926 333.866C515.926 333.944 515.901 334.022 515.876 334.099C515.801 334.254 508.831 351.005 508.781 358.475V358.837C508.781 359.328 508.781 359.793 508.781 360.207C509.431 358.992 510.355 357.312 511.704 355.528C513.403 353.305 514.627 353.383 515.376 353.874C517.674 355.347 517.35 363.05 514.727 368.866C513.902 370.676 513.053 372.227 512.104 373.674Z" fill="black"/>
<path d="M486.247 490.358C486.097 490.358 485.947 490.307 485.822 490.229L477.079 483.973C476.754 483.741 476.654 483.25 476.904 482.914C477.129 482.578 477.578 482.474 477.928 482.733L486.671 488.988C486.996 489.221 487.096 489.712 486.846 490.048C486.696 490.255 486.471 490.384 486.247 490.384V490.358Z" fill="black"/>
<path d="M454.973 453.316L456.222 468.257C456.322 472.47 453.249 475.908 449.502 475.805L445.155 475.676C441.633 475.572 438.835 472.341 438.835 468.412L437.711 449.464L454.948 453.316H454.973Z" fill="white"/>
<path d="M449.676 476.58C449.676 476.58 449.551 476.58 449.476 476.58L445.129 476.451C441.182 476.322 438.11 472.806 438.11 468.438L436.985 449.516C436.985 449.284 437.06 449.051 437.235 448.896C437.41 448.741 437.635 448.689 437.86 448.741L455.121 452.592C455.446 452.67 455.671 452.928 455.696 453.264L456.945 468.205C457.02 470.583 456.17 472.832 454.622 474.409C453.273 475.805 451.524 476.58 449.676 476.58ZM438.509 450.421L439.583 468.386C439.583 471.979 442.056 474.849 445.179 474.926L449.526 475.055C451.049 475.133 452.473 474.487 453.597 473.349C454.847 472.057 455.546 470.222 455.496 468.309L454.297 453.962L438.534 450.447L438.509 450.421Z" fill="black"/>
<path d="M460.018 464.535L459.693 468.904C459.393 472.988 459.693 477.02 461.691 480.562C463.39 483.586 465.164 487.877 465.164 492.659C465.164 492.659 430.99 500.853 401.113 493.099C401.113 493.099 400.964 489.454 410.131 487.36C419.299 485.266 430.291 483.845 431.015 480.639C431.74 477.434 431.74 468.878 433.039 467.172C434.313 465.466 445.304 462.622 451 467.172C451 467.172 456.096 463.424 459.993 464.561L460.018 464.535Z" fill="black"/>
<path d="M401.04 500.492C400.84 498.475 400.84 495.063 401.14 493.073C401.14 493.073 429.867 498.63 465.19 492.633V500.285C465.19 501.939 464.016 503.361 462.417 503.568C454.123 504.705 425.596 507.393 403.438 503.154C402.164 502.921 401.19 501.81 401.04 500.466V500.492Z" fill="white"/>
<path d="M432.09 506.23C422.473 506.23 412.255 505.636 403.312 503.929C401.714 503.619 400.49 502.249 400.315 500.569C400.115 498.579 400.09 495.115 400.415 492.969C400.44 492.763 400.565 492.582 400.714 492.478C400.864 492.349 401.089 492.323 401.264 492.349C401.539 492.401 430.292 497.803 465.065 491.91C465.264 491.884 465.489 491.935 465.664 492.09C465.839 492.246 465.914 492.452 465.914 492.659V500.311C465.914 502.353 464.44 504.085 462.492 504.343C455.997 505.222 444.53 506.23 432.065 506.23H432.09ZM401.789 493.952C401.589 495.942 401.614 498.734 401.789 500.414C401.889 501.422 402.638 502.249 403.587 502.43C423.971 506.308 450.926 504.395 462.342 502.844C463.566 502.689 464.49 501.577 464.49 500.311V493.564C432.989 498.734 406.585 494.779 401.814 493.978L401.789 493.952Z" fill="black"/>
<path d="M415.003 490.488C414.703 490.488 414.429 490.307 414.304 489.997L413.28 487.127C413.13 486.74 413.33 486.3 413.704 486.145C414.079 485.99 414.504 486.197 414.653 486.585L415.678 489.454C415.828 489.842 415.628 490.281 415.253 490.436C415.178 490.462 415.078 490.488 415.003 490.488Z" fill="black"/>
<path d="M422.022 490.333C421.722 490.333 421.472 490.152 421.347 489.868L419.699 485.732C419.549 485.344 419.699 484.905 420.098 484.749C420.473 484.594 420.898 484.749 421.048 485.163L422.696 489.299C422.846 489.687 422.696 490.126 422.297 490.281C422.197 490.333 422.097 490.333 422.022 490.333Z" fill="black"/>
<path d="M429.468 488.342C429.243 488.342 429.043 488.239 428.893 488.058L425.97 484.181C425.721 483.845 425.771 483.379 426.095 483.121C426.42 482.862 426.87 482.914 427.12 483.25L430.042 487.127C430.292 487.463 430.242 487.929 429.917 488.187C429.793 488.291 429.618 488.342 429.468 488.342Z" fill="black"/>
<path d="M436.688 483.276C436.688 483.276 436.488 483.276 436.388 483.198L431.017 480.691C430.642 480.51 430.493 480.071 430.642 479.683C430.817 479.295 431.242 479.14 431.617 479.295L436.987 481.803C437.362 481.983 437.512 482.423 437.362 482.811C437.237 483.095 436.962 483.25 436.688 483.25V483.276Z" fill="black"/>
<path d="M438.485 475.444H438.435L431.89 474.927C431.49 474.901 431.19 474.539 431.215 474.1C431.24 473.686 431.59 473.35 432.015 473.402L438.56 473.919C438.959 473.944 439.259 474.306 439.234 474.746C439.209 475.134 438.884 475.444 438.51 475.444H438.485Z" fill="black"/>
<path d="M503.358 457.788L504.607 472.729C504.707 476.943 501.635 480.381 497.888 480.277L493.541 480.148C490.019 480.045 487.221 476.813 487.221 472.884L486.097 453.937L503.333 457.788H503.358Z" fill="white"/>
<path d="M498.062 481.053C498.062 481.053 497.937 481.053 497.862 481.053L493.516 480.924C489.569 480.794 486.496 477.279 486.496 472.91L485.372 453.988C485.372 453.756 485.447 453.523 485.622 453.368C485.797 453.213 486.022 453.161 486.246 453.213L503.483 457.065C503.808 457.142 504.033 457.401 504.058 457.737L505.307 472.678C505.382 475.056 504.532 477.305 502.983 478.881C501.634 480.277 499.886 481.053 498.037 481.053H498.062ZM486.896 454.893L487.97 472.858C487.97 476.452 490.443 479.321 493.566 479.398L497.912 479.528C499.411 479.605 500.86 478.959 501.984 477.822C503.233 476.529 503.933 474.694 503.883 472.781L502.684 458.435L486.921 454.919L486.896 454.893Z" fill="black"/>
<path d="M509.579 467.223L509.254 471.592C508.955 475.676 509.254 479.708 511.253 483.25C512.952 486.274 514.725 490.565 514.725 495.347C514.725 495.347 480.552 503.542 450.675 495.787C450.675 495.787 450.525 492.142 459.693 490.048C468.861 487.954 479.852 486.533 480.577 483.327C481.301 480.096 481.301 471.566 482.6 469.86C483.874 468.154 494.866 465.31 500.561 469.86C500.561 469.86 505.657 466.112 509.554 467.249L509.579 467.223Z" fill="black"/>
<path d="M450.601 503.18C450.401 501.164 450.401 497.751 450.701 495.761C450.701 495.761 479.429 501.319 514.751 495.322V502.973C514.751 504.627 513.577 506.049 511.979 506.256C503.685 507.393 475.157 510.082 452.999 505.842C451.725 505.61 450.751 504.498 450.601 503.154V503.18Z" fill="white"/>
<path d="M481.627 508.918C472.01 508.918 461.793 508.324 452.85 506.618C451.251 506.307 450.027 504.937 449.852 503.257C449.652 501.267 449.627 497.777 449.952 495.657C449.977 495.451 450.102 495.27 450.252 495.166C450.401 495.037 450.626 495.011 450.801 495.037C451.076 495.089 479.804 500.491 514.602 494.598C514.801 494.572 515.026 494.623 515.201 494.778C515.376 494.934 515.451 495.14 515.451 495.347V502.999C515.451 505.041 513.977 506.773 512.029 507.031C505.534 507.91 494.068 508.918 481.602 508.918H481.627ZM451.326 503.102C451.426 504.11 452.175 504.937 453.124 505.118C473.509 508.996 500.463 507.083 511.879 505.532C513.103 505.377 514.027 504.265 514.027 502.999V496.252C482.527 501.422 456.122 497.467 451.351 496.665C451.151 498.656 451.176 501.448 451.351 503.128L451.326 503.102Z" fill="black"/>
<path d="M464.539 493.176C464.24 493.176 463.965 492.995 463.84 492.685L462.816 489.815C462.666 489.428 462.866 488.988 463.24 488.833C463.615 488.678 464.04 488.885 464.19 489.273L465.214 492.142C465.364 492.53 465.164 492.969 464.789 493.124C464.714 493.15 464.614 493.176 464.539 493.176Z" fill="black"/>
<path d="M471.584 493.021C471.285 493.021 471.035 492.84 470.91 492.555L469.261 488.42C469.111 488.032 469.261 487.592 469.661 487.437C470.035 487.282 470.46 487.437 470.61 487.851L472.259 491.987C472.409 492.375 472.259 492.814 471.859 492.969C471.759 493.021 471.659 493.021 471.584 493.021Z" fill="black"/>
<path d="M479.004 491.03C478.779 491.03 478.579 490.927 478.429 490.746L475.507 486.869C475.257 486.533 475.307 486.067 475.632 485.809C475.956 485.55 476.406 485.602 476.656 485.938L479.578 489.816C479.828 490.152 479.778 490.617 479.454 490.875C479.329 490.979 479.154 491.03 479.004 491.03Z" fill="black"/>
<path d="M486.247 485.964C486.247 485.964 486.047 485.964 485.948 485.886L480.577 483.379C480.202 483.198 480.052 482.758 480.202 482.371C480.377 481.983 480.801 481.828 481.176 481.983L486.547 484.49C486.922 484.671 487.072 485.111 486.922 485.499C486.797 485.783 486.522 485.938 486.247 485.938V485.964Z" fill="black"/>
<path d="M488.045 478.132H487.995L481.45 477.615C481.051 477.589 480.751 477.227 480.776 476.787C480.801 476.374 481.151 476.064 481.575 476.09L488.12 476.607C488.52 476.632 488.82 476.994 488.795 477.434C488.77 477.821 488.445 478.132 488.07 478.132H488.045Z" fill="black"/>
<path d="M416.801 334.642C416.801 334.642 416.202 373.287 421.723 402.109C426.119 425.141 428.567 399.162 430.041 433.464C430.616 446.544 431.765 460.244 431.765 460.244L460.567 461.433C462.016 458.771 468.936 409.941 460.567 369.616C455.621 345.783 465.863 367.109 462.466 345.447C459.768 328.309 452.399 278.523 452.399 278.523L416.127 278.756C416.127 278.756 416.377 305.019 416.801 334.642Z" fill="black"/>
<path d="M458.294 337.304C458.294 337.304 461.991 375.846 467.512 404.668C471.909 427.699 472.333 401.023 479.053 434.627C481.077 444.76 482.501 459.623 482.501 459.623L509.58 462.596C511.028 459.934 517.374 413.482 509.005 373.157C504.059 349.324 511.428 364.756 508.006 343.094C505.308 325.956 501.386 279.686 501.386 279.686L448.502 276.481C448.502 276.481 457.845 307.681 458.294 337.304Z" fill="black"/>
<path d="M379.676 205.808C345.303 212.322 322.171 187.171 308.981 134.024C301.687 131.776 295.292 125.959 289.121 119.135C288.322 118.256 287.723 117.196 287.323 116.033C283.101 103.496 282.527 96.517 285.724 95.2762C289.671 93.4667 296.291 104.013 303.086 115.542C301.062 109.778 299.189 104.194 300.463 103.057C304.16 101.919 309.955 110.967 315.451 118.541C316.35 119.781 317.075 121.126 317.599 122.573L319.473 127.691C329.44 146.07 340.057 161.554 352.247 169.981C361.241 175.745 360.766 173.367 372.807 176.055L379.651 205.808H379.676Z" fill="white"/>
<path d="M369.46 207.566C356.645 207.566 345.379 202.629 335.886 192.832C324.295 180.864 315.052 161.296 308.383 134.645C300.564 132.086 293.994 125.649 288.598 119.678C287.749 118.747 287.074 117.558 286.649 116.318C282.128 102.954 281.778 96.0517 285.5 94.6042C289.247 92.8981 294.269 99.5931 300.339 109.493C299.165 105.487 298.99 103.419 300.039 102.488C300.114 102.411 300.214 102.359 300.314 102.333C304.036 101.196 308.882 107.968 314.003 115.18C314.703 116.163 315.402 117.145 316.102 118.101C317.026 119.394 317.8 120.815 318.35 122.315L320.198 127.381C331.764 148.681 342.106 162.019 352.723 169.361C358.544 173.083 360.217 173.316 364.264 173.807C366.363 174.065 368.986 174.401 373.032 175.306C373.307 175.358 373.532 175.59 373.582 175.875L380.427 205.627C380.477 205.834 380.427 206.041 380.327 206.222C380.227 206.403 380.052 206.506 379.852 206.558C376.305 207.23 372.833 207.566 369.485 207.566H369.46ZM286.699 95.845C286.475 95.845 286.25 95.8967 286.025 95.9742C284.451 96.5946 282.678 99.955 288.023 115.801C288.373 116.86 288.948 117.843 289.672 118.618C295.018 124.538 301.538 130.923 309.207 133.275C309.457 133.352 309.657 133.559 309.707 133.818C316.301 160.417 325.469 179.881 336.935 191.72C348.377 203.533 362.466 208.057 378.803 205.162L372.233 176.676C368.486 175.849 366.038 175.539 364.039 175.28C359.893 174.763 357.994 174.505 351.899 170.601C341.057 163.131 330.565 149.612 318.849 128.053C318.849 128.027 318.825 127.976 318.8 127.95L316.926 122.832C316.426 121.462 315.727 120.169 314.878 118.98C314.178 118.024 313.479 117.041 312.779 116.033C308.508 110.01 303.636 103.212 300.863 103.703C300.164 104.944 302.587 111.872 303.761 115.258C303.886 115.62 303.736 116.033 303.386 116.188C303.037 116.369 302.637 116.24 302.437 115.904C297.916 108.279 290.546 95.8191 286.649 95.8191L286.699 95.845Z" fill="black"/>
<path d="M388.548 152.197C403.736 146.381 408.533 143.692 422.921 139.686C437.86 135.498 449.576 134.464 464.889 136.222C482.25 138.212 501.211 141.288 514.525 155.169C527.041 168.223 531.587 188.05 534.809 206.842C535.034 208.135 535.259 209.531 534.809 210.746C533.486 214.52 508.83 213.046 508.83 213.02C507.93 218.216 507.656 225.635 507.231 230.908L504.233 295.997C439.733 314.919 415.527 295.764 415.527 295.764L406.159 219.302C406.034 215.89 404.161 206.791 404.161 206.791L379.78 215.734C371.636 197.717 368.139 185.051 360.045 167.008C359.521 165.845 388.448 152.274 388.573 152.223L388.548 152.197Z" fill="white"/>
<path d="M452.773 305.044C445.828 305.044 440.108 304.475 435.561 303.674C421.422 301.244 415.327 296.513 415.077 296.307C414.927 296.177 414.827 295.996 414.802 295.79L405.435 219.327C405.335 216.587 404.086 210.047 403.611 207.721L380.029 216.38C379.68 216.51 379.28 216.329 379.13 215.993C375.008 206.868 372.035 198.984 369.138 191.384C366.315 183.914 363.392 176.21 359.395 167.292C359.295 167.086 359.295 166.827 359.395 166.595C360.22 164.527 388.073 151.576 388.348 151.473C392.844 149.767 396.442 148.293 399.614 147.027C407.158 143.976 412.629 141.779 422.796 138.936C438.009 134.671 449.85 133.688 465.038 135.446C483.049 137.514 501.76 140.693 515.099 154.6C528.064 168.12 532.461 188.566 535.584 206.687C535.808 207.954 536.083 209.53 535.559 211.004C534.11 215.14 513.601 214.08 509.479 213.821C508.904 217.544 508.579 222.274 508.305 226.488C508.205 228.064 508.105 229.589 508.005 230.959L505.007 296.022C505.007 296.358 504.782 296.617 504.483 296.72C482.775 303.079 465.688 305.07 452.823 305.07L452.773 305.044ZM416.201 295.299C418.874 297.16 443.905 312.721 503.533 295.376L506.506 230.83C506.606 229.434 506.706 227.935 506.806 226.332C507.106 221.835 507.43 216.716 508.105 212.839C508.18 212.451 508.505 212.193 508.854 212.219C508.854 212.219 508.854 212.219 508.879 212.219C515.824 212.762 533.26 212.839 534.11 210.435C534.484 209.349 534.26 208.005 534.06 206.92C530.987 189.032 526.615 168.843 513.975 155.634C500.96 142.063 482.55 138.962 464.788 136.919C449.8 135.213 438.109 136.17 423.096 140.383C413.004 143.201 407.583 145.398 400.064 148.422C396.891 149.715 393.294 151.162 388.797 152.869C386.599 153.851 363.617 164.759 360.844 167.034C364.766 175.823 367.664 183.448 370.437 190.815C373.259 198.234 376.157 205.911 380.104 214.726L403.861 206.015C404.061 205.937 404.285 205.963 404.46 206.067C404.635 206.17 404.785 206.351 404.81 206.584C404.885 206.971 406.684 215.812 406.833 219.224L416.176 295.299H416.201Z" fill="black"/>
<path d="M426.07 94.4752C424.671 93.5188 423.447 92.459 422.748 91.2441C418.476 83.9287 415.304 69.7632 420.574 62.1118C423.447 63.9213 426.37 65.6015 429.592 66.8939C429.592 65.9634 429.617 65.0328 429.642 64.1022C429.592 66.3253 446.18 65.4464 447.828 65.1879C453.399 64.2573 459.544 62.3703 465.015 64.9811C467.913 66.3511 470.061 68.9877 472.084 71.5468C477.131 77.8799 477.98 84.9885 477.88 93.1052C477.78 100.265 476.431 109.649 469.437 113.087C462.267 116.628 451.401 109.856 445.355 106.418C441.208 104.065 437.187 101.506 433.265 98.8179C431.291 97.4738 428.418 96.1037 426.095 94.5011L426.07 94.4752Z" fill="black"/>
<path d="M464.992 109.391V138.626C464.992 142.995 461.57 146.536 457.348 146.536H448.405C444.183 146.536 440.761 142.995 440.761 138.626V125.081L464.992 109.416V109.391Z" fill="white"/>
<path d="M457.347 147.286H448.404C443.782 147.286 440.035 143.408 440.035 138.626V125.081C440.035 124.822 440.16 124.564 440.385 124.435L464.616 108.77C464.841 108.615 465.141 108.615 465.365 108.77C465.59 108.899 465.74 109.158 465.74 109.442V138.678C465.74 143.46 461.993 147.337 457.372 147.337L457.347 147.286ZM441.484 125.495V138.626C441.484 142.555 444.582 145.76 448.379 145.76H457.322C461.119 145.76 464.216 142.555 464.216 138.626V110.786L441.459 125.52L441.484 125.495Z" fill="black"/>
<path d="M436.438 81.4212C430.242 83.2307 425.896 89.0468 425.596 95.7159C425.071 107.09 425.746 125.184 435.638 128.958C449.627 134.257 460.094 120.764 462.193 118.101C464.291 115.439 466.389 107.012 466.389 107.012C466.389 107.012 470.811 106.779 471.76 102.902C472.684 99.0505 474.083 92.3038 465.24 92.5364C465.24 92.5364 463.841 79.7668 448.703 79.7668C443.807 79.7668 439.735 80.4648 436.462 81.4212H436.438Z" fill="white"/>
<path d="M442.084 130.897C439.836 130.897 437.613 130.483 435.389 129.63C425.572 125.908 424.248 109.106 424.873 95.6641C425.197 88.6073 429.769 82.5844 436.239 80.6715C440.086 79.56 444.258 78.9655 448.679 78.9655C462.244 78.9655 465.266 88.995 465.841 91.735C468.689 91.7609 470.737 92.5622 471.936 94.1132C473.984 96.7498 472.985 100.86 472.461 103.057C471.611 106.598 468.289 107.451 466.965 107.658C466.465 109.545 464.642 116.137 462.768 118.541L462.693 118.618C456.323 126.683 449.179 130.871 442.059 130.871L442.084 130.897ZM436.663 82.1449C430.793 83.8768 426.646 89.3311 426.346 95.7417C425.747 108.666 426.921 124.822 435.889 128.234C444.632 131.543 453.5 127.898 461.569 117.688L461.644 117.61C463.618 115.129 465.666 106.883 465.691 106.805C465.766 106.495 466.041 106.262 466.365 106.237C466.515 106.237 470.262 105.978 471.062 102.721C471.536 100.782 472.411 97.1376 470.812 95.0955C469.838 93.8288 467.964 93.2085 465.266 93.3119C464.892 93.3119 464.567 93.0275 464.517 92.6398C464.467 92.1486 462.993 80.5423 448.704 80.5423C444.407 80.5423 440.361 81.0851 436.663 82.1708V82.1449Z" fill="black"/>
<path d="M513.578 523.316L560.391 510.314L552.023 271.931L502.611 270.535L513.578 523.316Z" fill="#9F3787"/>
<path d="M516.9 528.693C516.75 528.693 516.575 528.641 516.45 528.538C516.275 528.408 516.175 528.176 516.15 527.943L505.184 275.162C505.184 274.955 505.259 274.749 505.408 274.594C505.558 274.438 505.758 274.361 505.958 274.387L555.37 275.783C555.769 275.808 556.069 276.144 556.044 276.558L564.413 514.941C564.413 515.277 564.188 515.587 563.863 515.665L517.024 528.667C517.024 528.667 516.899 528.667 516.85 528.667L516.9 528.693ZM506.682 275.964L517.624 526.961L563.014 514.346L554.595 277.256L506.682 275.964Z" fill="black"/>
<path d="M516.9 527.943L373.836 526.315L367.191 273.896L511.729 273.611L516.9 527.943Z" fill="white"/>
<path d="M516.9 528.693L373.836 527.064C373.461 527.064 373.137 526.754 373.112 526.367L366.467 273.947C366.467 273.741 366.517 273.534 366.642 273.379C366.767 273.224 366.966 273.12 367.166 273.12L511.704 272.836C511.904 272.836 512.104 272.913 512.229 273.043C512.379 273.198 512.454 273.379 512.454 273.586L517.625 527.918C517.625 528.124 517.55 528.305 517.4 528.46C517.25 528.59 517.075 528.667 516.875 528.667L516.9 528.693ZM374.511 525.565L516.151 527.168L510.98 274.387L367.966 274.62L374.511 525.565Z" fill="black"/>
<path d="M508.605 257.455L561.589 267.433V288.707L509.33 284.261L508.605 257.455Z" fill="white"/>
<path d="M561.589 289.483C561.589 289.483 561.539 289.483 561.514 289.483L509.255 285.037C508.855 284.985 508.58 284.623 508.605 284.235L507.881 257.43C507.881 257.223 508.006 257.016 508.181 256.887C508.355 256.757 508.555 256.706 508.78 256.757L561.764 266.735C562.114 266.813 562.364 267.123 562.364 267.485V288.759C562.364 288.966 562.264 289.173 562.114 289.328C561.989 289.457 561.814 289.509 561.614 289.509L561.589 289.483ZM510.104 283.589L560.84 287.88V268.08L509.255 258.386L510.079 283.589H510.104Z" fill="black"/>
<path d="M509.606 284.261L356.45 287.286L356.025 263.142L508.807 257.455L509.606 284.261Z" fill="white"/>
<path d="M356.45 288.061C356.275 288.061 356.075 287.984 355.95 287.854C355.8 287.725 355.725 287.518 355.725 287.311L355.301 263.142C355.301 262.729 355.601 262.393 356 262.367L508.782 256.68C508.982 256.68 509.206 256.757 509.356 256.913C509.506 257.068 509.581 257.274 509.556 257.507L510.38 284.313C510.38 284.701 510.056 285.011 509.681 285.011L356.525 288.035C356.525 288.035 356.525 288.035 356.5 288.035L356.45 288.061ZM356.775 263.866L357.174 286.51L508.932 283.537L508.032 258.283L356.8 263.866H356.775Z" fill="black"/>
<path d="M429.093 218.759C424.146 216.329 422.148 210.436 424.671 205.653L435.413 185.284C437.936 180.502 444.056 178.589 449.002 181.019C453.948 183.449 455.947 189.342 453.424 194.125L442.682 214.494C440.159 219.276 434.039 221.189 429.093 218.759Z" fill="black"/>
<path d="M429.467 257.249C429.093 257.249 428.768 256.938 428.743 256.525C427.444 233.26 427.519 225.325 437.336 197.64C437.486 197.252 437.911 197.046 438.285 197.201C438.66 197.356 438.86 197.769 438.71 198.183C428.993 225.583 428.918 233.441 430.192 256.473C430.192 256.887 429.917 257.249 429.492 257.275C429.492 257.275 429.467 257.275 429.442 257.275L429.467 257.249Z" fill="black"/>
<path d="M447.254 257.998C443.332 253.319 437.187 250.786 430.417 251.148C423.648 251.484 417.827 254.638 414.43 259.704L447.229 258.024L447.254 257.998Z" fill="black"/>
<path d="M435.863 419.816C435.689 419.816 435.489 419.738 435.364 419.609C435.064 419.324 435.064 418.833 435.339 418.523L458.221 393.527C458.496 393.217 458.97 393.217 459.27 393.501C459.57 393.785 459.57 394.276 459.295 394.587L436.413 419.583C436.263 419.738 436.063 419.816 435.888 419.816H435.863Z" fill="black"/>
<path d="M405.462 453.032C405.287 453.032 405.087 452.954 404.962 452.825C404.663 452.541 404.663 452.049 404.937 451.739L425.646 429.095C425.921 428.785 426.396 428.785 426.696 429.069C426.995 429.354 426.995 429.845 426.721 430.155L406.012 452.799C405.862 452.954 405.662 453.032 405.487 453.032H405.462Z" fill="black"/>
<path d="M429.444 452.334C429.27 452.334 429.07 452.256 428.945 452.127C428.645 451.843 428.645 451.352 428.92 451.042L482.179 392.829C482.453 392.519 482.928 392.519 483.228 392.803C483.527 393.087 483.527 393.578 483.253 393.889L429.994 452.101C429.844 452.256 429.644 452.334 429.469 452.334H429.444Z" fill="black"/>
<path d="M154.353 425.735L153.528 439.177C153.528 442.951 156.351 446.001 159.724 445.794L163.62 445.587C166.768 445.406 169.216 442.46 169.141 438.944L169.766 421.909L154.353 425.735Z" fill="white"/>
<path d="M159.45 446.57C157.826 446.57 156.277 445.923 155.053 444.708C153.629 443.313 152.805 441.27 152.805 439.177L153.629 425.683C153.629 425.347 153.879 425.063 154.179 424.985L169.592 421.16C169.816 421.108 170.041 421.16 170.216 421.315C170.391 421.47 170.491 421.702 170.491 421.935L169.866 438.97C169.966 442.899 167.219 446.156 163.646 446.363L159.749 446.57C159.749 446.57 159.524 446.57 159.425 446.57H159.45ZM155.078 426.33L154.304 439.228C154.304 440.883 154.953 442.485 156.077 443.623C157.076 444.631 158.375 445.122 159.699 445.044L163.596 444.838C166.369 444.683 168.493 442.098 168.418 438.97L169.017 422.892L155.078 426.355V426.33Z" fill="black"/>
<path d="M152.905 437.652C152.006 436.592 150.407 436.643 149.533 437.703C147.809 439.849 145.336 443.468 144.562 447.397C143.363 453.601 141.389 466.603 145.536 467.921C148.609 468.903 180.859 467.016 196.821 466.034C201.842 465.724 204.365 459.468 200.918 455.669C198.32 452.773 193.349 449.801 187.578 447.371C178.885 443.7 174.738 440.366 172.74 438.091C171.391 436.54 169.168 436.178 167.469 437.316L162.373 440.728C159.9 442.382 156.627 441.943 154.654 439.642L152.905 437.626V437.652Z" fill="white"/>
<path d="M150.508 468.955C147.81 468.955 145.961 468.852 145.312 468.645C140.94 467.249 142.089 456.237 143.838 447.242C144.613 443.235 147.061 439.564 148.959 437.212C149.509 436.54 150.308 436.126 151.182 436.101C152.057 436.101 152.856 436.462 153.431 437.109L155.179 439.125C156.928 441.141 159.776 441.529 161.949 440.056L167.045 436.643C169.019 435.325 171.642 435.713 173.265 437.548C175.114 439.668 179.136 442.951 187.829 446.621C194.049 449.258 198.87 452.256 201.443 455.1C203.217 457.064 203.692 459.83 202.717 462.338C201.718 464.897 199.47 466.577 196.822 466.732C179.81 467.792 159.876 468.878 150.458 468.878L150.508 468.955ZM151.232 437.626C151.232 437.626 151.232 437.626 151.207 437.626C150.783 437.626 150.358 437.832 150.083 438.168C148.285 440.417 145.986 443.855 145.262 447.526C143.064 458.848 143.239 466.396 145.737 467.171C147.81 467.844 166.421 467.146 196.772 465.259C198.845 465.129 200.619 463.811 201.393 461.795C202.168 459.804 201.793 457.711 200.394 456.16C197.971 453.471 193.325 450.602 187.304 448.043C178.361 444.269 174.14 440.805 172.191 438.582C171.042 437.29 169.218 437.005 167.844 437.936L162.748 441.348C159.951 443.209 156.303 442.718 154.08 440.133L152.332 438.117C152.057 437.781 151.632 437.6 151.232 437.6V437.626Z" fill="black"/>
<path d="M170.367 454.66C170.143 454.66 169.918 454.557 169.768 454.35C169.518 454.014 169.593 453.523 169.918 453.29L177.637 447.474C177.961 447.216 178.436 447.293 178.661 447.629C178.911 447.965 178.836 448.457 178.511 448.689L170.792 454.505C170.667 454.609 170.517 454.66 170.367 454.66Z" fill="black"/>
<path d="M188.002 325.233C188.002 325.233 185.379 358.475 181.008 384.479C177.511 405.236 180.633 376.802 175.287 407.123C173.664 416.274 171.091 430.207 171.091 430.207L152.805 431.189C151.456 428.837 143.012 441.426 149.732 405.055C153.704 383.575 140.664 354.029 143.312 334.513C145.386 319.08 151.006 274.232 151.006 274.232L183.581 273.663C183.581 273.663 187.828 298.659 188.027 325.233H188.002Z" fill="black"/>
<path d="M152.804 431.965C152.555 431.965 152.305 431.835 152.18 431.603C150.881 429.302 142.138 442.201 149.007 404.926C151.081 393.682 148.433 380.111 145.86 366.979C143.512 355.011 141.313 343.715 142.562 334.409C144.611 319.158 150.206 274.594 150.256 274.128C150.306 273.766 150.606 273.482 150.981 273.456L183.556 272.888C183.905 272.888 184.205 273.146 184.28 273.508C184.33 273.766 188.527 298.866 188.726 325.207C188.726 325.207 188.726 325.258 188.726 325.284C188.702 325.62 186.054 358.863 181.732 384.609C180.183 393.811 179.933 349.092 179.684 360.336C179.359 374.424 178.984 390.399 176.011 407.227C174.737 414.387 171.865 430.233 171.79 430.414C171.69 430.698 171.44 430.905 171.14 430.931L152.854 431.913C152.854 431.913 152.829 431.913 152.804 431.913V431.965ZM151.63 274.981C150.931 280.565 145.935 320.373 144.011 334.616C142.787 343.663 144.985 354.83 147.284 366.669C149.882 379.93 152.555 393.656 150.431 405.185C144.011 439.978 151.58 425.528 153.254 430.388L170.441 429.457C170.94 426.743 173.114 415.007 174.513 406.968C177.46 390.244 177.835 374.346 178.16 360.31C178.434 348.988 178.659 393.656 180.233 384.35C184.48 359.044 187.128 326.422 187.228 325.207C187.053 301.348 183.556 278.497 182.906 274.439L151.605 274.981H151.63Z" fill="black"/>
<path d="M94.0233 398.567L85.7547 417.334C84.5307 421.185 86.2793 425.218 89.5768 426.148L93.3988 427.234C96.4964 428.113 99.7938 425.916 100.868 422.297L109.686 402.625L94.0233 398.567Z" fill="white"/>
<path d="M94.8241 428.19C94.2995 428.19 93.75 428.113 93.2254 427.958L89.4033 426.872C87.7546 426.407 86.3807 425.244 85.5314 423.615C84.5321 421.676 84.3573 419.298 85.0567 417.101C85.0567 417.075 85.0567 417.049 85.0817 417.023L93.3503 398.257C93.5002 397.921 93.8499 397.74 94.1996 397.843L109.862 401.902C110.062 401.953 110.262 402.108 110.337 402.315C110.437 402.522 110.437 402.755 110.337 402.961L101.544 422.581C100.52 425.993 97.7469 428.216 94.7992 428.216L94.8241 428.19ZM86.4556 417.618C85.8811 419.427 86.031 421.34 86.8303 422.891C87.4798 424.158 88.554 425.063 89.803 425.425L93.6251 426.51C96.348 427.286 99.2457 425.321 100.195 422.09C100.195 422.064 100.195 422.012 100.22 421.987L108.663 403.142L94.4494 399.472L86.4556 417.644V417.618Z" fill="black"/>
<path d="M69.6451 430.388C68.0463 432.507 68.0963 435.506 69.745 437.574C75.5655 444.837 88.7053 461.174 92.7271 465.465C97.9481 471.023 106.566 474.849 112.312 473.737C118.057 472.625 114.235 456.159 111.712 449.283C107.99 439.073 107.84 424.597 105.292 421.909C103.794 420.358 99.1971 421.185 95.6249 422.167C92.852 422.917 89.9293 421.625 88.5054 419.066L86.2072 414.955C85.6326 413.922 84.2587 413.715 83.4094 414.542C80.8114 417.101 75.4406 422.659 69.5951 430.362L69.6451 430.388Z" fill="white"/>
<path d="M110.238 474.693C104.542 474.693 97.0731 471.178 92.2019 466.008C88.1301 461.691 74.7405 445.044 69.1698 438.065C67.2962 435.712 67.2463 432.3 69.0449 429.922C74.8903 422.193 80.2612 416.636 82.9341 414.025C83.5087 413.456 84.2581 413.223 85.0325 413.327C85.8069 413.43 86.4813 413.921 86.8561 414.619L89.1543 418.729C90.4283 421.004 93.0263 422.141 95.4494 421.469C101.02 419.944 104.417 419.918 105.816 421.418C107.265 422.917 107.915 427.027 108.814 432.714C109.638 438.013 110.588 444.01 112.411 449.051C114.435 454.582 117.707 467.585 115.034 472.522C114.435 473.633 113.56 474.306 112.461 474.538C111.762 474.667 111.012 474.745 110.238 474.745V474.693ZM70.219 430.853C68.845 432.662 68.87 435.299 70.3189 437.108C75.8646 444.062 89.2292 460.683 93.2761 464.948C98.522 470.506 106.841 474.047 112.211 473.013C112.886 472.884 113.385 472.47 113.785 471.746C116.058 467.559 113.136 455.229 111.062 449.568C109.189 444.398 108.214 438.323 107.39 432.947C106.641 428.164 105.916 423.641 104.817 422.478C104.367 422.012 102.594 421.108 95.8491 422.943C92.7765 423.77 89.504 422.348 87.9052 419.479L85.607 415.369C85.4322 415.085 85.1574 414.878 84.8326 414.826C84.5079 414.774 84.1831 414.878 83.9583 415.11C81.3104 417.721 76.0145 423.201 70.219 430.853Z" fill="black"/>
<path d="M95.1488 440.055C94.7741 440.055 94.4744 439.771 94.4244 439.383C94.3744 438.97 94.6742 438.582 95.0739 438.53L103.492 437.496C103.892 437.444 104.267 437.755 104.317 438.168C104.367 438.582 104.067 438.97 103.667 439.021L95.2488 440.055C95.2488 440.055 95.1988 440.055 95.1738 440.055H95.1488Z" fill="black"/>
<path d="M148.407 270.561C136.816 245.125 104.266 261.203 105.59 310.731C106.115 330.143 105.94 362.843 109.437 376.362C110.761 381.48 110.012 386.909 107.589 391.561C90.3019 424.416 92.1255 371.916 89.5275 402.315C89.4776 402.806 99.22 412.939 104.591 413.43C121.253 392.751 132.819 407.64 140.763 392.44C148.707 377.241 152.853 294.652 152.853 294.652C152.853 294.652 155.526 286.148 148.432 270.561H148.407Z" fill="black"/>
<path d="M104.564 414.206C104.564 414.206 104.514 414.206 104.489 414.206C101.467 413.921 97.395 410.949 94.5222 408.467C94.4723 408.416 88.6768 403.401 88.7517 402.263C89.0764 398.593 89.3263 395.336 89.5511 392.389C91.1998 370.727 91.6494 420.255 106.913 391.226C109.311 386.65 109.96 381.455 108.711 376.569C105.863 365.48 105.439 341.879 105.089 322.906C105.014 318.537 104.939 314.401 104.839 310.757C103.99 279.065 116.78 261.384 129.02 258.36C137.239 256.318 144.733 260.764 149.055 270.251C155.875 285.192 153.851 293.722 153.551 294.808C153.327 299.331 149.23 377.758 141.361 392.828C138.788 397.766 135.84 405.365 132.393 414.18C125.273 432.507 116.405 399.963 105.114 413.973C104.964 414.154 104.764 414.257 104.539 414.257L104.564 414.206ZM90.2505 402.16C91.3247 403.633 99.5433 411.828 104.24 412.629C115.256 398.774 123.999 431.654 131.044 413.585C134.491 404.745 137.464 397.093 140.062 392.079C147.831 377.189 152.028 295.428 152.078 294.627C152.078 294.549 152.078 294.497 152.103 294.42C152.128 294.342 154.576 285.941 147.706 270.871C143.709 262.108 136.839 257.972 129.345 259.807C117.654 262.703 105.464 279.841 106.288 310.705C106.388 314.35 106.463 318.486 106.538 322.88C106.888 341.776 107.287 365.273 110.11 376.181C111.459 381.429 110.785 387.012 108.187 391.949C93.0733 420.694 92.6237 371.089 91 392.492C90.7751 395.387 90.5253 398.593 90.2256 402.16H90.2505Z" fill="black"/>
<path d="M104.567 414.206C104.567 414.206 104.517 414.206 104.492 414.206C101.47 413.922 97.3979 410.949 94.5252 408.467C94.4752 408.416 88.6797 403.401 88.7546 402.263C89.0794 398.593 89.3292 395.336 89.554 392.389C91.2027 370.727 91.6524 420.255 106.916 391.226C109.314 386.65 109.963 381.455 108.714 376.569C105.866 365.48 105.442 341.879 105.092 322.906C105.017 318.537 104.942 314.401 104.842 310.757C103.993 279.065 116.783 261.384 129.023 258.36C137.242 256.318 144.736 260.764 149.058 270.251L149.333 270.897C149.507 271.285 149.333 271.724 148.983 271.905C148.608 272.086 148.184 271.905 148.009 271.543L147.734 270.923C143.737 262.16 136.867 258.024 129.373 259.859C117.682 262.754 105.492 279.893 106.316 310.757C106.416 314.401 106.491 318.537 106.566 322.932C106.916 341.828 107.315 365.325 110.138 376.233C111.487 381.481 110.813 387.064 108.215 392.001C93.1013 420.746 92.6516 371.141 91.0279 392.544C90.803 395.439 90.5532 398.645 90.2535 402.212C91.3276 403.685 99.5463 411.879 104.243 412.681C115.259 398.826 124.002 431.706 131.047 413.637C134.494 404.797 137.467 397.145 140.065 392.131C143.462 385.642 146.71 365.118 149.458 332.78L149.507 332.263C149.732 329.291 150.307 321.433 156.227 316.961C156.552 316.702 157.027 316.78 157.251 317.116C157.501 317.452 157.426 317.917 157.102 318.175C151.706 322.234 151.181 329.601 150.981 332.367L150.931 332.91C149.008 355.605 145.785 384.402 141.364 392.854C138.791 397.792 135.843 405.391 132.396 414.206C125.276 432.533 116.408 399.989 105.117 413.999C104.967 414.18 104.767 414.283 104.542 414.283L104.567 414.206Z" fill="black"/>
<path d="M110.788 189.627C106.591 189.317 99.7465 191.798 87.0563 178.538C66.9219 197.77 37.17 189.937 25.1044 176.78C10.3658 160.727 10.116 129.088 28.8765 111.51C13.1637 112.492 8.51726 106.547 7.11835 104.169C-1.2002 90.1844 15.9615 54.8225 34.0974 53.4783C40.7922 52.9872 50.2349 60.8971 68.8454 76.7686C88.0805 93.1571 89.0797 96.5434 94.5755 96.7502C110.763 97.3964 113.761 69.0914 134.794 64.0766C151.806 60.0441 169.767 72.9429 171.191 94.3979C171.766 103.006 161.349 101.972 156.527 119.472C150.307 141.961 136.443 191.411 110.788 189.575V189.627Z" fill="black"/>
<path d="M193.794 152.895C210.73 155.635 218.449 155.402 232.239 148.345C232.239 148.345 247.577 139.091 246.003 134.568L240.582 94.1652C239.708 88.0389 240.058 81.7834 241.606 75.8122L246.678 59.8631C247.527 57.1489 251.399 57.7951 251.399 60.6644V68.8587C251.399 68.8587 253.972 68.8328 255.046 68.3675C257.419 67.3853 259.193 65.2398 259.992 62.7324C260.916 59.8114 262.44 55.1585 263.09 53.866C264.064 51.9532 265.163 49.1873 267.237 47.9465H267.312C269.485 46.6282 272.133 48.4635 271.808 51.0226L270.709 59.889C269.91 66.3254 267.137 72.3225 262.815 77.0271L254.222 86.3329C252.623 88.0648 252.198 90.598 253.123 92.7694L268.885 129.992C272.433 138.574 273.482 146.743 271.408 152.145C260.642 180.347 190.796 199.605 190.796 199.605L193.819 152.895H193.794Z" fill="white"/>
<path d="M190.773 200.354C190.598 200.354 190.448 200.303 190.298 200.173C190.123 200.018 190.023 199.786 190.023 199.527L193.046 152.817C193.046 152.611 193.171 152.404 193.321 152.275C193.471 152.145 193.696 152.094 193.895 152.119C210.832 154.859 218.301 154.601 231.916 147.622C238.011 143.925 246.255 137.489 245.306 134.774C245.306 134.723 245.281 134.671 245.281 134.619L239.86 94.2168C238.96 87.9613 239.31 81.6799 240.884 75.5536L245.98 59.5787C246.48 58.0277 247.904 57.123 249.477 57.3815C251.051 57.64 252.125 58.9841 252.125 60.6126V68.0314C252.975 67.9797 254.199 67.8763 254.773 67.6178C256.872 66.7389 258.52 64.8519 259.295 62.4479C260.369 59.0617 261.793 54.7448 262.442 53.4524C262.567 53.1939 262.717 52.9095 262.842 52.6252C263.741 50.764 264.89 48.4117 266.864 47.2227L266.939 47.171C268.188 46.4472 269.687 46.4989 270.886 47.326C272.085 48.1532 272.709 49.5749 272.534 51.0484L271.435 59.9147C270.611 66.558 267.813 72.6326 263.342 77.4923L254.748 86.798C253.349 88.2973 252.975 90.5204 253.799 92.4074L269.562 129.63C273.284 138.6 274.208 146.872 272.11 152.378C261.343 180.605 193.87 199.501 190.998 200.277C190.948 200.277 190.873 200.277 190.798 200.277L190.773 200.354ZM194.495 153.774L191.597 198.597C200.141 196.115 260.918 177.581 270.736 151.887C272.684 146.769 271.785 138.885 268.213 130.303L252.45 93.0794C251.401 90.5979 251.9 87.7545 253.699 85.7899L262.292 76.4841C266.539 71.883 269.212 66.0927 269.986 59.7596L271.086 50.8933C271.21 49.9885 270.836 49.1355 270.086 48.6185C269.362 48.1015 268.438 48.0757 267.688 48.541H267.613C266.039 49.5232 265.015 51.6429 264.191 53.3231C264.041 53.6074 263.916 53.8918 263.766 54.1761C263.292 55.1067 262.217 58.2086 260.719 62.9391C259.819 65.7825 257.871 68.0055 255.348 69.0654C254.174 69.5565 251.676 69.6082 251.401 69.6082C251.176 69.6082 251.026 69.5307 250.876 69.3756C250.726 69.2205 250.651 69.0395 250.651 68.8327V60.6385C250.701 59.5528 249.927 59.01 249.277 58.9066C248.628 58.8032 247.729 59.0358 247.404 60.0698L242.333 76.0189C240.809 81.8867 240.484 87.9613 241.359 94.0359L246.779 134.387C248.303 139.272 235.313 147.415 232.665 148.992C218.976 155.997 211.007 156.385 194.52 153.774H194.495Z" fill="black"/>
<path d="M208.91 151.422C209.909 151.939 210.434 153.076 210.184 154.213L202.815 188.128C200.442 198.028 199.118 208.187 198.918 218.397L197.594 281.987C197.594 281.987 166.168 306.544 103.192 291.086L96.772 231.167C95.423 218.682 92.4503 206.455 87.9038 194.823L79.4854 173.264C79.0107 172.05 79.3855 170.654 80.3847 169.878C84.7813 166.44 97.1467 157.315 110.062 152.869C131.995 145.295 187.826 140.72 208.885 151.448L208.91 151.422Z" fill="white"/>
<path d="M143.011 296.902C131.619 296.902 118.28 295.532 103.042 291.809C102.742 291.732 102.517 291.473 102.492 291.163L96.072 231.244C94.7481 218.837 91.7754 206.688 87.2539 195.107L78.8354 173.549C78.2359 172.023 78.7105 170.266 79.9845 169.283C84.6559 165.613 96.9464 156.617 109.861 152.145C121.103 148.268 140.712 145.269 159.798 144.546C172.713 144.054 196.319 144.184 209.234 150.775C210.533 151.447 211.233 152.921 210.908 154.394L203.539 188.309C201.166 198.157 199.866 208.29 199.642 218.423L198.318 282.013C198.318 282.245 198.193 282.452 198.018 282.607C197.693 282.866 189.874 288.889 174.186 293.076C166.492 295.144 156.026 296.928 142.986 296.928L143.011 296.902ZM103.866 290.439C162.371 304.657 193.621 283.9 196.869 281.573L198.193 218.346C198.418 208.109 199.717 197.847 202.115 187.921L209.459 154.032C209.634 153.257 209.259 152.456 208.585 152.094C188.35 141.806 133.018 145.735 110.311 153.567C97.5959 157.961 85.4803 166.854 80.8588 170.473C80.1094 171.041 79.8346 172.075 80.1844 172.98L88.6028 194.538C93.1743 206.248 96.172 218.552 97.5209 231.089L103.891 290.465L103.866 290.439Z" fill="black"/>
<path d="M77.0628 182.88C78.162 180.631 79.486 178.615 80.9098 176.806L87.9294 194.797C90.7522 202.035 92.9505 209.505 94.5493 217.105C95.8482 224.834 105.291 265.469 113.634 264.487C124.176 263.272 116.307 280.1 92.7507 277.98C74.8645 276.377 67.0456 203.198 77.0628 182.854V182.88Z" fill="white"/>
<path d="M96.6722 278.936C95.3982 278.936 94.0492 278.885 92.6753 278.755C89.0281 278.419 85.6558 275.421 82.6331 269.812C71.8415 249.701 68.2193 199.114 76.3879 182.544C77.4621 180.373 78.7861 178.279 80.3099 176.34C80.4848 176.133 80.7346 176.03 80.9844 176.082C81.2342 176.133 81.459 176.289 81.5589 176.547L88.5785 194.538C91.4013 201.75 93.6246 209.298 95.2483 216.975C97.0969 228.065 106.265 263.789 113.309 263.789C113.384 263.789 113.459 263.789 113.534 263.789C116.732 263.427 117.981 264.642 118.455 265.417C119.205 266.658 119.055 268.364 118.031 270.148C115.408 274.62 107.764 278.988 96.6472 278.988L96.6722 278.936ZM80.6846 178.305C79.5355 179.882 78.5363 181.51 77.7119 183.216C69.6931 199.501 73.2903 249.235 83.9321 269.062C86.68 274.206 89.6776 276.946 92.8002 277.23C105.44 278.368 114.084 273.922 116.782 269.295C117.506 268.028 117.681 266.891 117.231 266.167C116.732 265.366 115.458 265.029 113.709 265.236C113.584 265.236 113.459 265.236 113.334 265.236C103.242 265.236 93.8744 217.673 93.7994 217.208C92.2257 209.66 90.0024 202.19 87.2045 195.055L80.6596 178.279L80.6846 178.305Z" fill="black"/>
<path d="M159.274 117.275L157.75 147.829L167.518 150.207C170.865 151.008 171.365 155.764 168.242 157.289C159.499 161.529 144.311 166.001 125.95 159.487C122.778 158.375 122.303 153.955 125.151 152.145L132.145 147.725L138.64 111.924L159.224 117.275H159.274Z" fill="white"/>
<path d="M144.661 163.519C138.865 163.519 132.52 162.589 125.751 160.185C124.002 159.564 122.803 158.013 122.603 156.126C122.403 154.239 123.253 152.456 124.826 151.473L131.546 147.234L137.991 111.769C138.016 111.562 138.141 111.381 138.316 111.278C138.491 111.174 138.691 111.123 138.89 111.174L159.474 116.525C159.824 116.603 160.049 116.939 160.024 117.301L158.55 147.234L167.718 149.457C169.567 149.897 170.891 151.448 171.09 153.412C171.29 155.351 170.316 157.134 168.617 157.962C162.672 160.831 154.478 163.519 144.686 163.519H144.661ZM139.29 112.829L132.92 147.829C132.87 148.035 132.77 148.216 132.57 148.346L125.576 152.766C124.502 153.438 123.927 154.627 124.052 155.945C124.177 157.238 125.026 158.323 126.225 158.737C143.986 165.018 158.725 161.038 167.968 156.566C169.342 155.894 169.716 154.575 169.617 153.541C169.517 152.507 168.867 151.267 167.393 150.905L157.626 148.527C157.276 148.449 157.051 148.113 157.051 147.751L158.525 117.818L139.29 112.803V112.829Z" fill="black"/>
<path d="M132.473 116.499C132.473 116.499 123.43 116.266 122.231 108.744C120.432 97.2931 129.6 99.2318 129.6 99.2318C129.6 99.2318 128.251 89.2798 140.941 89.7709C148.885 90.0811 155.605 90.5981 159.902 90.9858C162.974 91.2702 165.522 93.5966 166.172 96.7244C167.421 102.877 169.12 113.32 168.37 121.85C167.696 129.656 164.948 135.834 157.928 135.576C138.693 134.904 132.473 116.499 132.473 116.499Z" fill="white"/>
<path d="M158.326 136.326C158.176 136.326 158.051 136.326 157.901 136.326C140.14 135.705 133.121 120.144 131.972 117.223C129.973 117.042 122.629 115.853 121.53 108.874C120.905 104.867 121.48 101.946 123.278 100.162C125.052 98.3788 127.525 98.2754 128.849 98.353C128.849 96.9829 129.149 94.4239 130.997 92.3042C133.071 89.9261 136.418 88.8404 140.99 89.0213C148.983 89.3315 155.753 89.8485 160 90.2363C163.422 90.5464 166.195 93.0797 166.919 96.5694C168.069 102.282 169.917 113.139 169.143 121.928C168.094 133.767 162.798 136.352 158.351 136.352L158.326 136.326ZM128.199 99.8522C127.075 99.8522 125.452 100.085 124.278 101.248C122.854 102.67 122.429 105.151 122.979 108.615C124.053 115.414 132.171 115.724 132.496 115.724C132.796 115.724 133.071 115.931 133.171 116.241C133.221 116.422 139.466 134.154 157.951 134.801C163.622 135.007 166.869 130.613 167.644 121.772C168.393 113.19 166.595 102.489 165.446 96.8795C164.871 94.062 162.623 91.994 159.85 91.7614C155.603 91.3736 148.883 90.8566 140.915 90.5464C136.818 90.3913 133.845 91.3219 132.071 93.3382C129.898 95.8197 130.323 99.1026 130.323 99.1284C130.348 99.3611 130.273 99.6196 130.098 99.7747C129.923 99.9556 129.673 100.007 129.448 99.9556C129.448 99.9556 128.924 99.8522 128.174 99.8522H128.199Z" fill="black"/>
<path d="M171.415 521.791L223.25 506.204L227.597 270.406L166.319 265.96L171.415 521.791Z" fill="#9F3787"/>
<path d="M174.737 527.168C174.588 527.168 174.413 527.116 174.288 527.012C174.113 526.883 174.013 526.651 173.988 526.418L168.917 270.587C168.917 270.38 168.992 270.173 169.142 270.018C169.292 269.863 169.492 269.785 169.691 269.811L230.969 274.283C231.369 274.309 231.668 274.645 231.643 275.059L227.272 510.857C227.272 511.193 227.047 511.503 226.722 511.58L174.887 527.168C174.887 527.168 174.762 527.168 174.712 527.168H174.737ZM170.416 271.388L175.462 525.436L225.848 510.236L230.194 275.731L170.416 271.388Z" fill="black"/>
<path d="M174.736 526.418L42.0645 524.79L42.7639 272.371L175.461 269.036L174.736 526.418Z" fill="white"/>
<path d="M174.737 527.168L42.0653 525.539C41.6906 525.539 41.3658 525.229 41.3408 524.841L42.0403 272.422C42.0403 272.215 42.0902 272.009 42.2151 271.854C42.34 271.698 42.5399 271.595 42.7397 271.595L175.437 268.26C175.637 268.26 175.836 268.338 175.961 268.467C176.111 268.622 176.186 268.803 176.186 269.01L175.462 526.392C175.462 526.599 175.387 526.78 175.237 526.935C175.087 527.064 174.912 527.142 174.712 527.142L174.737 527.168ZM42.7397 524.04L174.013 525.643L174.737 269.811L43.5641 273.094L42.7397 524.04Z" fill="black"/>
<path d="M174.839 252.88L237.191 265.934V287.182L173.065 279.686L174.839 252.88Z" fill="white"/>
<path d="M237.19 287.958C237.19 287.958 237.14 287.958 237.115 287.958L172.99 280.435C172.59 280.384 172.315 280.022 172.34 279.634L174.114 252.828C174.114 252.621 174.239 252.415 174.414 252.285C174.589 252.156 174.789 252.104 175.013 252.156L237.34 265.21C237.69 265.288 237.94 265.598 237.94 265.96V287.234C237.94 287.441 237.84 287.647 237.69 287.802C237.565 287.932 237.39 287.983 237.19 287.983V287.958ZM173.864 279.014L236.466 286.355V266.554L175.538 253.811L173.864 279.014Z" fill="black"/>
<path d="M173.338 279.686L32.0223 285.761L31.5977 261.617L175.036 252.88L173.338 279.686Z" fill="white"/>
<path d="M32.0231 286.536C31.8483 286.536 31.6484 286.458 31.5235 286.329C31.3736 286.2 31.2987 285.993 31.2987 285.786L30.874 261.617C30.874 261.204 31.1738 260.868 31.5735 260.842L174.987 252.105C175.187 252.105 175.412 252.182 175.562 252.337C175.712 252.492 175.787 252.699 175.762 252.932L174.088 279.738C174.088 280.125 173.763 280.436 173.388 280.436L32.0731 286.536C32.0731 286.536 32.0731 286.536 32.0481 286.536H32.0231ZM32.3479 262.341L32.7476 284.985L172.639 278.962L174.238 253.707L32.3479 262.341Z" fill="black"/>
<path d="M122.153 217.234C117.207 214.804 115.208 208.91 117.732 204.128L128.473 183.759C130.996 178.977 137.116 177.064 142.063 179.494C147.009 181.923 149.007 187.817 146.484 192.599L135.743 212.968C133.22 217.751 127.099 219.663 122.153 217.234Z" fill="black"/>
<path d="M122.529 255.724C122.154 255.724 121.829 255.413 121.804 255C120.505 231.735 120.58 223.8 130.398 196.115C130.548 195.727 130.972 195.52 131.347 195.675C131.722 195.831 131.922 196.244 131.772 196.658C122.054 224.058 121.979 231.916 123.253 254.948C123.253 255.362 122.978 255.724 122.554 255.749C122.554 255.749 122.529 255.749 122.504 255.749L122.529 255.724Z" fill="black"/>
<path d="M140.316 256.473C136.394 251.794 130.249 249.261 123.479 249.623C116.709 249.959 110.889 253.113 107.491 258.179L140.291 256.499L140.316 256.473Z" fill="black"/>
<path d="M98.2238 327.843C98.0489 327.843 97.849 327.766 97.7241 327.636C97.4244 327.352 97.4244 326.861 97.6992 326.551L120.581 301.554C120.856 301.244 121.331 301.244 121.631 301.528C121.93 301.813 121.93 302.304 121.656 302.614L98.7733 327.61C98.6234 327.766 98.4236 327.843 98.2487 327.843H98.2238Z" fill="black"/>
<path d="M67.8468 361.034C67.6719 361.034 67.4721 360.956 67.3472 360.827C67.0474 360.543 67.0474 360.051 67.3222 359.741L88.0311 337.097C88.3059 336.787 88.7806 336.787 89.0803 337.071C89.3801 337.356 89.3801 337.847 89.1053 338.157L68.3964 360.801C68.2465 360.956 68.0466 361.034 67.8718 361.034H67.8468Z" fill="black"/>
<path d="M91.8282 360.336C91.6534 360.336 91.4535 360.258 91.3286 360.129C91.0289 359.845 91.0289 359.354 91.3037 359.043L144.562 300.831C144.837 300.521 145.312 300.521 145.612 300.805C145.911 301.089 145.911 301.58 145.636 301.891L92.3778 360.103C92.2279 360.258 92.0281 360.336 91.8532 360.336H91.8282Z" fill="black"/>
<path d="M247.332 215.011C246.933 214.778 246.558 214.494 246.233 214.158C243.985 211.909 243.91 208.187 246.083 205.86C247.132 204.723 248.556 204.103 250.055 204.077C251.579 204.051 253.003 204.62 254.102 205.705C255.201 206.791 255.801 208.264 255.826 209.815C255.851 211.392 255.301 212.866 254.252 214.003C253.203 215.14 251.779 215.761 250.28 215.787C249.231 215.787 248.232 215.528 247.357 215.011H247.332ZM252.253 206.145C251.604 205.757 250.855 205.55 250.08 205.576C248.956 205.576 247.907 206.067 247.132 206.92C245.534 208.652 245.584 211.418 247.232 213.072C248.032 213.874 249.106 214.313 250.23 214.287C251.354 214.287 252.403 213.796 253.178 212.943C253.952 212.116 254.377 211.004 254.352 209.841C254.352 208.678 253.877 207.592 253.053 206.791C252.803 206.532 252.528 206.326 252.228 206.145H252.253Z" fill="black"/>
<path d="M362.118 241.377C361.719 241.145 361.344 240.86 361.019 240.524C358.771 238.275 358.696 234.553 360.869 232.227C361.919 231.089 363.342 230.469 364.841 230.443C366.365 230.417 367.789 230.986 368.888 232.071C369.987 233.157 370.587 234.631 370.612 236.182C370.637 237.758 370.087 239.232 369.038 240.369C367.989 241.507 366.565 242.127 365.066 242.153C364.017 242.153 363.018 241.894 362.143 241.377H362.118ZM367.04 232.511C366.39 232.123 365.641 231.916 364.866 231.942C363.742 231.942 362.693 232.433 361.919 233.286C360.32 235.018 360.37 237.784 362.018 239.439C362.818 240.24 363.892 240.679 365.016 240.653C366.14 240.653 367.189 240.162 367.964 239.309C368.738 238.482 369.163 237.371 369.138 236.207C369.138 235.044 368.663 233.958 367.839 233.157C367.589 232.899 367.314 232.692 367.015 232.511H367.04Z" fill="black"/>
<path d="M111.789 45.3615C111.789 45.3615 111.689 45.2839 111.639 45.2581L109.466 43.0868C109.166 42.8024 109.166 42.3113 109.466 42.0011C109.741 41.6909 110.215 41.6909 110.515 42.0011L112.689 44.1724C112.988 44.4568 112.988 44.9479 112.689 45.2581C112.439 45.5166 112.089 45.5683 111.789 45.3873V45.3615Z" fill="black"/>
<path d="M102.621 36.2367C102.621 36.2367 102.521 36.1592 102.471 36.1333L100.298 33.962C99.9983 33.6777 99.9983 33.1865 100.298 32.8763C100.573 32.5661 101.047 32.5661 101.347 32.8763L103.521 35.0477C103.82 35.332 103.82 35.8231 103.521 36.1333C103.271 36.3918 102.921 36.4435 102.621 36.2626V36.2367Z" fill="black"/>
<path d="M109.49 36.1074C109.49 36.1074 109.39 36.0298 109.34 36.004C109.04 35.7196 109.04 35.2285 109.34 34.9183L111.438 32.6694C111.713 32.3592 112.188 32.3592 112.488 32.6694C112.787 32.9538 112.787 33.4449 112.488 33.7551L110.389 36.004C110.139 36.2625 109.79 36.3142 109.49 36.1332V36.1074Z" fill="black"/>
<path d="M100.672 45.5941C100.672 45.5941 100.572 45.5165 100.522 45.4907C100.222 45.2063 100.222 44.7152 100.522 44.405L102.62 42.1561C102.895 41.8459 103.369 41.8459 103.669 42.1561C103.969 42.4404 103.969 42.9316 103.669 43.2418L101.571 45.4907C101.321 45.7492 100.971 45.8009 100.672 45.6199V45.5941Z" fill="black"/>
<path d="M284.878 255.904C284.878 255.904 284.778 255.827 284.728 255.801L282.555 253.63C282.255 253.345 282.255 252.854 282.555 252.544C282.83 252.234 283.304 252.234 283.604 252.544L285.777 254.715C286.077 255 286.077 255.491 285.777 255.801C285.528 256.06 285.178 256.111 284.878 255.93V255.904Z" fill="black"/>
<path d="M275.736 246.78C275.736 246.78 275.636 246.702 275.586 246.676L273.412 244.505C273.113 244.221 273.113 243.729 273.412 243.419C273.687 243.109 274.162 243.109 274.462 243.419L276.635 245.591C276.935 245.875 276.935 246.366 276.635 246.676C276.385 246.935 276.035 246.987 275.736 246.806V246.78Z" fill="black"/>
<path d="M282.581 246.65C282.581 246.65 282.481 246.573 282.431 246.547C282.131 246.263 282.131 245.772 282.431 245.461L284.529 243.213C284.804 242.902 285.279 242.902 285.578 243.213C285.878 243.497 285.878 243.988 285.578 244.298L283.48 246.547C283.23 246.806 282.881 246.857 282.581 246.676V246.65Z" fill="black"/>
<path d="M273.761 256.111C273.761 256.111 273.662 256.034 273.612 256.008C273.312 255.723 273.312 255.232 273.612 254.922L275.71 252.673C275.985 252.363 276.459 252.363 276.759 252.673C277.059 252.958 277.059 253.449 276.759 253.759L274.661 256.008C274.411 256.266 274.061 256.318 273.761 256.137V256.111Z" fill="black"/>
<path d="M518.55 94.4235C518.55 94.4235 518.45 94.346 518.4 94.3201L516.227 92.1488C515.927 91.8644 515.927 91.3733 516.227 91.0631C516.502 90.7529 516.976 90.7529 517.276 91.0631L519.449 93.2344C519.749 93.5188 519.749 94.0099 519.449 94.3201C519.199 94.5786 518.85 94.6303 518.55 94.4494V94.4235Z" fill="black"/>
<path d="M509.38 85.2986C509.38 85.2986 509.28 85.2211 509.23 85.1952L507.057 83.0239C506.757 82.7395 506.757 82.2484 507.057 81.9382C507.332 81.628 507.806 81.628 508.106 81.9382L510.279 84.1096C510.579 84.3939 510.579 84.885 510.279 85.1952C510.03 85.4537 509.68 85.5054 509.38 85.3245V85.2986Z" fill="black"/>
<path d="M516.226 85.1436C516.226 85.1436 516.126 85.0661 516.076 85.0402C515.777 84.7559 515.777 84.2648 516.076 83.9546L518.175 81.7057C518.45 81.3955 518.924 81.3955 519.224 81.7057C519.524 81.99 519.524 82.4811 519.224 82.7913L517.126 85.0402C516.876 85.2987 516.526 85.3504 516.226 85.1695V85.1436Z" fill="black"/>
<path d="M507.406 94.6303C507.406 94.6303 507.306 94.5528 507.256 94.5269C506.956 94.2426 506.956 93.7515 507.256 93.4413L509.354 91.1924C509.629 90.8822 510.104 90.8822 510.404 91.1924C510.703 91.4767 510.703 91.9678 510.404 92.278L508.305 94.5269C508.055 94.7854 507.706 94.8371 507.406 94.6562V94.6303Z" fill="black"/>
<path d="M12.2161 214.881C11.8164 214.649 11.4417 214.364 11.1169 214.028C8.86866 211.779 8.79372 208.057 10.967 205.731C12.0162 204.593 13.4401 203.973 14.9389 203.947C16.4628 203.921 17.8867 204.49 18.9858 205.576C20.085 206.661 20.6845 208.135 20.7095 209.686C20.7345 211.263 20.1849 212.736 19.1357 213.873C18.0865 215.011 16.6626 215.631 15.1638 215.657C14.1146 215.657 13.1154 215.398 12.241 214.881H12.2161ZM17.1372 206.015C16.4877 205.627 15.7383 205.421 14.9639 205.446C13.8398 205.446 12.7906 205.938 12.0162 206.791C10.4175 208.522 10.4674 211.288 12.1161 212.943C12.9155 213.744 13.9897 214.183 15.1138 214.158C16.2379 214.158 17.2871 213.666 18.0615 212.813C18.8359 211.986 19.2606 210.875 19.2356 209.712C19.2356 208.548 18.761 207.463 17.9366 206.661C17.6868 206.403 17.412 206.196 17.1123 206.015H17.1372Z" fill="black"/>
<path d="M11.7179 255C11.7179 255 11.618 254.922 11.5681 254.896L9.39475 252.725C9.09498 252.441 9.09498 251.95 9.39475 251.639C9.66953 251.329 10.1442 251.329 10.4439 251.639L12.6172 253.811C12.917 254.095 12.917 254.586 12.6172 254.896C12.3674 255.155 12.0177 255.207 11.7179 255.026V255Z" fill="black"/>
<path d="M2.54802 245.875C2.54802 245.875 2.4481 245.798 2.39814 245.772L0.224826 243.6C-0.0749418 243.316 -0.0749418 242.825 0.224826 242.515C0.499612 242.204 0.974244 242.204 1.27401 242.515L3.44732 244.686C3.74709 244.97 3.74709 245.461 3.44732 245.772C3.19752 246.03 2.84779 246.082 2.54802 245.901V245.875Z" fill="black"/>
<path d="M9.39326 245.746C9.39326 245.746 9.29334 245.668 9.24338 245.642C8.94361 245.358 8.94361 244.867 9.24338 244.557L11.3418 242.308C11.6165 241.998 12.0912 241.998 12.3909 242.308C12.6907 242.592 12.6907 243.083 12.3909 243.393L10.2926 245.642C10.0428 245.901 9.69303 245.952 9.39326 245.772V245.746Z" fill="black"/>
<path d="M0.573928 255.232C0.573928 255.232 0.474005 255.155 0.424044 255.129C0.124277 254.845 0.124277 254.353 0.424044 254.043L2.52242 251.794C2.7972 251.484 3.27183 251.484 3.5716 251.794C3.87137 252.079 3.87137 252.57 3.5716 252.88L1.47323 255.129C1.22342 255.387 0.873695 255.439 0.573928 255.258V255.232Z" fill="black"/>
</svg>
