<svg width="82" height="83" viewBox="0 0 82 83" fill="none" xmlns="http://www.w3.org/2000/svg">
<g clip-path="url(#clip0_28_272)">
<path d="M43.855 40.0314C42.9189 40.0314 42.2169 40.2209 41.7956 40.5525C41.3276 40.9315 41.1404 41.3579 41.1404 41.8316C41.1404 42.3054 41.3744 42.7791 41.7956 43.1107C42.2637 43.4897 42.9189 43.6318 43.855 43.6318C44.6507 43.6318 45.6335 43.4897 46.7568 43.2055C47.8801 42.9212 49.0034 42.4475 50.0799 41.7842C48.9566 41.0736 47.8333 40.5999 46.7568 40.3156C45.6335 40.0788 44.6975 39.9366 43.9018 39.9366L43.855 40.0314Z" fill="white"/>
<path d="M41 83C63.653 83 82 64.4292 82 41.5C82 18.5708 63.653 6.02545e-06 41 4.04506e-06C18.347 2.06467e-06 -1.99681e-06 18.5708 -4.00135e-06 41.5C-6.00589e-06 64.4292 18.347 83 41 83ZM50.8756 56.8019C52.5137 56.8019 53.8242 56.2334 54.7135 55.0965C55.6495 53.9595 56.0708 52.7277 56.0708 51.496C56.0708 50.6906 55.9772 49.9326 55.79 49.222C55.6027 48.5114 55.3219 47.8482 54.9475 47.1376C53.169 48.464 51.2968 49.4589 49.3779 50.2643C47.4589 51.0223 45.5868 51.4013 43.8082 51.4013C41.234 51.4013 39.1747 50.8801 37.6769 49.8853C36.1792 48.8904 35.1027 47.6113 34.4943 46.1427C33.839 44.6741 33.5114 43.2055 33.5114 41.8316C33.5114 40.4578 33.839 38.9892 34.4943 37.5205C35.1495 36.0519 36.226 34.8202 37.6769 33.8253C39.1747 32.8305 41.234 32.3567 43.8082 32.3567C45.5868 32.3567 47.4589 32.7357 49.3779 33.4937C51.2968 34.2517 53.169 35.2466 54.9007 36.5257C55.2751 35.9098 55.5559 35.1992 55.79 34.4886C56.024 33.778 56.1176 33.02 56.1176 32.2146C56.1176 31.0303 55.8368 30.0354 55.2751 29.1827C54.7135 28.3299 54.0114 27.6667 53.2158 27.2403C52.3733 26.8139 51.6244 26.5771 50.9224 26.5771L34.7283 26.5771L34.7283 32.6884L25.6016 27.335L16.4749 21.9817L25.6016 16.6284L34.7283 11.2751L34.7283 17.9549L50.2671 17.9549C53.4498 17.9549 56.1644 18.5234 58.4578 19.7078C60.7511 20.8921 62.5297 22.5029 63.7466 24.5873C65.0103 26.6718 65.6187 29.0405 65.6187 31.7409C65.6187 33.4937 65.2443 35.2466 64.4954 37.0468C63.7466 38.847 62.6701 40.4104 61.2192 41.8316C62.6233 43.2055 63.6998 44.7215 64.4486 46.4269C65.2443 48.1324 65.6187 49.8853 65.6187 51.6855C65.6187 54.2437 65.1507 56.4229 64.2146 58.1284C63.2785 59.8813 62.0616 61.2551 60.5171 62.2974C59.0194 63.3396 57.3345 64.0976 55.5559 64.5713C53.7774 65.0451 51.9989 65.282 50.2671 65.282L34.7283 65.282L34.7283 71.6775L25.6016 66.3242L16.4749 60.9709L25.6016 55.6176L34.7283 50.2643L34.7283 56.6598L50.9224 56.6598L50.8756 56.8019Z" fill="white"/>
</g>
<defs>
<clipPath id="clip0_28_272">
<rect width="82" height="83" fill="white" transform="translate(82 83) rotate(-180)"/>
</clipPath>
</defs>
</svg>
