<svg width="500" height="419" viewBox="0 0 500 419" fill="none" xmlns="http://www.w3.org/2000/svg">
<path d="M200.656 388.166V318.325H178.921V388.166H200.656Z" fill="#9F3787"/>
<path d="M268.692 371.51L236.896 308.166L217.184 316.636L248.979 379.98L268.692 371.51Z" fill="#9F3787"/>
<path d="M130.494 380.023L162.026 316.566L142.278 308.167L110.746 371.623L130.494 380.023Z" fill="#9F3787"/>
<path d="M158.995 125.397L226.978 169.058L298.8 73.1059L230.268 30.4607L158.995 125.397Z" fill="#9F3787"/>
<path d="M381.324 255.845C381.324 255.845 379.771 256.384 379.771 257.281V415.456H9.31477V257.281C9.31477 257.281 8.7326 255.845 7.76231 255.845C6.79202 255.845 6.20985 256.384 6.20985 257.281V416.893C6.20985 416.893 6.79202 418.329 7.76231 418.329H381.324C381.324 418.329 382.876 417.79 382.876 416.893V257.281C382.876 257.281 382.294 255.845 381.324 255.845ZM212.687 225.682C212.687 225.682 213.269 227.119 214.24 227.119H381.518C381.518 227.119 383.07 226.58 383.07 225.682C383.07 224.785 382.488 224.246 381.518 224.246H214.24C214.24 224.246 212.687 224.785 212.687 225.682ZM6.98608 224.246C6.98608 224.246 5.43362 224.785 5.43362 225.682C5.43362 226.58 6.01579 227.119 6.98608 227.119H164.755C164.755 227.119 166.308 226.58 166.308 225.682C166.308 224.785 165.725 224.246 164.755 224.246H7.18014H6.98608ZM193.282 240.045H185.519C182.026 240.045 179.309 242.559 179.309 245.791V249.741C179.309 252.793 181.832 255.127 184.937 255.486V265.181C184.937 266.977 186.101 268.772 189.594 268.772C193.087 268.772 194.252 266.977 194.252 265.181V257.461C194.252 257.461 193.67 256.025 192.699 256.025C191.729 256.025 191.147 256.563 191.147 257.461V265.181C191.147 265.181 191.147 265.899 189.594 265.899C188.042 265.899 188.042 265.361 188.042 265.181V255.486H193.476C195.61 255.486 197.745 254.409 198.909 252.613C199.491 251.716 199.685 250.638 199.685 249.741V245.791C199.685 242.559 196.969 240.045 193.476 240.045H193.282ZM196.581 249.741C196.581 249.741 196.581 250.818 196.192 251.177C195.61 252.075 194.446 252.613 193.282 252.613H185.519C183.773 252.613 182.22 251.177 182.22 249.561V245.611C182.22 243.995 183.773 242.559 185.519 242.559H193.282C195.028 242.559 196.581 243.995 196.581 245.611V249.561V249.741ZM499.893 54.4007C499.893 54.4007 498.923 53.3235 497.952 53.503C474.859 60.146 409.462 78.4591 387.145 84.384C384.623 85.1021 381.906 85.8203 379.189 86.718C369.874 89.4111 360.365 92.2837 353.185 91.5656L348.334 91.027C339.407 90.1293 327.181 88.8725 315.926 88.5134C312.821 88.5134 309.328 88.5134 305.835 89.052C305.641 89.052 305.447 89.052 305.253 89.052C300.207 89.7702 294.968 90.6679 289.922 91.7451C284.295 92.8224 279.055 93.8996 275.562 93.8996C273.427 93.8996 272.069 93.5405 271.681 92.6428C270.711 91.027 272.069 87.4361 274.592 84.5635C277.697 80.9727 295.162 77.2023 300.79 75.766L302.73 75.4069C307.97 74.1502 316.508 66.6095 316.896 66.2504C317.479 65.7118 317.479 64.8141 316.896 64.2754C316.314 63.7368 315.344 63.7368 314.762 64.2754C312.433 66.2504 305.835 71.8161 301.954 72.7138L300.013 73.0729C298.461 73.432 296.908 73.7911 295.356 74.1502C295.744 73.6115 296.132 73.0729 296.52 72.5343C297.491 71.098 298.073 70.3798 298.461 70.0207C301.566 67.3276 305.059 66.4299 305.059 66.4299C305.835 66.2504 306.417 65.5322 306.029 64.8141C305.835 64.0959 305.059 63.5573 304.283 63.7368C304.283 63.7368 300.013 64.8141 296.326 68.0458C295.744 68.5844 294.968 69.6617 293.998 70.9184C293.027 72.1752 292.251 73.6115 291.281 75.0479C290.699 75.0479 290.116 75.4069 289.728 75.4069L285.071 72.5343C288.952 65.7118 290.31 64.6345 290.699 64.455C293.415 62.3005 298.849 58.8892 301.566 58.8892C302.73 58.8892 305.835 60.3256 308.746 62.8391C309.328 63.3777 310.298 63.1982 310.881 62.8391C311.463 62.3005 311.269 61.4028 310.881 60.8642C308.164 58.7097 304.283 56.3757 301.76 56.3757C297.102 56.3757 289.728 61.9414 288.952 62.48C288.37 62.8391 287.011 63.7368 282.742 71.098L272.457 64.6345C275.95 58.7097 279.831 53.6826 280.219 53.1439C284.877 47.2191 304.671 39.6784 308.358 39.6784C312.627 39.858 324.076 41.8329 336.302 43.9874C352.603 46.6805 369.486 49.5531 374.92 49.5531C375.502 49.5531 375.89 49.1941 376.084 48.835C389.862 42.192 444.974 15.62 472.143 2.51356C472.919 2.15448 473.113 1.25678 472.725 0.718161C472.337 0 471.366 -0.17954 470.784 0.17954C443.81 13.286 388.698 39.858 374.726 46.5009C374.726 46.5009 374.337 46.6805 374.337 46.86C368.71 46.86 351.827 43.9874 337.078 41.4738C324.853 39.3193 313.209 37.3444 308.746 37.1649C303.894 36.9853 282.742 45.2442 277.697 51.7076C277.115 52.6053 272.651 58.3506 269.934 63.3777L236.168 42.192C236.168 42.192 235.392 41.8329 235.004 42.0124C234.616 42.0124 234.228 42.3715 234.034 42.5511L169.995 129.808H42.1105C42.1105 129.808 40.9462 130.167 40.7521 130.705L0 225.323C0 225.323 0 225.323 0 225.503C0 225.503 0 225.503 0 225.862V252.254C0 252.254 0.582173 253.691 1.55246 253.691H168.636V283.315C168.636 283.315 169.218 284.751 170.189 284.751H209.388C209.388 284.751 210.941 284.212 210.941 283.315V253.691H387.727C388.504 253.691 389.28 253.152 389.28 252.254V225.862L364.829 131.064C364.829 131.064 364.052 129.987 363.47 129.987H275.368C275.368 129.987 273.816 130.526 273.816 131.424C273.816 132.321 274.398 132.86 275.368 132.86H362.306L386.369 226.58V251.536H210.941V222.451L207.448 206.83C207.448 206.112 206.672 205.753 205.895 205.753H175.234C175.234 205.753 174.07 206.112 173.876 206.651L168.636 221.732V222.091V251.356H2.91087V226.58L43.0808 132.321H168.248L163.203 139.144C163.203 139.144 163.009 140.58 163.591 141.119L212.493 172H116.047V169.127H199.88C199.88 169.127 201.432 168.588 201.432 167.691C201.432 166.793 200.85 166.254 199.88 166.254H114.494C114.494 166.254 112.942 166.793 112.942 167.691V173.256C112.942 173.256 113.524 174.693 114.494 174.693H271.099C271.099 174.693 272.651 174.154 272.651 173.256V167.691C272.651 167.691 272.069 166.254 271.099 166.254H244.707L298.461 93.0019C298.461 93.0019 298.655 93.0019 298.849 93.0019C298.849 93.0019 299.043 93.361 299.431 93.361C300.79 94.0791 302.148 96.2336 302.73 98.5676C303.118 100.184 302.73 101.081 302.73 101.261C302.536 101.44 301.954 101.44 301.372 101.44C301.372 101.44 301.372 101.44 301.178 101.44C300.79 101.44 300.595 101.44 300.207 101.44C299.237 101.44 298.073 101.261 296.714 101.081H295.938C295.938 101.081 294.386 101.44 294.192 102.158C294.192 102.877 294.58 103.595 295.55 103.774H296.326C298.267 104.133 299.819 104.313 300.984 104.313C303.7 105.211 308.746 106.647 311.463 106.647C311.851 106.647 312.239 106.647 312.627 106.647C314.18 106.288 315.538 104.672 315.926 102.697C317.867 102.158 320.195 101.44 321.36 100.543C322.524 99.8244 323.106 98.5676 322.718 97.1313C322.33 95.3359 320.777 93.8996 318.643 93.1814C317.284 92.8224 315.732 92.6428 314.18 92.6428C313.209 92.6428 312.239 92.6428 311.463 92.8224C311.075 92.4633 310.492 91.9247 309.91 91.5656C312.045 91.5656 313.985 91.386 315.926 91.5656C326.987 91.9247 339.213 93.1814 347.946 94.0791L352.797 94.6178C360.365 95.3359 370.262 92.4633 379.965 89.5906C382.682 88.8725 385.399 87.9748 387.921 87.2566C410.432 81.1522 475.636 63.0187 498.728 56.3757C499.505 56.1961 499.893 55.2984 499.699 54.5803L499.893 54.4007ZM207.836 281.878H171.547V223.348C171.547 223.348 171.741 223.348 171.935 223.348H207.836V281.878ZM176.399 207.908H204.731L207.642 220.655H172.129L176.593 207.908H176.399ZM269.74 169.127V172H240.632L242.766 169.127H269.74ZM237.139 172H218.121L166.696 139.682L236.168 45.0646L286.429 76.6637C279.831 78.4591 274.398 80.6136 272.457 82.9476C269.546 86.1794 267.606 91.027 269.158 94.0791C269.934 95.3359 271.487 96.9518 275.368 96.9518C275.368 96.9518 275.562 96.9518 275.756 96.9518C279.443 96.9518 284.683 95.8745 290.504 94.6178C291.669 94.4382 292.833 94.0791 294.192 93.8996L236.75 172H237.139ZM317.867 95.8745C319.031 96.2336 319.613 96.9518 319.807 97.4904C319.807 97.6699 319.807 98.029 319.613 98.2086C319.031 98.5676 317.673 99.1063 315.926 99.6449C315.732 98.3881 315.15 96.9518 313.985 95.3359C313.985 95.3359 314.18 95.3359 314.374 95.3359C315.538 95.3359 316.896 95.3359 317.867 95.8745ZM309.716 94.9768C309.716 94.9768 310.104 95.5155 310.298 95.5155C313.015 98.3881 313.015 100.902 313.015 101.799C313.015 103.056 312.239 103.954 311.657 103.954C310.881 103.954 308.164 103.595 305.253 102.877C305.835 101.799 306.029 100.363 305.835 99.2858C305.641 97.1313 304.477 94.2587 302.73 92.4633C303.7 92.4633 304.671 92.2837 305.641 92.1042C307.388 93.0019 308.552 93.8996 309.716 94.9768Z" fill="#07111F"/>
</svg>
