<svg width="561" height="489" viewBox="0 0 561 489" fill="none" xmlns="http://www.w3.org/2000/svg">
<path d="M225.141 453.087V371.565H200.754V453.087H225.141Z" fill="#E86F00"/>
<path d="M301.479 433.645L265.804 359.707L243.686 369.593L279.361 443.531L301.479 433.645Z" fill="#E86F00"/>
<path d="M146.417 443.581L181.797 369.512L159.64 359.707L124.26 433.777L146.417 443.581Z" fill="#E86F00"/>
<path d="M178.396 146.37L254.676 197.333L335.261 85.333L258.367 35.5554L178.396 146.37Z" fill="#E86F00"/>
<path d="M427.855 298.635C427.855 298.635 426.113 299.264 426.113 300.311V484.941H10.4514V300.311C10.4514 300.311 9.79821 298.635 8.70952 298.635C7.62083 298.635 6.96761 299.264 6.96761 300.311V486.618C6.96761 486.618 7.62083 488.294 8.70952 488.294H427.855C427.855 488.294 429.597 487.666 429.597 486.618V300.311C429.597 300.311 428.944 298.635 427.855 298.635ZM238.641 263.427C238.641 263.427 239.294 265.104 240.383 265.104H428.073C428.073 265.104 429.815 264.475 429.815 263.427C429.815 262.38 429.161 261.751 428.073 261.751H240.383C240.383 261.751 238.641 262.38 238.641 263.427ZM7.83856 261.751C7.83856 261.751 6.09666 262.38 6.09666 263.427C6.09666 264.475 6.74988 265.104 7.83856 265.104H184.859C184.859 265.104 186.601 264.475 186.601 263.427C186.601 262.38 185.948 261.751 184.859 261.751H8.0563H7.83856ZM216.867 280.193H208.157C204.238 280.193 201.19 283.127 201.19 286.899V291.51C201.19 295.072 204.02 297.797 207.504 298.216V309.533C207.504 311.628 208.811 313.724 212.73 313.724C216.649 313.724 217.956 311.628 217.956 309.533V300.521C217.956 300.521 217.302 298.845 216.214 298.845C215.125 298.845 214.472 299.473 214.472 300.521V309.533C214.472 309.533 214.472 310.371 212.73 310.371C210.988 310.371 210.988 309.742 210.988 309.533V298.216H217.085C219.48 298.216 221.875 296.958 223.181 294.863C223.835 293.815 224.052 292.557 224.052 291.51V286.899C224.052 283.127 221.004 280.193 217.085 280.193H216.867ZM220.568 291.51C220.568 291.51 220.568 292.767 220.133 293.186C219.48 294.234 218.173 294.863 216.867 294.863H208.157C206.198 294.863 204.456 293.186 204.456 291.3V286.69C204.456 284.803 206.198 283.127 208.157 283.127H216.867C218.827 283.127 220.568 284.803 220.568 286.69V291.3V291.51ZM560.893 63.4992C560.893 63.4992 559.804 62.2418 558.715 62.4514C532.805 70.2054 459.427 91.5814 434.387 98.4971C431.557 99.3354 428.508 100.174 425.46 101.222C415.008 104.365 404.339 107.718 396.283 106.88L390.84 106.251C380.824 105.203 367.106 103.736 354.477 103.317C350.994 103.317 347.074 103.317 343.155 103.946C342.937 103.946 342.719 103.946 342.502 103.946C336.841 104.784 330.962 105.832 325.3 107.089C318.986 108.347 313.107 109.604 309.188 109.604C306.793 109.604 305.269 109.185 304.833 108.137C303.744 106.251 305.269 102.06 308.099 98.7067C311.583 94.5153 331.179 90.1144 337.494 88.4379L339.671 88.0187C345.55 86.5517 355.131 77.7499 355.566 77.3307C356.219 76.702 356.219 75.6542 355.566 75.0255C354.913 74.3968 353.824 74.3968 353.171 75.0255C350.558 77.3307 343.155 83.8274 338.8 84.8752L336.623 85.2943C334.881 85.7135 333.139 86.1326 331.397 86.5517C331.833 85.923 332.268 85.2943 332.704 84.6656C333.792 82.9891 334.445 82.1508 334.881 81.7317C338.365 78.5882 342.284 77.5403 342.284 77.5403C343.155 77.3307 343.808 76.4925 343.373 75.6542C343.155 74.8159 342.284 74.1872 341.413 74.3968C341.413 74.3968 336.623 75.6542 332.486 79.4264C331.833 80.0551 330.962 81.3125 329.873 82.7795C328.784 84.2465 327.913 85.923 326.825 87.5996C326.171 87.5996 325.518 88.0187 325.083 88.0187L319.857 84.6656C324.212 76.702 325.736 75.4446 326.171 75.235C329.22 72.7202 335.316 68.7384 338.365 68.7384C339.671 68.7384 343.155 70.415 346.421 73.3489C347.074 73.9776 348.163 73.7681 348.816 73.3489C349.469 72.7202 349.252 71.6724 348.816 71.0437C345.768 68.5289 341.413 65.8045 338.582 65.8045C333.357 65.8045 325.083 72.3011 324.212 72.9298C323.559 73.3489 322.034 74.3968 317.244 82.9891L305.704 75.4446C309.623 68.5289 313.978 62.6609 314.414 62.0322C319.639 55.1165 341.849 46.3146 345.986 46.3146C350.776 46.5242 363.622 48.8294 377.34 51.3443C395.63 54.4878 414.573 57.8409 420.67 57.8409C421.323 57.8409 421.758 57.4217 421.976 57.0026C437.435 49.2486 499.273 18.2325 529.756 2.93396C530.627 2.51482 530.845 1.46698 530.41 0.838274C529.974 0 528.885 -0.209568 528.232 0.209568C497.967 15.5081 436.129 46.5242 420.452 54.2782C420.452 54.2782 420.016 54.4878 420.016 54.6973C413.702 54.6973 394.759 51.3443 378.211 48.4103C364.493 45.8955 351.429 43.5902 346.421 43.3807C340.978 43.1711 317.244 52.8112 311.583 60.3557C310.93 61.4035 305.922 68.1097 302.873 73.9776L264.987 49.2486C264.987 49.2486 264.116 48.8294 263.681 49.039C263.245 49.039 262.81 49.4581 262.592 49.6677L190.738 151.518H47.2491C47.2491 151.518 45.9427 151.937 45.725 152.566L0 263.008C0 263.008 0 263.008 0 263.218C0 263.218 0 263.218 0 263.637V294.444C0 294.444 0.653214 296.12 1.7419 296.12H189.214V330.699C189.214 330.699 189.867 332.375 190.956 332.375H234.939C234.939 332.375 236.681 331.747 236.681 330.699V296.12H435.04C435.911 296.12 436.782 295.491 436.782 294.444V263.637L409.347 152.985C409.347 152.985 408.476 151.728 407.823 151.728H308.97C308.97 151.728 307.228 152.356 307.228 153.404C307.228 154.452 307.881 155.081 308.97 155.081H406.517L433.516 264.475V293.605H236.681V259.655L232.762 241.423C232.762 240.585 231.891 240.165 231.02 240.165H196.617C196.617 240.165 195.311 240.585 195.093 241.213L189.214 258.817V259.236V293.396H3.26607V264.475L48.3378 154.452H188.779L183.118 162.415C183.118 162.415 182.9 164.092 183.553 164.721L238.423 200.767H130.207V197.413H224.27C224.27 197.413 226.012 196.785 226.012 195.737C226.012 194.689 225.359 194.06 224.27 194.06H128.465C128.465 194.06 126.723 194.689 126.723 195.737V202.233C126.723 202.233 127.377 203.91 128.465 203.91H304.18C304.18 203.91 305.922 203.281 305.922 202.233V195.737C305.922 195.737 305.269 194.06 304.18 194.06H274.567L334.881 108.556C334.881 108.556 335.099 108.556 335.316 108.556C335.316 108.556 335.534 108.976 335.97 108.976C337.494 109.814 339.018 112.329 339.671 115.053C340.107 116.939 339.671 117.987 339.671 118.197C339.453 118.406 338.8 118.406 338.147 118.406C338.147 118.406 338.147 118.406 337.929 118.406C337.494 118.406 337.276 118.406 336.841 118.406C335.752 118.406 334.445 118.197 332.921 117.987H332.05C332.05 117.987 330.308 118.406 330.091 119.244C330.091 120.083 330.526 120.921 331.615 121.131H332.486C334.663 121.55 336.405 121.759 337.711 121.759C340.76 122.807 346.421 124.484 349.469 124.484C349.905 124.484 350.34 124.484 350.776 124.484C352.518 124.064 354.042 122.178 354.477 119.873C356.655 119.244 359.268 118.406 360.574 117.358C361.88 116.52 362.534 115.053 362.098 113.376C361.663 111.281 359.921 109.604 357.526 108.766C356.001 108.347 354.26 108.137 352.518 108.137C351.429 108.137 350.34 108.137 349.469 108.347C349.034 107.928 348.381 107.299 347.727 106.88C350.123 106.88 352.3 106.67 354.477 106.88C366.888 107.299 380.606 108.766 390.404 109.814L395.848 110.443C404.339 111.281 415.444 107.928 426.331 104.575C429.379 103.736 432.427 102.689 435.258 101.85C460.516 94.7249 533.676 73.5585 559.586 65.8045C560.457 65.5949 560.893 64.5471 560.675 63.7088L560.893 63.4992ZM233.197 329.022H192.48V260.703C192.48 260.703 192.698 260.703 192.916 260.703H233.197V329.022ZM197.924 242.68H229.713L232.98 257.56H193.134L198.141 242.68H197.924ZM302.656 197.413V200.767H269.995L272.39 197.413H302.656ZM266.076 200.767H244.737L187.037 163.044L264.987 52.6017L321.381 89.4857C313.978 91.5814 307.881 94.0962 305.704 96.8206C302.438 100.593 300.261 106.251 302.002 109.814C302.873 111.281 304.615 113.167 308.97 113.167C308.97 113.167 309.188 113.167 309.406 113.167C313.543 113.167 319.422 111.91 325.954 110.443C327.26 110.233 328.566 109.814 330.091 109.604L265.64 200.767H266.076ZM356.655 111.91C357.961 112.329 358.614 113.167 358.832 113.796C358.832 114.005 358.832 114.424 358.614 114.634C357.961 115.053 356.437 115.682 354.477 116.31C354.26 114.843 353.606 113.167 352.3 111.281C352.3 111.281 352.518 111.281 352.735 111.281C354.042 111.281 355.566 111.281 356.655 111.91ZM347.51 110.862C347.51 110.862 347.945 111.49 348.163 111.49C351.211 114.843 351.211 117.777 351.211 118.825C351.211 120.292 350.34 121.34 349.687 121.34C348.816 121.34 345.768 120.921 342.502 120.083C343.155 118.825 343.373 117.149 343.155 115.891C342.937 113.377 341.631 110.023 339.671 107.928C340.76 107.928 341.849 107.718 342.937 107.509C344.897 108.556 346.203 109.604 347.51 110.862Z" fill="#07111F"/>
</svg>
