<svg width="116" height="86" viewBox="0 0 116 86" fill="none" xmlns="http://www.w3.org/2000/svg">
<path d="M112.886 67.912L86.9446 42.0998C91.8111 31.106 89.729 17.7773 80.6915 8.78709C68.9172 -2.9279 49.859 -2.93016 38.0847 8.78709C26.3376 20.475 26.3376 39.4922 38.0847 51.1801C47.419 60.4678 61.0986 62.237 72.0188 57.2134L97.8285 82.8949C101.99 87.035 108.726 87.035 112.888 82.8949C117.038 78.766 117.036 72.0453 112.888 67.9165L112.886 67.912ZM42.89 46.3977C33.7937 37.3466 33.7937 22.6184 42.89 13.5673C52.0068 4.49595 66.7649 4.4937 75.8839 13.5673C84.9803 22.6184 84.9803 37.3466 75.8839 46.3977C66.7672 55.469 52.0091 55.4713 42.89 46.3977ZM108.078 78.1124C106.574 79.6089 104.138 79.6112 102.634 78.1124L77.9751 53.5781C80.0028 51.9915 81.8085 50.1682 83.3763 48.1173L108.076 72.6944C109.578 74.1887 109.578 76.6182 108.076 78.1124H108.078ZM3.3984 40.5109H17.8892C19.7651 40.5109 21.2876 38.9964 21.2876 37.1302C21.2876 35.2641 19.7651 33.7496 17.8892 33.7496H3.3984C1.52248 33.7496 0 35.2619 0 37.1302C0 38.9986 1.52248 40.5109 3.3984 40.5109ZM3.3984 54.9349H23.3243C25.2002 54.9349 26.7227 53.4204 26.7227 51.5542C26.7227 49.6881 25.2002 48.1736 23.3243 48.1736H3.3984C1.52248 48.1736 0 49.6881 0 51.5542C0 53.4204 1.52248 54.9349 3.3984 54.9349ZM3.3984 69.3589H37.8174C39.6933 69.3589 41.2157 67.8444 41.2157 65.9782C41.2157 64.1121 39.6933 62.5976 37.8174 62.5976H3.3984C1.52248 62.5976 0 64.1121 0 65.9782C0 67.8444 1.52248 69.3589 3.3984 69.3589ZM77.6692 77.0216H3.3984C1.52248 77.0216 0 78.5361 0 80.4022C0 82.2684 1.52248 83.7829 3.3984 83.7829H77.6692C79.5451 83.7829 81.0676 82.2684 81.0676 80.4022C81.0676 78.5361 79.5451 77.0216 77.6692 77.0216Z" fill="#E86F00"/>
</svg>
