<svg width="55" height="55" viewBox="0 0 55 55" fill="none" xmlns="http://www.w3.org/2000/svg">
<path d="M27.2585 0C12.2294 0 0 12.226 0 27.2568C0 42.2877 12.2294 54.5136 27.2585 54.5136C42.2877 54.5136 54.517 42.2877 54.517 27.2568C54.517 12.226 42.2877 0 27.2585 0ZM27.2585 52.6981C13.2306 52.6981 1.81893 41.2847 1.81893 27.2568C1.81893 13.2289 13.2306 1.81553 27.2585 1.81553C41.2864 1.81553 52.6981 13.2289 52.6981 27.2568C52.6981 41.2847 41.2864 52.6981 27.2585 52.6981Z" fill="#07111F"/>
<path d="M33.1941 11.9642H28.6651C22.897 11.9065 22.1603 15.4799 22.1603 19.3473V22.1595H19.6141C19.499 22.1442 19.3819 22.1555 19.2719 22.1928C19.1619 22.23 19.062 22.2922 18.9799 22.3744C18.8978 22.4565 18.8357 22.5566 18.7985 22.6667C18.7613 22.7767 18.7499 22.8939 18.7653 23.0091V28.1068C18.7499 28.222 18.7613 28.3392 18.7985 28.4493C18.8357 28.5594 18.8978 28.6594 18.9799 28.7416C19.062 28.8238 19.1619 28.8859 19.2719 28.9232C19.3819 28.9604 19.499 28.9718 19.6141 28.9564H22.1603V41.7006C22.1462 41.816 22.1586 41.9331 22.1966 42.043C22.2345 42.1529 22.2971 42.2526 22.3795 42.3346C22.4619 42.4165 22.5619 42.4786 22.6719 42.5159C22.7819 42.5533 22.899 42.565 23.0142 42.5502H28.2C28.7008 42.6079 29.1065 42.2018 28.9469 41.7006L28.9503 28.9564H33.1941C33.3091 28.9718 33.4262 28.9604 33.5362 28.9232C33.6462 28.8859 33.7461 28.8238 33.8282 28.7416C33.9103 28.6594 33.9724 28.5594 34.0096 28.4493C34.0468 28.3392 34.0582 28.222 34.0428 28.1068V23.0091C34.0582 22.8939 34.0468 22.7767 34.0096 22.6667C33.9724 22.5566 33.9103 22.4565 33.8282 22.3744C33.7461 22.2922 33.6462 22.23 33.5362 22.1928C33.4262 22.1555 33.3091 22.1442 33.1941 22.1595H28.9452L28.9503 19.6107C29.115 18.5249 29.115 18.7016 30.1216 18.7611H33.1584C33.3944 18.7084 33.6456 18.7373 33.8221 18.5657C33.9987 18.3941 34.1005 18.1596 34.0411 17.9115V12.8138C34.0568 12.6987 34.0457 12.5815 34.0087 12.4714C33.9717 12.3613 33.9098 12.2613 33.8278 12.179C33.7458 12.0968 33.646 12.0346 33.536 11.9974C33.4261 11.9601 33.3091 11.9488 33.1941 11.9642ZM32.2859 16.9667L30.1572 16.8852C27.521 16.8852 27.3003 18.3176 27.3003 19.784L27.2936 23.0058C27.2933 23.1251 27.3166 23.2432 27.3621 23.3535C27.4075 23.4638 27.4743 23.564 27.5585 23.6485C27.6426 23.7329 27.7427 23.7999 27.8527 23.8456C27.9628 23.8913 28.0808 23.9148 28.2 23.9148H32.3453V27.1977H28.2034C27.9628 27.1977 27.7321 27.2933 27.5618 27.4634C27.3916 27.6335 27.2957 27.8643 27.2952 28.1051L27.2936 40.851H23.8578V28.1068C23.8578 27.6055 23.5166 27.1994 23.0142 27.1994H20.4628V23.9165H23.0142C23.1333 23.9167 23.2512 23.8934 23.3613 23.8479C23.4714 23.8024 23.5715 23.7357 23.6558 23.6515C23.8256 23.4798 23.8561 23.2487 23.8561 23.0075V19.3456C23.8561 15.536 24.6251 13.7212 28.6634 13.7212H32.2842V16.9667H32.2859Z" fill="#07111F"/>
</svg>
