<svg width="55" height="55" viewBox="0 0 55 55" fill="none" xmlns="http://www.w3.org/2000/svg">
<path d="M44.646 14.898C44.6459 14.7626 44.61 14.6295 44.5418 14.5124C44.4736 14.3953 44.3756 14.2983 44.2577 14.2312C44.1398 14.1642 44.0062 14.1295 43.8705 14.1307C43.7348 14.1319 43.6019 14.1689 43.4852 14.238C42.4031 14.8813 41.2279 15.3535 40.0012 15.6379C38.6606 14.36 36.8763 13.6504 35.0228 13.6578C34.0161 13.6592 33.0206 13.8692 32.0994 14.2746C31.1782 14.6799 30.3513 15.2718 29.6711 16.0127C28.9908 16.7535 28.472 17.6273 28.1475 18.5787C27.823 19.5301 27.6998 20.5384 27.7858 21.5397C23.1381 21.0466 18.8737 18.7406 15.9209 15.1237C15.8421 15.0276 15.7411 14.952 15.6266 14.9035C15.5121 14.8549 15.3875 14.8348 15.2635 14.845C15.1396 14.8551 15.0199 14.8951 14.9148 14.9615C14.8097 15.028 14.7223 15.1189 14.6602 15.2265C14.0223 16.337 13.6868 17.5949 13.6869 18.8751C13.6851 20.2801 14.0921 21.6553 14.8585 22.8337L14.7663 22.7831C14.6458 22.724 14.5121 22.6972 14.3781 22.7053C14.2442 22.7134 14.1146 22.756 14.0021 22.8291C13.8849 22.9052 13.7888 23.0094 13.7224 23.1322C13.6561 23.2551 13.6217 23.3926 13.6224 23.5321C13.6162 23.7132 13.627 23.8959 13.6562 24.074C13.7289 25.0874 14.0155 26.074 14.4972 26.9689C14.979 27.8639 15.6449 28.647 16.4514 29.2667C16.3531 29.2956 16.2616 29.3438 16.1822 29.4085C16.1029 29.4732 16.0373 29.5531 15.9893 29.6435C15.9413 29.7339 15.9119 29.8329 15.9028 29.9348C15.8937 30.0367 15.9051 30.1394 15.9363 30.2368C16.2915 31.3424 16.9085 32.3462 17.735 33.1631C18.5615 33.9799 19.5731 34.5857 20.6841 34.9291C18.4155 36.1971 15.8027 36.7146 13.2211 36.4073C13.0481 36.3857 12.8729 36.4234 12.7242 36.5143C12.5755 36.6052 12.4622 36.7439 12.4028 36.9076C12.3435 37.0712 12.3416 37.2502 12.3976 37.415C12.4535 37.5799 12.5639 37.7209 12.7106 37.8148C15.8002 39.8009 19.3972 40.8565 23.0718 40.8556C27.2402 40.9015 31.307 39.5711 34.6398 37.0711C37.9725 34.5711 40.3844 31.0417 41.5003 27.0318C42.0215 25.2866 42.2875 23.4738 42.2905 21.6518C42.2905 21.4676 42.2905 21.2757 42.2859 21.0808C43.0856 20.2691 43.7081 19.3008 44.1143 18.2369C44.5205 17.173 44.7015 16.0367 44.646 14.8995V14.898ZM40.9191 20.321C40.7928 20.4701 40.7284 20.6617 40.7392 20.8567C40.8232 22.7971 40.5821 24.7379 40.0258 26.599C39.0335 30.3077 36.8236 33.577 33.7499 35.8834C30.6761 38.1898 26.9162 39.4002 23.0718 39.3206C20.7256 39.3207 18.4031 38.8526 16.2407 37.9438C18.7821 37.6623 21.1929 36.673 23.1979 35.0888C23.3226 34.9909 23.414 34.8568 23.4594 34.705C23.5048 34.5533 23.5021 34.3912 23.4515 34.241C23.401 34.0908 23.3052 33.96 23.1772 33.8663C23.0492 33.7727 22.8953 33.7209 22.7366 33.7181C21.7526 33.7021 20.7894 33.4322 19.9407 32.9346C19.0921 32.437 18.3868 31.7286 17.8935 30.8784C18.547 30.8799 19.1958 30.7909 19.8216 30.6113C19.9865 30.5631 20.1305 30.461 20.2305 30.3215C20.3305 30.182 20.3808 30.013 20.3734 29.8416C20.366 29.6702 20.3012 29.5062 20.1895 29.3758C20.0777 29.2455 19.9255 29.1562 19.757 29.1224C18.6564 28.9025 17.6454 28.3631 16.8508 27.5717C16.0562 26.7803 15.5134 25.7723 15.2906 24.6741C15.9435 24.8855 16.6232 25.0033 17.3093 25.0241C17.4783 25.0366 17.6464 24.9897 17.7845 24.8916C17.9227 24.7936 18.0221 24.6504 18.0657 24.4869C18.116 24.3281 18.1131 24.1574 18.0577 24.0004C18.0022 23.8434 17.8971 23.7087 17.7582 23.6165C16.976 23.0967 16.3351 22.3914 15.8929 21.5637C15.4508 20.7359 15.2211 19.8116 15.2244 18.8735C15.2244 18.2396 15.3275 17.6103 15.5319 17.0116C18.9406 20.6864 23.6521 22.8867 28.6622 23.1438C28.7819 23.1566 28.9028 23.1379 29.0131 23.0897C29.1234 23.0416 29.2192 22.9655 29.291 22.869C29.3672 22.7778 29.4212 22.6701 29.4487 22.5545C29.4762 22.4389 29.4764 22.3185 29.4494 22.2028C29.3479 21.7795 29.2963 21.3457 29.2956 20.9104C29.2972 19.3946 29.9009 17.9413 30.9742 16.8692C32.0475 15.7971 33.5029 15.1936 35.0212 15.1912C35.8033 15.189 36.5774 15.3486 37.2945 15.6601C38.0117 15.9716 38.6563 16.4281 39.1879 17.0009C39.2771 17.096 39.3892 17.1667 39.5135 17.2065C39.6378 17.2462 39.7702 17.2537 39.8982 17.2281C40.9892 17.0136 42.0502 16.6678 43.0577 16.1981C42.7958 17.7627 42.047 19.2052 40.9175 20.321H40.9191Z" fill="#07111F"/>
<path d="M27.7159 0.0581055C12.6868 0.0581055 0.457397 12.2841 0.457397 27.3149C0.457397 42.3458 12.6868 54.5717 27.7159 54.5717C42.7451 54.5717 54.9744 42.3458 54.9744 27.3149C54.9744 12.2841 42.7451 0.0581055 27.7159 0.0581055ZM27.7159 52.7562C13.688 52.7562 2.27633 41.3428 2.27633 27.3149C2.27633 13.287 13.688 1.87364 27.7159 1.87364C41.7438 1.87364 53.1555 13.287 53.1555 27.3149C53.1555 41.3428 41.7438 52.7562 27.7159 52.7562Z" fill="#07111F"/>
</svg>
