<?xml version="1.0" standalone="no"?>
<!DOCTYPE svg PUBLIC "-//W3C//DTD SVG 20010904//EN"
 "http://www.w3.org/TR/2001/REC-SVG-20010904/DTD/svg10.dtd">
<svg version="1.0" xmlns="http://www.w3.org/2000/svg"
 width="640.000000pt" height="640.000000pt" viewBox="0 0 640.000000 640.000000"
 preserveAspectRatio="xMidYMid meet">
<metadata>
Created by potrace 1.14, written by Peter Selinger 2001-2017
</metadata>
<g transform="translate(0.000000,640.000000) scale(0.100000,-0.100000)"
fill="#000000" stroke="none">
<path d="M4011 5347 c-92 -8 -257 -46 -318 -72 -125 -55 -165 -75 -233 -119
-295 -191 -481 -450 -565 -786 -35 -138 -40 -390 -11 -525 47 -218 166 -438
324 -602 l70 -72 -46 -48 c-190 -201 -312 -421 -349 -633 -2 -14 -6 -36 -9
-50 -9 -45 -12 -274 -4 -330 4 -30 11 -75 14 -100 4 -25 21 -90 37 -145 155
-504 628 -881 1144 -912 50 -2 496 -6 993 -6 l902 -2 -2 399 -3 399 -860 0
c-659 0 -874 3 -921 13 -280 58 -455 331 -397 618 40 199 201 362 401 407 31
7 307 10 805 11 416 0 758 3 758 6 4 18 5 769 1 779 -3 8 -199 11 -790 12
-769 0 -788 0 -846 20 -84 30 -140 65 -201 126 -251 253 -152 671 190 801 48
18 93 19 958 22 l907 3 0 397 0 397 -933 0 c-512 0 -970 -3 -1016 -8z"/>
<path d="M1955 4850 c-73 -35 -206 -97 -295 -137 -19 -9 -91 -42 -158 -75 -68
-32 -125 -58 -127 -58 -2 0 -70 -31 -151 -70 -80 -38 -148 -70 -149 -70 -2 0
-49 -22 -106 -49 -57 -26 -185 -85 -284 -131 -99 -45 -184 -86 -189 -91 -8 -7
173 -418 195 -443 4 -4 42 8 84 28 41 20 77 36 79 36 2 0 70 32 151 70 81 39
149 70 151 70 2 0 46 20 98 45 52 25 123 58 158 74 35 16 104 48 153 71 50 23
108 50 131 60 23 11 94 44 159 75 64 30 119 55 121 55 2 0 50 23 106 51 57 27
103 49 103 48 0 -1 16 7 36 17 l36 19 -41 86 c-23 47 -59 123 -80 170 -74 161
-88 189 -95 189 -3 -1 -42 -18 -86 -40z"/>
<path d="M739 3325 c-1 -12 -1 -381 0 -445 l1 -45 847 2 c467 1 854 2 861 2
10 1 12 54 10 248 l-3 248 -857 0 c-566 0 -858 -3 -859 -10z"/>
<path d="M682 2438 c-7 -7 -12 -16 -12 -22 0 -5 -11 -32 -24 -60 -13 -28 -37
-80 -54 -116 -16 -36 -46 -100 -66 -143 -20 -43 -36 -83 -36 -88 0 -5 19 -18
43 -28 42 -19 128 -58 247 -113 36 -17 225 -104 420 -193 195 -90 418 -192
495 -228 77 -35 163 -75 190 -87 28 -12 75 -35 107 -50 l56 -27 38 81 c21 44
68 147 104 227 l67 146 -46 21 c-54 24 -401 183 -516 237 -44 20 -99 45 -122
55 -22 10 -70 32 -105 48 -34 17 -92 44 -128 60 -36 17 -105 48 -153 71 -49
23 -90 41 -92 41 -1 0 -54 24 -116 54 -134 62 -275 126 -281 126 -2 0 -9 -5
-16 -12z"/>
</g>
</svg>
