<?xml version="1.0" encoding="utf-8"?>
<!-- Generator: Adobe Illustrator 26.5.0, SVG Export Plug-In . SVG Version: 6.00 Build 0)  -->
<svg version="1.1" id="Calque_1" xmlns="http://www.w3.org/2000/svg" xmlns:xlink="http://www.w3.org/1999/xlink" x="0px" y="0px"
	 viewBox="0 0 566.9 125.9" style="enable-background:new 0 0 566.9 125.9;" xml:space="preserve">
<style type="text/css">
	.st0{fill:#FFFFFF;}
</style>
<g>
	<g>
		<g>
			<rect x="191.3" y="60.7" class="st0" width="41.3" height="11.9"/>
		</g>
		<g>
			
				<rect x="185.8" y="31.5" transform="matrix(0.907 -0.4212 0.4212 0.907 3.4549 90.4477)" class="st0" width="41.3" height="11.9"/>
		</g>
		<g>
			
				<rect x="185.8" y="89.9" transform="matrix(0.9085 0.4178 -0.4178 0.9085 58.9096 -77.5013)" class="st0" width="41.3" height="11.9"/>
		</g>
	</g>
	<g>
		<path class="st0" d="M3.6,117.9V12.2H63c5,0,9.6,1.1,13.7,3.4S84,21,86.5,25c2.5,4,3.7,8.8,3.7,14.3c0,3.5-0.7,6.9-2.1,10
			c-1.4,3.2-3.3,5.9-5.7,8.2c-2.4,2.3-5.2,4.1-8.5,5.4c3.7,1.2,7,3.1,9.9,5.8c2.9,2.7,5.1,5.8,6.8,9.4c1.7,3.6,2.5,7.4,2.5,11.6
			c0,5.6-1.3,10.6-3.9,14.8c-2.6,4.2-6,7.5-10.2,9.8c-4.2,2.3-9,3.5-14.2,3.5H3.6z M25.2,55.1h31.4c2.2,0,4.2-0.5,6-1.6
			c1.8-1.1,3.3-2.5,4.3-4.3c1.1-1.8,1.6-3.8,1.6-6c0-2.2-0.5-4.2-1.6-6c-1.1-1.8-2.5-3.2-4.3-4.3c-1.8-1.1-3.8-1.6-6-1.6H25.2V55.1z
			 M25.2,98.9h33.4c2.4,0,4.6-0.6,6.5-1.7c1.9-1.2,3.4-2.7,4.6-4.7c1.2-2,1.7-4.1,1.7-6.4c0-2.4-0.6-4.6-1.7-6.5
			c-1.2-1.9-2.7-3.4-4.6-4.6c-1.9-1.2-4.1-1.7-6.5-1.7H25.2V98.9z"/>
		<path class="st0" d="M143.4,117.9c-8.8,0-16.4-1.7-22.9-5.1c-6.5-3.4-11.5-8-15.1-13.8c-3.6-5.8-5.4-12.4-5.4-19.6
			c0-8.2,1.7-15.3,5-21.3c3.3-6,7.9-10.7,13.6-14c5.7-3.3,12.2-5,19.5-5c8.7,0,15.7,1.8,21.1,5.4c5.4,3.6,9.3,8.5,11.9,14.6
			c2.5,6.1,3.8,12.9,3.8,20.3c0,1-0.1,2.2-0.2,3.6c-0.1,1.4-0.3,2.4-0.5,3.1h-52.1c0.8,3.1,2.2,5.7,4.2,7.8c2,2.1,4.4,3.7,7.4,4.8
			s6.3,1.6,10,1.6h21.4v17.7H143.4z M122,72.2h32.2c-0.2-1.9-0.6-3.7-1.1-5.4c-0.5-1.7-1.2-3.1-2.1-4.5c-0.9-1.3-2-2.4-3.2-3.3
			c-1.2-0.9-2.6-1.6-4.2-2.1c-1.6-0.5-3.4-0.8-5.3-0.8c-2.5,0-4.8,0.5-6.7,1.4c-2,0.9-3.6,2.1-4.9,3.6c-1.3,1.5-2.3,3.2-3.1,5.1
			C122.8,68.2,122.3,70.1,122,72.2z"/>
		<path class="st0" d="M273.9,117.9c-5.8,0-11.2-1.4-15.9-4.2c-4.8-2.8-8.6-6.6-11.4-11.4c-2.8-4.8-4.2-10.1-4.2-15.9
			c0-4.2,0.9-8.2,2.7-11.9c1.8-3.7,4.3-7,7.4-9.8c-3.1-2.8-5.6-6.1-7.4-9.8c-1.8-3.7-2.7-7.6-2.7-11.8c0-5.7,1.4-10.9,4.2-15.6
			c2.8-4.6,6.5-8.3,11.2-11.1c4.7-2.8,9.8-4.2,15.5-4.2h43.5v19h-41.1c-2.1,0-4.1,0.5-5.8,1.6c-1.8,1.1-3.2,2.5-4.2,4.2
			c-1.1,1.8-1.6,3.8-1.6,6c0,2.1,0.5,4.1,1.6,5.8c1.1,1.8,2.5,3.2,4.2,4.2c1.8,1.1,3.7,1.6,5.8,1.6h35.9v19h-35
			c-2.3,0-4.4,0.6-6.3,1.7c-1.9,1.2-3.4,2.7-4.5,4.6c-1.1,1.9-1.7,4-1.7,6.3c0,2.3,0.5,4.4,1.7,6.3c1.1,1.9,2.6,3.4,4.5,4.5
			c1.9,1.1,4,1.7,6.3,1.7h40.2v19H273.9z"/>
		<path class="st0" d="M332.4,117.9V7.7h20.7v110.2H332.4z"/>
		<path class="st0" d="M409.7,117.9c-8.8,0-16.4-1.7-22.9-5.1c-6.5-3.4-11.5-8-15.1-13.8c-3.6-5.8-5.4-12.4-5.4-19.6
			c0-8.2,1.7-15.3,5-21.3c3.3-6,7.8-10.7,13.6-14c5.7-3.3,12.2-5,19.5-5c8.7,0,15.7,1.8,21.1,5.4c5.4,3.6,9.3,8.5,11.9,14.6
			c2.5,6.1,3.8,12.9,3.8,20.3c0,1-0.1,2.2-0.2,3.6c-0.1,1.4-0.2,2.4-0.5,3.1h-52.1c0.8,3.1,2.2,5.7,4.2,7.8c2,2.1,4.4,3.7,7.4,4.8
			c3,1.1,6.3,1.6,10,1.6h21.4v17.7H409.7z M388.2,72.2h32.2c-0.2-1.9-0.6-3.7-1.1-5.4s-1.2-3.1-2.1-4.5c-0.9-1.3-2-2.4-3.2-3.3
			c-1.2-0.9-2.6-1.6-4.2-2.1c-1.6-0.5-3.4-0.8-5.3-0.8c-2.5,0-4.8,0.5-6.7,1.4c-2,0.9-3.6,2.1-4.9,3.6c-1.3,1.5-2.3,3.2-3.1,5.1
			C389.1,68.2,388.5,70.1,388.2,72.2z"/>
		<path class="st0" d="M491.7,117.9c-8,0-15.1-1.7-21.3-5.1c-6.2-3.4-11.2-8-14.8-13.8c-3.6-5.8-5.4-12.3-5.4-19.6
			c0-7.2,1.8-13.8,5.4-19.6c3.6-5.8,8.6-10.4,14.8-13.8c6.2-3.4,13.3-5.1,21.3-5.1h9.7v17.7h-9.7c-4.2,0-7.9,0.9-11,2.7
			c-3.1,1.8-5.4,4.3-7.1,7.5c-1.7,3.2-2.5,6.7-2.5,10.6c0,3.9,0.8,7.5,2.5,10.6c1.7,3.2,4,5.7,7.1,7.5c3.1,1.8,6.7,2.7,11,2.7h9.7
			v17.7H491.7z"/>
		<path class="st0" d="M507.4,58.6V40.9h55.4v17.7H507.4z M542.5,117.9c-6.8,0-12.2-2-16.1-5.9c-3.9-3.9-5.8-9.3-5.8-16V21.6h20.7
			v73.8c0,1.3,0.5,2.4,1.4,3.4c1,1,2.1,1.4,3.4,1.4h16.8v17.7H542.5z"/>
	</g>
</g>
</svg>
