<svg width="250" height="49" viewBox="0 0 250 49" fill="none" xmlns="http://www.w3.org/2000/svg">
<path d="M0 48.8405V2.77087H25.9021C28.0928 2.77087 30.0902 3.28634 31.8299 4.25283C33.634 5.21933 35.0516 6.63685 36.0825 8.37654C37.1134 10.1162 37.6933 12.2425 37.6933 14.6265C37.6933 16.1729 37.3711 17.5905 36.7912 19.008C36.1469 20.3611 35.3737 21.5853 34.2784 22.6162C33.183 23.6472 32.0232 24.4204 30.6057 25.0003C32.2165 25.5157 33.6985 26.3533 34.9227 27.5131C36.1469 28.6729 37.1778 30.026 37.8866 31.5724C38.5954 33.1188 38.982 34.7941 38.982 36.5982C38.982 39.0466 38.4021 41.2374 37.3067 43.0415C36.2113 44.9101 34.7294 46.3276 32.8608 47.2941C30.9923 48.325 28.9304 48.776 26.6753 48.776H0V48.8405ZM9.40722 21.4564H23.1314C24.0979 21.4564 25 21.1987 25.7732 20.7477C26.5464 20.2966 27.1907 19.6523 27.6418 18.8791C28.0928 18.1059 28.3505 17.2039 28.3505 16.2374C28.3505 15.2709 28.0928 14.3688 27.6418 13.5956C27.1907 12.8224 26.5464 12.1781 25.7732 11.7271C25 11.276 24.0979 11.0183 23.1314 11.0183H9.40722V21.392V21.4564ZM9.40722 40.5286H23.9691C25 40.5286 25.9665 40.2709 26.8041 39.7554C27.6418 39.2399 28.2861 38.5956 28.8015 37.6936C29.317 36.8559 29.5747 35.8894 29.5747 34.9229C29.5747 33.9564 29.317 32.9255 28.8015 32.0879C28.2861 31.2503 27.6418 30.6059 26.8041 30.0905C25.9665 29.575 25 29.3173 23.9691 29.3173H9.40722V40.5286Z" fill="white"/>
<path d="M62.8223 48.8403C59.1496 48.8403 55.7346 48.2604 52.7063 47.0362C49.6135 45.812 47.165 43.9434 45.3609 41.4305C43.5568 38.9176 42.6547 35.696 42.6547 31.7656C42.6547 28.7372 43.1702 26.0955 44.2011 23.9048C45.232 21.714 46.5851 19.9099 48.2604 18.4924C49.9357 17.0749 51.8042 16.0439 53.8661 15.3996C55.9279 14.7553 57.9898 14.4331 60.1161 14.4331C63.08 14.4331 65.464 14.9486 67.3326 15.8506C69.2011 16.8171 70.6187 18.1058 71.5207 19.6522C72.4228 21.1986 72.8738 22.8738 72.8738 24.6135C72.8738 25.5156 72.7449 26.4176 72.5516 27.3197C72.3583 28.2218 71.9717 29.1238 71.4563 30.0259C70.9408 30.928 70.2321 31.83 69.33 32.6676C68.4279 33.5053 67.2037 34.2785 65.7862 34.9872C64.3686 35.696 62.629 36.2759 60.6315 36.7269C58.6341 37.2424 56.3145 37.5646 53.6083 37.7579C54.446 38.8532 55.5413 39.6908 57.0233 40.2063C58.4408 40.7862 60.2449 41.0439 62.3712 41.0439H69.2656V48.7759H62.8867L62.8223 48.8403ZM51.6753 31.5723C53.2862 31.379 54.7037 31.1857 55.9279 30.928C57.1522 30.6702 58.2475 30.3481 59.1496 30.0259C60.0516 29.7037 60.7604 29.3171 61.3403 28.995C61.9202 28.6084 62.3712 28.2218 62.6934 27.8352C63.0156 27.4486 63.2733 27.062 63.4022 26.6109C63.531 26.2243 63.5954 25.7733 63.5954 25.3867C63.5954 24.5491 63.2733 23.7759 62.629 23.1316C61.9846 22.4872 60.9537 22.1651 59.5362 22.1651C58.4408 22.1651 57.281 22.4872 56.0568 23.0671C54.8326 23.647 53.8016 24.6135 52.8996 25.9022C52.0619 27.1908 51.6109 28.9305 51.6109 31.1213V31.5723H51.6753Z" fill="white"/>
<path d="M123.84 48.8403C120.747 48.8403 118.041 48.2604 115.786 47.1006C113.531 45.9408 111.791 44.3944 110.567 42.3326C109.343 40.3352 108.698 38.0156 108.698 35.3738C108.698 33.6341 109.085 31.9589 109.794 30.2192C110.567 28.4795 111.598 26.9331 113.015 25.58C111.662 24.2914 110.567 22.745 109.794 21.1341C109.021 19.4589 108.634 17.7836 108.634 15.9795C108.634 13.4666 109.085 11.4048 109.987 9.66506C110.889 7.92537 112.113 6.63671 113.595 5.60578C115.077 4.57486 116.688 3.86609 118.492 3.41506C120.296 2.96403 122.036 2.7063 123.711 2.7063H140.979V11.0826H123.067C121.456 11.0826 120.167 11.6625 119.265 12.7578C118.363 13.8532 117.912 15.0774 117.912 16.3017C117.912 17.0749 117.977 17.8481 118.234 18.4924C118.428 19.2011 118.686 19.8455 119.072 20.4898C120.812 19.2011 122.68 18.2347 124.549 17.4615C126.482 16.6883 128.286 16.3661 130.026 16.3661C132.539 16.3661 134.6 16.8816 136.082 17.8481C137.564 18.8145 138.595 20.0388 139.24 21.5207C139.884 22.9383 140.206 24.3558 140.206 25.7089C140.206 27.062 139.884 28.4795 139.24 29.897C138.595 31.3145 137.564 32.5388 136.082 33.5053C134.6 34.4718 132.603 34.9228 130.026 34.9228C128.286 34.9228 126.417 34.5362 124.549 33.8274C122.616 33.1187 120.812 32.1522 119.137 30.928C118.814 31.5723 118.492 32.2166 118.299 32.9254C118.106 33.6341 117.977 34.3429 117.977 35.1805C117.977 36.3403 118.234 37.3068 118.814 38.1444C119.33 38.9821 120.039 39.6264 120.876 40.013C121.714 40.3996 122.423 40.6573 123.131 40.6573H141.044V48.9692H123.776L123.84 48.8403ZM130.09 27.3841C130.992 27.3841 131.701 27.1908 132.152 26.8687C132.603 26.5465 132.796 26.0955 132.796 25.6444C132.796 25.1934 132.603 24.7424 132.152 24.4202C131.701 24.0981 131.057 23.9048 130.09 23.9048C129.317 23.9048 128.35 24.0336 127.191 24.2914C126.095 24.5491 125 25.0001 123.905 25.6444C125 26.3532 126.095 26.8042 127.191 27.062C128.286 27.3197 129.253 27.4486 130.026 27.4486L130.09 27.3841Z" fill="white"/>
<path d="M156.121 48.8402C154.124 48.8402 152.448 48.4536 151.031 47.6804C149.613 46.9072 148.518 45.8119 147.745 44.3943C146.972 42.9768 146.585 41.2371 146.585 39.3041V12.5644C146.585 9.92268 146.972 7.66753 147.68 5.79897C148.389 3.93041 149.549 2.51289 151.16 1.48196C152.771 0.451031 154.832 0 157.41 0C159.794 0 161.856 0.451031 163.595 1.28866C165.271 2.19072 166.559 3.41495 167.461 5.02577C168.363 6.6366 168.814 8.63402 168.814 10.8892C168.814 12.6289 168.428 14.6263 167.655 16.817C166.881 19.0077 165.528 21.2629 163.66 23.518C161.791 25.7732 159.085 27.8351 155.606 29.8325V38.982C155.606 39.5619 155.799 40.0773 156.25 40.4639C156.637 40.8505 157.152 41.1083 157.732 41.1083H165.013V48.8402H156.121ZM155.606 22.4227C157.345 20.7474 158.505 19.201 159.149 17.6546C159.794 16.1727 160.18 14.884 160.245 13.7887C160.309 12.6933 160.374 11.9201 160.374 11.4691C160.374 10.1804 160.116 9.14949 159.665 8.44072C159.214 7.73196 158.634 7.4098 157.99 7.4098C157.345 7.4098 156.894 7.53866 156.572 7.86083C156.25 8.18299 155.992 8.63402 155.863 9.14949C155.735 9.72938 155.67 10.3737 155.67 11.2113V22.4227H155.606Z" fill="white"/>
<path d="M188.982 48.8403C185.309 48.8403 181.894 48.2604 178.866 47.0362C175.773 45.812 173.325 43.9434 171.521 41.4305C169.716 38.9176 168.814 35.696 168.814 31.7656C168.814 28.7372 169.33 26.0955 170.361 23.9048C171.392 21.714 172.745 19.9099 174.42 18.4924C176.095 17.0749 177.964 16.0439 180.026 15.3996C182.088 14.7553 184.149 14.4331 186.276 14.4331C189.24 14.4331 191.624 14.9486 193.492 15.8506C195.361 16.8171 196.778 18.1058 197.68 19.6522C198.582 21.1986 199.033 22.8738 199.033 24.6135C199.033 25.5156 198.905 26.4176 198.711 27.3197C198.518 28.2218 198.131 29.1238 197.616 30.0259C197.1 30.928 196.392 31.83 195.49 32.6676C194.588 33.5053 193.363 34.2785 191.946 34.9872C190.528 35.696 188.789 36.2759 186.791 36.7269C184.794 37.2424 182.474 37.5646 179.768 37.7579C180.606 38.8532 181.701 39.6908 183.183 40.2063C184.6 40.7862 186.405 41.0439 188.531 41.0439H195.425V48.7759H189.046L188.982 48.8403ZM177.835 31.5723C179.446 31.379 180.863 31.1857 182.088 30.928C183.312 30.6702 184.407 30.3481 185.309 30.0259C186.211 29.7037 186.92 29.3171 187.5 28.995C188.08 28.6084 188.531 28.2218 188.853 27.8352C189.175 27.4486 189.433 27.062 189.562 26.6109C189.691 26.2243 189.755 25.7733 189.755 25.3867C189.755 24.5491 189.433 23.7759 188.789 23.1316C188.144 22.4872 187.113 22.1651 185.631 22.1651C184.536 22.1651 183.376 22.4872 182.152 23.0671C180.928 23.647 179.897 24.6135 178.995 25.9022C178.157 27.1908 177.706 28.9305 177.706 31.1213V31.5723H177.835Z" fill="white"/>
<path d="M220.296 48.8398C216.817 48.8398 213.724 48.0666 211.018 46.5847C208.312 45.1027 206.121 43.1053 204.575 40.528C203.028 37.9507 202.191 35.18 202.191 32.0228C202.191 28.8656 202.964 26.0306 204.575 23.5177C206.186 21.0048 208.312 19.0074 211.018 17.461C213.724 15.979 216.817 15.2058 220.296 15.2058H224.485V22.9378H220.296C218.428 22.9378 216.882 23.3244 215.528 24.0976C214.175 24.8708 213.144 25.9661 212.436 27.3836C211.727 28.7367 211.34 30.3476 211.34 32.0228C211.34 33.6981 211.727 35.3089 212.436 36.662C213.144 38.0151 214.175 39.1105 215.528 39.9481C216.882 40.7213 218.428 41.1079 220.296 41.1079H224.485V48.8398H220.296Z" fill="white"/>
<path d="M225.838 23.0023V15.2703H250V23.0023H225.838ZM241.108 48.9043C238.144 48.9043 235.76 48.0667 234.085 46.327C232.41 44.5873 231.572 42.2677 231.572 39.3683V6.82959H240.593V39.0461C240.593 39.626 240.786 40.1414 241.237 40.528C241.688 40.9146 242.139 41.1724 242.719 41.1724H250V48.9043H241.108Z" fill="white"/>
<path d="M102.062 23.1959H83.6341V28.4794H102.062V23.1959Z" fill="#E86F00"/>
<path d="M97.694 6.49538L80.9805 14.2571L83.2059 19.0491L99.9194 11.2874L97.694 6.49538Z" fill="#E86F00"/>
<path d="M99.9241 40.3231L83.1809 32.6256L80.974 37.4261L97.7172 45.1236L99.9241 40.3231Z" fill="#E86F00"/>
</svg>
