<svg width="278" height="55" viewBox="0 0 278 55" fill="none" xmlns="http://www.w3.org/2000/svg">
<path d="M0 54.7541V3.50244H28.7802C31.2307 3.50244 33.4205 4.07596 35.4017 5.17086C37.383 6.26576 38.9471 7.77776 40.1463 9.75901C41.3455 11.7403 41.919 14.0343 41.919 16.6934C41.919 18.4139 41.554 20.0302 40.8762 21.5422C40.1984 23.1063 39.2599 24.4098 38.1129 25.5568C36.9659 26.7039 35.5581 27.5381 33.994 28.2159C35.8188 28.7894 37.383 29.7279 38.7907 31.0313C40.1984 32.3348 41.2933 33.8468 42.0754 35.5673C42.8575 37.2879 43.2746 39.1649 43.2746 41.1461C43.2746 43.8573 42.6489 46.2556 41.3976 48.3411C40.1463 50.3745 38.53 51.9908 36.4445 53.0857C34.4111 54.2327 32.117 54.7541 29.5623 54.7541H0V54.7541ZM10.4797 24.3055H25.704C26.7989 24.3055 27.7374 24.0448 28.6238 23.5234C29.5101 23.0021 30.1879 22.3243 30.7093 21.4379C31.2307 20.5516 31.4914 19.561 31.4914 18.5182C31.4914 17.4754 31.2307 16.4848 30.7093 15.5985C30.1879 14.7121 29.5101 14.0343 28.6238 13.5129C27.7374 12.9916 26.7468 12.7309 25.704 12.7309H10.4797V24.3055ZM10.4797 45.5257H26.6425C27.7896 45.5257 28.8845 45.265 29.7708 44.6915C30.7093 44.118 31.4392 43.388 32.0128 42.3974C32.5863 41.4589 32.847 40.4162 32.847 39.2691C32.847 38.1221 32.5863 37.0272 32.0128 36.1408C31.4392 35.2024 30.7093 34.4724 29.7708 33.8989C28.8323 33.3254 27.7896 33.0647 26.6425 33.0647H10.4797V45.5257V45.5257Z" fill="white"/>
<path d="M69.8129 54.7553C65.694 54.7553 61.94 54.0775 58.5511 52.7219C55.1099 51.3663 52.3988 49.2808 50.3654 46.5175C48.332 43.702 47.3414 40.1566 47.3414 35.777C47.3414 32.388 47.9149 29.5205 49.0098 27.07C50.1047 24.6195 51.6167 22.6382 53.4937 21.0741C55.3706 19.51 57.4562 18.3629 59.6981 17.633C61.94 16.9031 64.2862 16.5381 66.6324 16.5381C69.9171 16.5381 72.5762 17.0595 74.6617 18.1544C76.7472 19.2493 78.3114 20.657 79.302 22.3775C80.2926 24.0981 80.814 25.9751 80.814 27.9042C80.814 28.8948 80.7097 29.8854 80.449 30.9282C80.1883 31.9709 79.8234 32.9616 79.2499 33.9522C78.6763 34.9428 77.8943 35.9334 76.8515 36.8719C75.8087 37.8104 74.5053 38.6967 72.9412 39.4267C71.377 40.1566 69.4479 40.8344 67.2581 41.3558C65.0162 41.8772 62.4614 42.2943 59.4895 42.5028C60.428 43.702 61.6793 44.6405 63.2435 45.2661C64.8076 45.8918 66.841 46.2046 69.1872 46.2046H76.8515V54.7553H69.7607H69.8129ZM57.4562 35.5685C59.281 35.3599 60.8451 35.1514 62.2007 34.8385C63.5563 34.5257 64.7555 34.2129 65.7461 33.8479C66.7367 33.4829 67.5709 33.118 68.1966 32.7009C68.8222 32.2838 69.3436 31.8667 69.7086 31.3974C70.0736 30.9803 70.3864 30.5111 70.4907 30.0418C70.6471 29.5726 70.6992 29.1034 70.6992 28.6862C70.6992 27.7478 70.3342 26.9136 69.6565 26.1836C68.9787 25.4537 67.7795 25.0887 66.1632 25.0887C64.964 25.0887 63.6606 25.4016 62.305 26.0793C60.9494 26.7571 59.8024 27.7999 58.8117 29.2598C57.8733 30.7196 57.404 32.6487 57.404 35.0471V35.5685H57.4562Z" fill="white"/>
<path d="M137.644 54.7553C134.203 54.7553 131.179 54.1297 128.677 52.8784C126.174 51.627 124.245 49.8543 122.837 47.6124C121.482 45.3705 120.804 42.7636 120.804 39.8438C120.804 37.9669 121.221 36.0378 122.055 34.1087C122.889 32.1795 124.089 30.459 125.653 28.947C124.141 27.4871 122.942 25.8187 122.107 23.9939C121.273 22.1169 120.804 20.2399 120.804 18.3108C120.804 15.5475 121.325 13.2013 122.316 11.3243C123.306 9.44737 124.662 7.93537 126.33 6.84047C127.999 5.74557 129.824 4.91136 131.805 4.38998C133.786 3.8686 135.715 3.60791 137.644 3.60791H156.831V12.8363H136.915C135.09 12.8363 133.682 13.462 132.691 14.7133C131.701 15.9646 131.179 17.2681 131.179 18.6237C131.179 19.51 131.284 20.3442 131.492 21.0741C131.701 21.8041 132.014 22.5862 132.431 23.3161C134.36 21.9084 136.393 20.7613 138.531 19.9271C140.668 19.0929 142.702 18.6758 144.631 18.6758C147.446 18.6758 149.688 19.2493 151.357 20.3442C152.973 21.4391 154.172 22.7947 154.85 24.411C155.528 26.0273 155.893 27.5914 155.893 29.1034C155.893 30.6154 155.528 32.1795 154.85 33.7437C154.12 35.3078 152.973 36.6634 151.357 37.7062C149.74 38.8011 147.499 39.3225 144.631 39.3225C142.65 39.3225 140.668 38.9054 138.531 38.1233C136.393 37.3412 134.412 36.2463 132.483 34.8907C132.066 35.5685 131.753 36.2985 131.544 37.0805C131.336 37.8626 131.179 38.6968 131.179 39.5832C131.179 40.8345 131.492 41.9294 132.118 42.8678C132.743 43.8063 133.473 44.4841 134.36 44.9534C135.246 45.4226 136.08 45.6312 136.862 45.6312H156.779V54.8596H137.592L137.644 54.7553ZM144.631 30.8761C145.674 30.8761 146.404 30.6675 146.873 30.3026C147.342 29.8855 147.603 29.4684 147.603 28.8949C147.603 28.3213 147.342 27.9042 146.873 27.4871C146.404 27.1222 145.622 26.9136 144.631 26.9136C143.745 26.9136 142.702 27.07 141.451 27.3307C140.199 27.6435 139 28.1128 137.801 28.8427C139 29.6248 140.251 30.1462 141.451 30.4069C142.65 30.6675 143.692 30.824 144.579 30.824L144.631 30.8761Z" fill="white"/>
<path d="M173.62 54.7551C171.43 54.7551 169.553 54.338 167.937 53.4516C166.32 52.5653 165.121 51.3661 164.287 49.802C163.453 48.2378 162.984 46.3087 162.984 44.1189V14.4002C162.984 11.4805 163.401 8.97788 164.183 6.89236C164.965 4.80684 166.268 3.2427 168.041 2.09566C169.814 0.948626 172.108 0.427246 174.975 0.427246C177.634 0.427246 179.928 0.896488 181.805 1.88711C183.682 2.87773 185.142 4.23332 186.133 6.05815C187.123 7.88298 187.645 10.0206 187.645 12.5754C187.645 14.5045 187.228 16.7464 186.341 19.1969C185.455 21.6474 183.995 24.1501 181.91 26.6005C179.824 29.1032 176.852 31.4494 172.994 33.6392V43.8061C172.994 44.4317 173.203 45.0053 173.672 45.4745C174.141 45.9438 174.662 46.1523 175.34 46.1523H183.474V54.7029H173.62V54.7551ZM173.046 25.4014C174.923 23.5244 176.279 21.8038 176.957 20.1354C177.686 18.467 178.051 17.0593 178.156 15.808C178.26 14.6088 178.312 13.7224 178.312 13.2532C178.312 11.7933 178.051 10.6463 177.53 9.86423C177.009 9.08216 176.383 8.71719 175.653 8.71719C174.975 8.71719 174.454 8.87361 174.037 9.23857C173.62 9.60354 173.359 10.0728 173.255 10.6984C173.098 11.3241 173.046 12.1062 173.046 12.9925V25.4535V25.4014Z" fill="white"/>
<path d="M210.116 54.7553C205.997 54.7553 202.243 54.0775 198.854 52.7219C195.465 51.3663 192.702 49.2808 190.669 46.5175C188.635 43.702 187.645 40.1566 187.645 35.777C187.645 32.388 188.218 29.5205 189.313 27.07C190.408 24.6195 191.92 22.6382 193.797 21.0741C195.674 19.51 197.76 18.3629 200.001 17.633C202.296 16.9031 204.59 16.5381 206.936 16.5381C210.221 16.5381 212.88 17.0595 214.965 18.1544C217.051 19.2493 218.615 20.657 219.605 22.3775C220.596 24.0981 221.117 25.9751 221.117 27.9042C221.117 28.8948 221.013 29.8854 220.752 30.9282C220.492 31.9709 220.127 32.9616 219.553 33.9522C218.98 34.9428 218.198 35.9334 217.155 36.8719C216.112 37.8104 214.809 38.6967 213.245 39.4267C211.68 40.1566 209.751 40.8344 207.561 41.3558C205.32 41.8772 202.765 42.2943 199.793 42.5028C200.731 43.702 201.983 44.6405 203.547 45.2661C205.111 45.8918 207.092 46.2046 209.491 46.2046H217.155V54.7553H210.064H210.116ZM197.76 35.5685C199.584 35.3599 201.149 35.1514 202.504 34.8385C203.86 34.5257 205.059 34.2129 206.049 33.8479C207.04 33.4829 207.874 33.118 208.5 32.7009C209.126 32.2838 209.647 31.8667 210.012 31.3974C210.429 30.9803 210.69 30.5111 210.846 30.0418C211.003 29.5726 211.055 29.1034 211.055 28.6862C211.055 27.7478 210.69 26.9136 210.012 26.1836C209.334 25.4537 208.135 25.0887 206.519 25.0887C205.32 25.0887 204.016 25.4016 202.66 26.0793C201.305 26.7571 200.158 27.7999 199.167 29.2598C198.229 30.7196 197.76 32.6487 197.76 35.0471V35.5685V35.5685Z" fill="white"/>
<path d="M244.944 54.7561C241.086 54.7561 237.645 53.9219 234.621 52.2535C231.597 50.5851 229.199 48.3431 227.426 45.5798C225.653 42.8165 224.767 39.6361 224.767 36.0907C224.767 32.5453 225.653 29.417 227.426 26.6016C229.199 23.7861 231.597 21.5442 234.621 19.9279C237.645 18.2595 241.086 17.4253 244.944 17.4253H249.637V25.9759H244.944C242.911 25.9759 241.138 26.393 239.626 27.2794C238.114 28.1657 236.967 29.3649 236.185 30.8769C235.403 32.441 234.986 34.1616 234.986 36.0386C234.986 37.9155 235.403 39.6361 236.185 41.2002C236.967 42.7122 238.114 43.9636 239.626 44.7978C241.086 45.6841 242.859 46.1012 244.944 46.1012H249.637V54.6518H244.944V54.7561Z" fill="white"/>
<path d="M251.097 25.9745V17.4239H277.948V25.9745H251.097ZM268.094 54.7547C264.757 54.7547 262.15 53.8163 260.325 51.8871C258.448 50.0102 257.51 47.4033 257.51 44.1186V8.03906H267.52V43.8058C267.52 44.4314 267.729 45.0049 268.198 45.4742C268.667 45.9434 269.189 46.152 269.866 46.152H278V54.7026H268.146L268.094 54.7547Z" fill="white"/>
<path d="M113.504 26.1846H93.0141V32.0762H113.504V26.1846Z" fill="white"/>
<path d="M108.619 7.66846L90.0346 16.2988L92.5161 21.6423L111.1 13.012L108.619 7.66846Z" fill="white"/>
<path d="M111.12 45.2176L92.5028 36.6587L90.0418 42.0117L108.659 50.5706L111.12 45.2176Z" fill="white"/>
</svg>
