<svg width="348" height="76" viewBox="0 0 348 76" fill="none" xmlns="http://www.w3.org/2000/svg">
<g clip-path="url(#clip0_205_156)">
<path d="M267.29 19.1606H268.353L271.755 27.6586L275.182 19.1606H276.245L272.213 28.8666H271.294L267.29 19.1606Z" fill="white"/>
<path d="M277.749 19.1606H280.059C280.979 19.1606 282.003 19.1747 282.817 19.6361C283.803 20.1996 284.328 21.1997 284.328 22.3267C284.328 23.915 283.039 25.204 281.465 25.2427L284.198 28.8666H282.99L279.693 24.4679H279.982C280.665 24.4679 281.454 24.4926 282.099 24.2038C282.898 23.8375 283.359 23.1015 283.359 22.2316C283.359 21.5625 283.004 20.8793 282.454 20.4989C281.81 20.0411 281.021 20.0411 280.26 20.0411H278.725V28.8666H277.753V19.1606H277.749Z" fill="white"/>
<path d="M287.071 19.1606H286.099V28.8666H287.071V19.1606Z" fill="white"/>
<path d="M293.773 26.1337C293.72 26.8979 293.759 27.4473 293.248 28.0777C292.738 28.7222 291.974 29.0391 291.174 29.0391C289.755 29.0391 288.624 27.9756 288.586 26.5704H289.544C289.61 27.4896 290.343 28.1059 291.266 28.1059C291.91 28.1059 292.46 27.7396 292.685 27.1339C292.815 26.7535 292.801 26.2534 292.801 25.8484V19.1606H293.773V26.1337V26.1337Z" fill="white"/>
<path d="M296.14 19.1606H301.447V20.0411H297.112V23.5346H301.303V24.4151H297.112V27.9861H301.447V28.8666H296.14V19.1606Z" fill="white"/>
<path d="M269.128 33.0894V38.9883C269.128 39.6856 269.195 40.4216 269.575 41.0238C269.984 41.6683 270.706 42.0346 271.466 42.0346C272.15 42.0346 272.847 41.7211 273.252 41.1541C273.724 40.5238 273.791 39.749 273.791 38.9883V33.0894H274.763V38.9883C274.763 39.9744 274.671 40.9182 274.041 41.7317C273.435 42.5347 272.463 42.9678 271.466 42.9678C270.47 42.9678 269.547 42.5593 268.931 41.8127C268.262 40.9851 268.156 40.0131 268.156 38.9883V33.0894H269.128V33.0894Z" fill="white"/>
<path d="M277.133 33.0894H278.447L283.884 41.1436V33.0894H284.856V42.7953H283.884L278.105 34.2586V42.7953H277.133V33.0894Z" fill="white"/>
<path d="M288.202 33.0894H287.23V42.7953H288.202V33.0894Z" fill="white"/>
<path d="M289.702 33.0894H290.766L294.168 41.5873L297.594 33.0894H298.658L294.625 42.7953H293.706L289.702 33.0894Z" fill="white"/>
<path d="M300.162 33.0894H305.469V33.9698H301.137V37.4634H305.324V38.3438H301.137V41.9148H305.469V42.7953H300.162V33.0894Z" fill="white"/>
<path d="M307.578 33.0894H309.889C310.808 33.0894 311.833 33.1034 312.646 33.5648C313.632 34.1283 314.157 35.1284 314.157 36.2554C314.157 37.8437 312.868 39.1327 311.294 39.1714L314.027 42.7988H312.819L309.522 38.4001H309.811C310.494 38.4001 311.283 38.4248 311.928 38.136C312.727 37.7698 313.189 37.0337 313.189 36.1638C313.189 35.4947 312.833 34.8115 312.283 34.4311C311.639 33.9733 310.85 33.9733 310.089 33.9733H308.554V42.7988H307.582V33.0929L307.578 33.0894Z" fill="white"/>
<path d="M316.252 40.0797C316.277 41.1433 317.108 42.0378 318.196 42.0378C319.285 42.0378 320.207 41.2348 320.207 40.122C320.207 39.5972 319.943 39.069 319.538 38.7414C319.091 38.3717 318.594 38.2413 318.041 38.097C317.436 37.9385 316.819 37.78 316.333 37.3609C315.795 36.9031 315.52 36.2445 315.52 35.5472C315.52 33.9836 316.756 32.9341 318.277 32.9341C319.799 32.9341 320.957 34.0751 320.943 35.5613H319.933C319.866 34.5752 319.158 33.8673 318.158 33.8673C317.21 33.8673 316.488 34.6421 316.488 35.5613C316.488 36.7305 317.46 37.0052 318.404 37.2693C319.101 37.4666 319.704 37.5828 320.271 38.097C320.848 38.597 321.176 39.3577 321.176 40.1325C321.176 41.7349 319.795 42.971 318.221 42.971C316.566 42.971 315.199 41.7737 315.213 40.0797H316.252V40.0797Z" fill="white"/>
<path d="M323.81 33.0894H322.838V42.7953H323.81V33.0894Z" fill="white"/>
<path d="M327.504 33.9698H325.272V33.0894H330.685V33.9698H328.476V42.7953H327.504V33.9698Z" fill="white"/>
<path d="M332.146 33.0894H337.453V33.9698H333.118V37.4634H337.309V38.3438H333.118V41.9148H337.453V42.7953H332.146V33.0894Z" fill="white"/>
<path d="M340.531 33.0894H339.559V42.7953H340.531V33.0894Z" fill="white"/>
<path d="M341.993 33.0894V33.9698H344.226V42.7953H345.198V33.9698H347.406V33.0894H341.993Z" fill="white"/>
<path d="M268.156 47.021H270.428C271.202 47.021 271.963 47.0738 272.636 47.507C273.333 47.9648 273.777 48.7537 273.777 49.5954C273.777 50.4371 273.372 51.0675 272.699 51.5394C273.724 51.9585 274.301 52.8671 274.301 53.9835C274.301 54.8639 273.854 55.7303 273.108 56.2022C272.252 56.741 271.414 56.7164 270.442 56.7269H268.156V47.021V47.021ZM270.181 51.1731C270.797 51.1731 271.466 51.1872 272.019 50.8843C272.491 50.6343 272.808 50.0708 272.808 49.532C272.808 48.9932 272.481 48.4684 272.033 48.1902C271.533 47.8873 270.84 47.8733 270.262 47.9014H269.132V51.1731H270.181ZM270.325 55.8465C270.98 55.8606 271.783 55.8606 272.375 55.5577C272.928 55.2689 273.333 54.6104 273.319 53.994C273.333 53.1664 272.861 52.5114 272.111 52.2473C271.505 52.036 270.797 52.05 270.153 52.05H269.128V55.8465H270.322H270.325Z" fill="white"/>
<path d="M276.069 47.021H278.38C279.299 47.021 280.324 47.0351 281.137 47.4929C282.123 48.0564 282.648 49.0566 282.648 50.1835C282.648 51.7718 281.359 53.0608 279.785 53.0995L282.518 56.7269H281.31L278.013 52.3283H278.302C278.985 52.3283 279.774 52.3529 280.419 52.0641C281.218 51.6979 281.68 50.9618 281.68 50.092C281.68 49.4228 281.324 48.7396 280.774 48.3593C280.13 47.9014 279.341 47.9014 278.58 47.9014H277.045V56.7269H276.073V47.021H276.069Z" fill="white"/>
<path d="M285.388 47.021V52.9199C285.388 53.6172 285.455 54.3533 285.835 54.9555C286.244 55.6 286.966 55.9662 287.726 55.9662C288.41 55.9662 289.107 55.6528 289.512 55.0858C289.984 54.4554 290.051 53.6806 290.051 52.9199V47.021H291.023V52.9199C291.023 53.906 290.931 54.8498 290.301 55.6634C289.699 56.4663 288.727 56.8995 287.726 56.8995C286.726 56.8995 285.807 56.4945 285.191 55.7444C284.522 54.9167 284.416 53.9447 284.416 52.9199V47.021H285.388V47.021Z" fill="white"/>
<path d="M293.724 54.0084C293.749 55.072 294.58 55.9665 295.668 55.9665C296.756 55.9665 297.679 55.1635 297.679 54.0507C297.679 53.5259 297.415 52.9977 297.01 52.6701C296.562 52.3004 296.066 52.1701 295.513 52.0257C294.907 51.8672 294.291 51.7087 293.805 51.2896C293.266 50.8283 292.991 50.1732 292.991 49.4759C292.991 47.9123 294.227 46.8628 295.749 46.8628C297.27 46.8628 298.429 48.0074 298.415 49.49H297.404C297.337 48.5039 296.629 47.7961 295.633 47.7961C294.685 47.7961 293.963 48.5708 293.963 49.49C293.963 50.6592 294.935 50.9339 295.879 51.1981C296.576 51.3953 297.179 51.5115 297.746 52.0257C298.323 52.5258 298.651 53.2865 298.651 54.0612C298.651 55.6636 297.27 56.8998 295.696 56.8998C294.041 56.8998 292.674 55.7059 292.688 54.0119H293.727L293.724 54.0084Z" fill="white"/>
<path d="M300.637 54.0084C300.662 55.072 301.493 55.9665 302.581 55.9665C303.669 55.9665 304.592 55.1635 304.592 54.0507C304.592 53.5259 304.328 52.9977 303.923 52.6701C303.476 52.3004 302.979 52.1701 302.426 52.0257C301.82 51.8672 301.204 51.7087 300.718 51.2896C300.179 50.8283 299.905 50.1732 299.905 49.4759C299.905 47.9123 301.141 46.8628 302.662 46.8628C304.183 46.8628 305.342 48.0074 305.328 49.49H304.317C304.25 48.5039 303.542 47.7961 302.542 47.7961C301.595 47.7961 300.873 48.5708 300.873 49.49C300.873 50.6592 301.845 50.9339 302.789 51.1981C303.486 51.3953 304.088 51.5115 304.655 52.0257C305.233 52.5258 305.56 53.2865 305.56 54.0612C305.56 55.6636 304.18 56.8998 302.606 56.8998C300.95 56.8998 299.584 55.7059 299.598 54.0119H300.637V54.0084Z" fill="white"/>
<path d="M307.223 47.021H312.53V47.9014H308.195V51.395H312.386V52.2754H308.195V55.8465H312.53V56.7269H307.223V47.021Z" fill="white"/>
<path d="M314.636 47.021H315.608V55.8465H319.626V56.7269H314.636V47.021Z" fill="white"/>
<path d="M258.454 11.7329H205.906V64.2808H258.454V11.7329Z" fill="white"/>
<path d="M252.896 36.8571C254.689 35.9943 255.587 34.0996 255.587 32.1767C255.587 29.8876 254.161 27.6936 252.132 26.6652C250.075 25.6369 247.818 25.7355 245.592 25.7355L239.894 25.746V50.2714H247.286C249.642 50.2045 252.132 50.0742 254.094 48.6444C255.985 47.2181 257.084 45.1896 257.084 42.8018C257.084 40.0126 255.59 37.7235 252.9 36.8571M244.458 30.1482H246.036L246.525 30.1517C247.487 30.1517 248.843 30.0919 249.515 30.3842C250.41 30.7504 251.044 31.5463 251.044 32.543C251.044 33.4727 250.512 34.4025 249.649 34.8004C248.786 35.1984 247.526 35.1667 246.561 35.1667H246.039V35.1737H244.462V30.1517L244.458 30.1482ZM251.34 44.9923C250.146 45.7883 248.917 45.8552 247.589 45.8552H245.698H244.458V39.583H245.698H247.691C248.786 39.583 249.882 39.5513 250.914 40.0795C251.977 40.6782 252.541 41.4072 252.541 42.6046C252.541 43.633 252.174 44.4289 251.347 44.9959" fill="#004B93"/>
<path d="M200.954 25.7461L205.906 38.4913V25.7461H200.954Z" fill="#EC671C"/>
<path d="M238.524 25.7528V25.7422H233.974V42.0162C233.953 42.8579 233.861 43.6714 233.481 44.4321C232.865 45.5168 231.724 46.2916 230.385 46.45C230.34 46.4536 230.294 46.4606 230.248 46.4641C230.125 46.4747 230.001 46.4817 229.878 46.4817C229.755 46.4817 229.635 46.4747 229.515 46.4676C229.473 46.4641 229.427 46.4606 229.385 46.4536C228.184 46.3162 227.142 45.6823 226.49 44.7772C226.402 44.6469 226.321 44.5096 226.247 44.3687C225.839 43.5763 225.782 42.7029 225.779 41.826C225.779 41.752 225.779 41.6816 225.779 41.6076V25.7457H220.729C220.729 25.7457 219.507 25.7105 218.679 26.4606C218.056 27.0276 217.809 27.9045 217.809 27.9045L212.333 43.9038L205.902 25.7457V38.4909L210.473 50.2606H214.224L221.489 30.4613L221.511 41.0442C221.511 43.5974 221.433 45.8549 223.226 47.8763C224.12 48.8871 225.321 49.7358 226.628 50.2711C227.519 50.6163 228.487 50.824 229.498 50.8628C229.621 50.8663 229.748 50.8698 229.875 50.8698C230.001 50.8698 230.125 50.8698 230.251 50.8628C233.527 50.7289 236.33 48.8589 237.672 46.1929C238.408 44.6187 238.521 42.8684 238.521 41.0442V25.7492L238.524 25.7528Z" fill="#004B93"/>
<path d="M190.097 11.7153H137.024V64.2809H190.097V11.7153Z" fill="#004B93"/>
<path d="M190.097 11.7153H137.024V64.2809H190.097V11.7153Z" fill="white"/>
<path d="M166.082 43.5131H170.009V39.6216L166.082 43.5131Z" fill="#B1C1E5"/>
<path d="M158.813 30.585V32.8811H160.669V43.6013H158.813V45.8975H170.009V43.5133H164.353V32.8811H166.413V30.585H158.813Z" fill="#004B93"/>
<path d="M153.791 45.3125C155.175 44.2067 155.474 42.9811 155.474 41.1322V32.9301H157.418V30.6304H151.703V32.9301H152.921V41.5231C152.921 42.7311 151.928 43.7031 150.713 43.7031C149.121 43.7031 148.508 42.724 148.508 41.5196V32.9265H149.787L149.892 30.6304H143.106L143.004 32.9301H144.821L144.828 40.9456C144.828 42.6043 144.86 43.5622 145.747 44.7772C146.543 45.8725 147.931 46.4007 150.146 46.3972C151.706 46.3937 152.918 46.0169 153.794 45.316" fill="#004B93"/>
<path d="M178.485 43.5134C180.06 43.5063 180.778 42.7351 180.782 41.3722C180.782 39.967 179.831 39.002 178.482 38.9985H177.01V43.5134H178.485V43.5134ZM178.292 36.7869C179.549 36.7904 180.253 36.0508 180.257 34.8675C180.26 33.6455 179.461 32.8848 178.288 32.8812H177.01V36.7904H178.292V36.7869ZM182.891 38.2026C183.969 38.9457 184.677 40.1607 184.684 41.6292C184.694 43.9289 182.349 45.8976 180.186 45.8941H171.47V43.5134H173.242V32.8812H171.386V30.5815H180.204C182.37 30.5815 184.127 32.2544 184.127 34.3463C184.127 35.2936 183.648 36.4135 182.888 37.1038L181.845 37.7483L182.891 38.2026V38.2026Z" fill="#004B93"/>
<path d="M30.9807 21.9036C30.4243 22.5833 29.5122 23.1855 27.8182 23.1855C26.1243 23.1855 25.0572 22.6643 24.4972 21.6677C24.212 21.1605 24.1486 20.8612 24.1486 19.7237V12.1167H25.6946V19.1531C25.6946 19.9455 25.7756 20.9105 26.0961 21.2732C26.399 21.6219 26.9589 21.8895 27.8358 21.8895C28.667 21.8895 29.2727 21.6395 29.6249 21.1781C29.896 20.8295 30.0228 20.2449 30.0228 19.375V12.1167H31.5548V19.5969C31.5548 20.9739 31.4738 21.3049 30.9807 21.9036" fill="white"/>
<path d="M42.8737 23.0096L39.9823 17.2233C39.4259 16.0999 38.8483 14.8673 38.6441 14.2334L38.5455 14.251C38.6265 15.1842 38.6582 16.276 38.6722 17.2867L38.7356 23.0096H37.1861V12.1133H38.9751L42.039 18.1249C42.5004 19.0265 43.0462 20.4316 43.1237 20.7345L43.2188 20.7028C43.1871 20.3859 43.0603 18.6637 43.0603 17.4628L43.0286 12.1168H44.5148V23.0131H42.8702L42.8737 23.0096Z" fill="white"/>
<path d="M51.6534 12.1133H50.0897V23.0096H51.6534V12.1133Z" fill="white"/>
<path d="M60.7219 23.0412H59.2216L55.5519 12.1133H57.2459L59.3519 18.6285C59.4787 19.0089 59.6548 19.5935 59.7675 20.0689C59.8485 20.4175 59.9119 20.6676 59.9436 20.8895H60.0386C60.0879 20.6676 60.1513 20.4633 60.2605 20.0689C60.3908 19.6252 60.5176 19.2131 60.7078 18.6144L62.8631 12.1133H64.4619L60.7254 23.0412H60.7219Z" fill="white"/>
<path d="M68.4662 23.0095V12.1133H74.4531L74.2454 13.367H70.0158V16.688H73.5586V17.9664H70.0298V21.6995H74.6292V23.0095H68.4662Z" fill="white"/>
<path d="M84.8282 23.0096C84.5112 22.3932 84.3668 22.1397 83.9196 21.3966C83.0744 20.0055 82.8032 19.5442 82.0213 18.6743C81.7326 18.3573 81.4931 18.1989 81.0317 18.1848V23.0096H79.4998V12.1133H82.5813C83.8914 12.1133 84.6556 12.4126 85.1839 12.9057C85.6769 13.367 86.1594 14.0925 86.1594 15.1525C86.1594 16.843 85.0571 18.2059 83.2187 18.1425C83.7294 18.5545 83.9865 18.9032 84.1767 19.1568C84.3985 19.4561 84.7366 19.9315 85.1029 20.4985C85.5818 21.2416 86.4764 22.6679 86.6982 23.0131H84.8282V23.0096ZM83.5181 13.5678C83.1976 13.441 82.7504 13.3635 82.1763 13.3635H81.0282V17.1599H82.0988C83.0744 17.1599 83.6132 17.0015 83.997 16.6352C84.3316 16.3182 84.5394 15.797 84.5394 15.1666C84.5394 14.4059 84.1238 13.8072 83.5181 13.5678" fill="white"/>
<path d="M93.8192 23.2174C92.5549 23.2174 91.3434 22.9004 90.2728 22.2524L90.8785 21.0832C91.8365 21.6678 92.7451 21.9847 93.8474 21.9847C95.2842 21.9847 96.2245 21.2557 96.2245 20.0865C96.2245 19.2026 95.6329 18.5827 94.4038 18.2376L93.2557 17.9066C91.5935 17.4311 90.6532 16.6423 90.6532 15.0927C90.6532 13.2121 92.1217 11.9302 94.2911 11.9302C95.5061 11.9302 96.6859 12.2788 97.6614 12.9585L96.9747 14.0327C95.9534 13.4164 95.2666 13.1804 94.358 13.1804C93.1289 13.1804 92.3647 13.8108 92.3647 14.825C92.3647 15.5998 92.8085 16.04 93.9918 16.3887L95.2842 16.769C96.7528 17.1952 97.9678 18.1461 97.9678 19.8365C97.9678 21.3544 96.707 23.2209 93.8192 23.2209" fill="white"/>
<path d="M104.367 12.1133H102.803V23.0096H104.367V12.1133Z" fill="white"/>
<path d="M115.753 13.3811H112.893V23.0131H111.379V13.3811H108.519V12.1133H115.911L115.753 13.3811Z" fill="white"/>
<path d="M120 23.0095V12.1132H125.987L125.779 13.3634H121.549V16.6844H125.092V17.9628H121.563V21.6959H126.163V23.0059H120V23.0095ZM121.789 11.5744L121.328 10.7221L124.536 8.61963L125.254 9.96493L121.789 11.5779V11.5744Z" fill="white"/>
<path d="M84.5042 43.3406H79.0138V32.4443H80.5774V42.0763H84.7613L84.5042 43.3406Z" fill="white"/>
<path d="M90.3644 32.4443H88.8007V43.3406H90.3644V32.4443Z" fill="white"/>
<path d="M101.014 43.168C100.518 43.2948 99.8484 43.3406 99.2744 43.3406H95.9217V32.4443H98.2496C100.102 32.4443 100.599 32.4936 101.285 32.8564C102.261 33.3635 102.768 34.1383 102.768 35.1349C102.768 36.276 102.113 37.1423 100.771 37.5403C102.433 37.903 103.229 38.9314 103.229 40.3542C103.229 41.872 102.289 42.837 101.011 43.168M100.035 33.8389C99.778 33.7579 99.4751 33.7262 98.9187 33.7262H97.4184V37.0473H99.1617C100.137 37.0473 100.472 36.8747 100.789 36.4486C100.993 36.1633 101.106 35.7513 101.106 35.3885C101.106 34.6278 100.673 34.0291 100.035 33.8389M100.356 38.4066C100.07 38.3433 99.7498 38.3116 99.2075 38.3116H97.436V42.108H99.609C100.518 42.108 101.542 41.5692 101.542 40.1781C101.542 39.2941 101.046 38.5651 100.363 38.4066" fill="white"/>
<path d="M113.421 43.3405C113.101 42.7242 112.96 42.4706 112.513 41.7275C111.667 40.3365 111.396 39.8786 110.614 39.0088C110.326 38.6953 110.086 38.5368 109.625 38.5192V43.344H108.093V32.4478H111.174C112.484 32.4478 113.249 32.7471 113.777 33.2401C114.273 33.698 114.752 34.427 114.752 35.487C114.752 37.181 113.65 38.5404 111.815 38.477C112.326 38.889 112.583 39.2377 112.773 39.4877C112.995 39.7871 113.333 40.2625 113.699 40.833C114.178 41.5761 115.073 42.9989 115.295 43.3475H113.428L113.421 43.3405ZM112.111 33.8987C111.791 33.7719 111.343 33.6945 110.769 33.6945H109.621V37.4909H110.692C111.667 37.4909 112.206 37.3324 112.59 36.9697C112.925 36.6527 113.132 36.1315 113.132 35.4976C113.132 34.7404 112.717 34.1382 112.111 33.9022" fill="white"/>
<path d="M120 43.3406V32.4443H125.987L125.779 33.6946H121.549V37.0156H125.092V38.2975H121.563V42.0305H126.163V43.3406H120Z" fill="white"/>
<path d="M7.88517 62.203C7.11743 63.1539 6.09612 63.6751 4.1803 63.6751H1.43686V52.7788H3.99012C5.88834 52.7788 7.10334 53.2085 8.11056 54.5819C8.7656 55.4835 9.08608 56.7302 9.08608 58.234C9.08608 60.0054 8.62473 61.3014 7.88869 62.203M6.56452 54.9623C5.95525 54.2016 5.31782 53.9973 4.25073 53.9973H3.00403V62.4284H4.21904C5.47982 62.4284 6.29334 62.0938 6.78991 61.2099C7.18786 60.4809 7.38156 59.5018 7.38156 58.4242C7.38156 56.9063 7.22308 55.7864 6.56804 54.9623" fill="white"/>
<path d="M13.925 63.6716V52.7788H19.9119L19.7041 54.0255H15.4745V57.3465H19.0174V58.6284H15.4921V62.3615H20.088V63.6716H13.925Z" fill="white"/>
<path d="M35.6435 63.4991C35.1505 63.6259 34.4813 63.6717 33.9038 63.6717H30.5511V52.7754H32.8825C34.7349 52.7754 35.228 52.8247 35.9182 53.1874C36.8937 53.6946 37.4044 54.4693 37.4044 55.466C37.4044 56.6035 36.7494 57.4734 35.4076 57.8678C37.0698 58.2306 37.8693 59.2624 37.8693 60.6852C37.8693 62.2031 36.9254 63.168 35.647 63.4991M34.6715 54.17C34.418 54.089 34.1151 54.0573 33.5551 54.0573H32.0513V57.3783H33.7946C34.7701 57.3783 35.1047 57.2057 35.4217 56.7796C35.6294 56.4943 35.7421 56.0823 35.7421 55.7196C35.7421 54.9589 35.309 54.3602 34.6715 54.17M34.992 58.7377C34.7067 58.6743 34.3863 58.6426 33.8439 58.6426H32.0725V62.439H34.2454C35.1575 62.439 36.1788 61.9002 36.1788 60.5127C36.1788 59.6252 35.6823 58.8997 34.9955 58.7412" fill="white"/>
<path d="M48.0506 63.6716C47.7337 63.0552 47.5893 62.8017 47.142 62.0586C46.2968 60.6675 46.0256 60.2062 45.2438 59.3398C44.955 59.0229 44.7155 58.8679 44.2542 58.8503V63.6751H42.7222V52.7788H45.8038C47.1138 52.7788 47.8781 53.0782 48.4063 53.5712C48.9029 54.029 49.3818 54.758 49.3818 55.8145C49.3818 57.5085 48.2795 58.8679 46.4412 58.8045C46.9554 59.2166 47.2089 59.5617 47.3991 59.8152C47.6245 60.1146 47.9591 60.59 48.3253 61.1606C48.8043 61.9036 49.6988 63.3264 49.9207 63.6751H48.0506V63.6716ZM46.7405 54.2298C46.4201 54.103 45.9763 54.0255 45.3988 54.0255H44.2507V57.8219H45.3213C46.2968 57.8219 46.8356 57.6635 47.2195 57.3007C47.5541 56.9838 47.7618 56.4626 47.7618 55.8286C47.7618 55.0715 47.3463 54.4692 46.7405 54.2333" fill="white"/>
<path d="M61.0494 62.5657C60.4894 63.2454 59.5808 63.8476 57.8869 63.8476C56.1929 63.8476 55.1223 63.3264 54.5659 62.3298C54.2806 61.8262 54.2137 61.5233 54.2137 60.3858V52.7788H55.7632V59.8152C55.7632 60.6076 55.8407 61.5726 56.1612 61.9353C56.4641 62.284 57.024 62.5516 57.9009 62.5516C58.7321 62.5516 59.3378 62.2981 59.6865 61.8402C59.9576 61.4916 60.0879 60.907 60.0879 60.0371V52.7788H61.6199V60.259C61.6199 61.636 61.5424 61.967 61.0459 62.5657" fill="white"/>
<path d="M72.2133 63.6716L69.7411 58.9912L67.3604 63.6716H65.4938L68.8148 57.8079L65.8777 52.7788H67.7442L69.7234 56.4766L71.6076 52.7788H73.4424L70.6638 57.7092L74.0834 63.6716H72.2133Z" fill="white"/>
<path d="M78.2179 63.6716V52.7788H84.2049L83.9971 54.0255H79.7639V57.3465H83.3103V58.6284H79.7815V62.3615H84.3809V63.6716H78.2179Z" fill="white"/>
<path d="M94.6468 63.6716H89.1529V52.7788H90.7165V62.4072H94.9004L94.6468 63.6716Z" fill="white"/>
<path d="M104.37 63.6716H98.8799V52.7788H100.444V62.4072H104.627L104.37 63.6716Z" fill="white"/>
<path d="M108.41 63.6716V52.7788H114.397L114.189 54.0255H109.959V57.3465H113.502V58.6284H109.973V62.3615H114.573V63.6716H108.41Z" fill="white"/>
<path d="M122.011 63.8792C120.75 63.8792 119.539 63.5622 118.468 62.9142L119.074 61.7415C120.032 62.3261 120.94 62.6431 122.042 62.6431C123.479 62.6431 124.42 61.9141 124.42 60.7448C124.42 59.8609 123.828 59.2411 122.599 58.8959L121.451 58.5649C119.789 58.0894 118.848 57.3006 118.848 55.7475C118.848 53.8669 120.317 52.585 122.486 52.585C123.701 52.585 124.881 52.9336 125.857 53.6133L125.17 54.6874C124.148 54.0711 123.462 53.8352 122.553 53.8352C121.324 53.8352 120.56 54.4691 120.56 55.4798C120.56 56.2546 121.007 56.6984 122.187 57.0435L123.479 57.4238C124.948 57.85 126.163 58.8008 126.163 60.4913C126.163 62.0091 124.899 63.8757 122.011 63.8757" fill="white"/>
<path d="M246.279 74.5643C246.279 73.7719 246.923 73.1274 247.716 73.1274C248.508 73.1274 249.153 73.7719 249.153 74.5643C249.153 75.3567 248.508 76.0012 247.716 76.0012C246.923 76.0012 246.279 75.3567 246.279 74.5643ZM254.773 74.5643C254.773 73.7719 255.418 73.1274 256.21 73.1274C257.003 73.1274 257.647 73.7719 257.647 74.5643C257.647 75.3567 257.003 76.0012 256.21 76.0012C255.418 76.0012 254.773 75.3567 254.773 74.5643ZM237.788 74.5643C237.788 73.7719 238.433 73.1274 239.225 73.1274C240.017 73.1274 240.658 73.7719 240.658 74.5643C240.658 75.3567 240.017 76.0012 239.225 76.0012C238.433 76.0012 237.788 75.3567 237.788 74.5643ZM229.294 74.5643C229.294 73.7719 229.938 73.1274 230.73 73.1274C231.523 73.1274 232.167 73.7719 232.167 74.5643C232.167 75.3567 231.523 76.0012 230.73 76.0012C229.938 76.0012 229.294 75.3567 229.294 74.5643ZM220.803 74.5643C220.803 73.7719 221.447 73.1274 222.24 73.1274C223.032 73.1274 223.673 73.7719 223.673 74.5643C223.673 75.3567 223.032 76.0012 222.24 76.0012C221.447 76.0012 220.803 75.3567 220.803 74.5643ZM212.312 74.5643C212.312 73.7719 212.953 73.1274 213.745 73.1274C214.537 73.1274 215.182 73.7719 215.182 74.5643C215.182 75.3567 214.537 76.0012 213.745 76.0012C212.953 76.0012 212.312 75.3567 212.312 74.5643ZM203.817 74.5643C203.817 73.7719 204.462 73.1274 205.254 73.1274C206.047 73.1274 206.691 73.7719 206.691 74.5643C206.691 75.3567 206.047 76.0012 205.254 76.0012C204.462 76.0012 203.817 75.3567 203.817 74.5643ZM195.326 74.5643C195.326 73.7719 195.967 73.1274 196.763 73.1274C197.556 73.1274 198.2 73.7719 198.2 74.5643C198.2 75.3567 197.556 76.0012 196.763 76.0012C195.971 76.0012 195.326 75.3567 195.326 74.5643ZM186.832 74.5643C186.832 73.7719 187.476 73.1274 188.269 73.1274C189.061 73.1274 189.702 73.7719 189.702 74.5643C189.702 75.3567 189.061 76.0012 188.269 76.0012C187.476 76.0012 186.832 75.3567 186.832 74.5643ZM178.341 74.5643C178.341 73.7719 178.982 73.1274 179.774 73.1274C180.57 73.1274 181.211 73.7719 181.211 74.5643C181.211 75.3567 180.57 76.0012 179.774 76.0012C178.982 76.0012 178.341 75.3567 178.341 74.5643ZM169.85 74.5643C169.85 73.7719 170.491 73.1274 171.283 73.1274C172.076 73.1274 172.72 73.7719 172.72 74.5643C172.72 75.3567 172.079 76.0012 171.283 76.0012C170.491 76.0012 169.85 75.3567 169.85 74.5643ZM161.356 74.5643C161.356 73.7719 162 73.1274 162.793 73.1274C163.585 73.1274 164.226 73.7719 164.226 74.5643C164.226 75.3567 163.585 76.0012 162.793 76.0012C162 76.0012 161.356 75.3567 161.356 74.5643ZM152.865 74.5643C152.865 73.7719 153.509 73.1274 154.302 73.1274C155.094 73.1274 155.735 73.7719 155.735 74.5643C155.735 75.3567 155.094 76.0012 154.302 76.0012C153.509 76.0012 152.865 75.3567 152.865 74.5643ZM144.374 74.5643C144.374 73.7719 145.015 73.1274 145.807 73.1274C146.6 73.1274 147.244 73.7719 147.244 74.5643C147.244 75.3567 146.6 76.0012 145.807 76.0012C145.015 76.0012 144.374 75.3567 144.374 74.5643ZM135.883 74.5643C135.883 73.7719 136.524 73.1274 137.316 73.1274C138.112 73.1274 138.753 73.7719 138.753 74.5643C138.753 75.3567 138.112 76.0012 137.316 76.0012C136.524 76.0012 135.883 75.3567 135.883 74.5643ZM127.392 74.5643C127.392 73.7719 128.033 73.1274 128.825 73.1274C129.618 73.1274 130.262 73.7719 130.262 74.5643C130.262 75.3567 129.618 76.0012 128.825 76.0012C128.033 76.0012 127.392 75.3567 127.392 74.5643ZM118.901 74.5643C118.901 73.7719 119.542 73.1274 120.338 73.1274C121.13 73.1274 121.775 73.7719 121.775 74.5643C121.775 75.3567 121.13 76.0012 120.338 76.0012C119.546 76.0012 118.901 75.3567 118.901 74.5643ZM110.41 74.5643C110.41 73.7719 111.051 73.1274 111.847 73.1274C112.639 73.1274 113.284 73.7719 113.284 74.5643C113.284 75.3567 112.639 76.0012 111.847 76.0012C111.055 76.0012 110.41 75.3567 110.41 74.5643ZM101.919 74.5643C101.919 73.7719 102.56 73.1274 103.353 73.1274C104.145 73.1274 104.789 73.7719 104.789 74.5643C104.789 75.3567 104.145 76.0012 103.353 76.0012C102.56 76.0012 101.919 75.3567 101.919 74.5643ZM93.4283 74.5643C93.4283 73.7719 94.0692 73.1274 94.8616 73.1274C95.6576 73.1274 96.2985 73.7719 96.2985 74.5643C96.2985 75.3567 95.6576 76.0012 94.8616 76.0012C94.0692 76.0012 93.4283 75.3567 93.4283 74.5643ZM84.9374 74.5643C84.9374 73.7719 85.5783 73.1274 86.3707 73.1274C87.1666 73.1274 87.8076 73.7719 87.8076 74.5643C87.8076 75.3567 87.1666 76.0012 86.3707 76.0012C85.5783 76.0012 84.9374 75.3567 84.9374 74.5643ZM76.4465 74.5643C76.4465 73.7719 77.0874 73.1274 77.8833 73.1274C78.6757 73.1274 79.3167 73.7719 79.3167 74.5643C79.3167 75.3567 78.6757 76.0012 77.8833 76.0012C77.0874 76.0012 76.4465 75.3567 76.4465 74.5643ZM67.9555 74.5643C67.9555 73.7719 68.5965 73.1274 69.3924 73.1274C70.1848 73.1274 70.8258 73.7719 70.8258 74.5643C70.8258 75.3567 70.1848 76.0012 69.3924 76.0012C68.5965 76.0012 67.9555 75.3567 67.9555 74.5643ZM59.4646 74.5643C59.4646 73.7719 60.1091 73.1274 60.9015 73.1274C61.6939 73.1274 62.3348 73.7719 62.3348 74.5643C62.3348 75.3567 61.6939 76.0012 60.9015 76.0012C60.1091 76.0012 59.4646 75.3567 59.4646 74.5643ZM50.9737 74.5643C50.9737 73.7719 51.6182 73.1274 52.4106 73.1274C53.203 73.1274 53.8474 73.7719 53.8474 74.5643C53.8474 75.3567 53.2065 76.0012 52.4106 76.0012C51.6182 76.0012 50.9737 75.3567 50.9737 74.5643ZM42.4828 74.5643C42.4828 73.7719 43.1273 73.1274 43.9196 73.1274C44.712 73.1274 45.353 73.7719 45.353 74.5643C45.353 75.3567 44.712 76.0012 43.9196 76.0012C43.1273 76.0012 42.4828 75.3567 42.4828 74.5643ZM33.9919 74.5643C33.9919 73.7719 34.6363 73.1274 35.4287 73.1274C36.2211 73.1274 36.8621 73.7719 36.8621 74.5643C36.8621 75.3567 36.2211 76.0012 35.4287 76.0012C34.6363 76.0012 33.9919 75.3567 33.9919 74.5643V74.5643ZM25.5009 74.5643C25.5009 73.7719 26.1454 73.1274 26.9378 73.1274C27.7302 73.1274 28.3712 73.7719 28.3712 74.5643C28.3712 75.3567 27.7302 76.0012 26.9378 76.0012C26.1454 76.0012 25.5009 75.3567 25.5009 74.5643ZM17.01 74.5643C17.01 73.7719 17.651 73.1274 18.4434 73.1274C19.2358 73.1274 19.8767 73.7719 19.8767 74.5643C19.8767 75.3567 19.2358 76.0012 18.4434 76.0012C17.651 76.0012 17.01 75.3567 17.01 74.5643ZM8.5191 74.5643C8.5191 73.7719 9.16006 73.1274 9.95245 73.1274C10.7448 73.1274 11.3893 73.7719 11.3893 74.5643C11.3893 75.3567 10.7448 76.0012 9.95245 76.0012C9.16006 76.0012 8.5191 75.3567 8.5191 74.5643ZM0.0246582 74.5643C0.0246582 73.7719 0.665615 73.1274 1.45801 73.1274C2.2504 73.1274 2.89488 73.7719 2.89488 74.5643C2.89488 75.3567 2.2504 76.0012 1.45801 76.0012C0.665615 76.0012 0.0246582 75.3567 0.0246582 74.5643Z" fill="white"/>
<path d="M335.886 1.4353C335.886 0.64291 336.527 0.00195312 337.319 0.00195312C338.115 0.00195312 338.756 0.64291 338.756 1.4353C338.756 2.22769 338.115 2.87217 337.319 2.87217C336.527 2.87217 335.886 2.22769 335.886 1.4353ZM344.532 1.4353C344.532 0.64291 345.173 0.00195312 345.965 0.00195312C346.761 0.00195312 347.402 0.64291 347.402 1.4353C347.402 2.22769 346.761 2.87217 345.965 2.87217C345.173 2.87217 344.532 2.22769 344.532 1.4353ZM327.24 1.4353C327.24 0.64291 327.885 0.00195312 328.677 0.00195312C329.47 0.00195312 330.114 0.64291 330.114 1.4353C330.114 2.22769 329.47 2.87217 328.677 2.87217C327.885 2.87217 327.24 2.22769 327.24 1.4353ZM318.594 1.4353C318.594 0.64291 319.239 0.00195312 320.031 0.00195312C320.824 0.00195312 321.468 0.64291 321.468 1.4353C321.468 2.22769 320.824 2.87217 320.031 2.87217C319.239 2.87217 318.594 2.22769 318.594 1.4353ZM309.948 1.4353C309.948 0.64291 310.593 0.00195312 311.385 0.00195312C312.178 0.00195312 312.822 0.64291 312.822 1.4353C312.822 2.22769 312.178 2.87217 311.385 2.87217C310.593 2.87217 309.948 2.22769 309.948 1.4353ZM301.303 1.4353C301.303 0.64291 301.947 0.00195312 302.739 0.00195312C303.532 0.00195312 304.173 0.64291 304.173 1.4353C304.173 2.22769 303.532 2.87217 302.739 2.87217C301.947 2.87217 301.303 2.22769 301.303 1.4353ZM292.657 1.4353C292.657 0.64291 293.298 0.00195312 294.09 0.00195312C294.882 0.00195312 295.527 0.64291 295.527 1.4353C295.527 2.22769 294.882 2.87217 294.09 2.87217C293.298 2.87217 292.657 2.22769 292.657 1.4353ZM284.011 1.4353C284.011 0.64291 284.655 0.00195312 285.448 0.00195312C286.24 0.00195312 286.885 0.64291 286.885 1.4353C286.885 2.22769 286.24 2.87217 285.448 2.87217C284.655 2.87217 284.011 2.22769 284.011 1.4353ZM275.365 1.4353C275.365 0.64291 276.006 0.00195312 276.798 0.00195312C277.591 0.00195312 278.235 0.64291 278.235 1.4353C278.235 2.22769 277.591 2.87217 276.798 2.87217C276.006 2.87217 275.365 2.22769 275.365 1.4353ZM266.716 1.4353C266.716 0.64291 267.36 0.00195312 268.152 0.00195312C268.945 0.00195312 269.589 0.64291 269.589 1.4353C269.589 2.22769 268.945 2.87217 268.152 2.87217C267.36 2.87217 266.716 2.22769 266.716 1.4353ZM258.07 1.4353C258.07 0.64291 258.711 0.00195312 259.507 0.00195312C260.299 0.00195312 260.94 0.64291 260.94 1.4353C260.94 2.22769 260.299 2.87217 259.507 2.87217C258.711 2.87217 258.07 2.22769 258.07 1.4353ZM249.424 1.4353C249.424 0.64291 250.068 0.00195312 250.861 0.00195312C251.653 0.00195312 252.298 0.64291 252.298 1.4353C252.298 2.22769 251.653 2.87217 250.861 2.87217C250.068 2.87217 249.424 2.22769 249.424 1.4353ZM240.778 1.4353C240.778 0.64291 241.422 0.00195312 242.215 0.00195312C243.007 0.00195312 243.652 0.64291 243.652 1.4353C243.652 2.22769 243.011 2.87217 242.215 2.87217C241.422 2.87217 240.778 2.22769 240.778 1.4353ZM232.129 1.4353C232.129 0.64291 232.773 0.00195312 233.565 0.00195312C234.358 0.00195312 235.002 0.64291 235.002 1.4353C235.002 2.22769 234.358 2.87217 233.565 2.87217C232.773 2.87217 232.129 2.22769 232.129 1.4353ZM223.483 1.4353C223.483 0.64291 224.124 0.00195312 224.92 0.00195312C225.712 0.00195312 226.353 0.64291 226.353 1.4353C226.353 2.22769 225.712 2.87217 224.92 2.87217C224.124 2.87217 223.483 2.22769 223.483 1.4353ZM214.837 1.4353C214.837 0.64291 215.481 0.00195312 216.274 0.00195312C217.066 0.00195312 217.711 0.64291 217.711 1.4353C217.711 2.22769 217.066 2.87217 216.274 2.87217C215.481 2.87217 214.837 2.22769 214.837 1.4353ZM206.191 1.4353C206.191 0.64291 206.835 0.00195312 207.628 0.00195312C208.42 0.00195312 209.065 0.64291 209.065 1.4353C209.065 2.22769 208.42 2.87217 207.628 2.87217C206.835 2.87217 206.191 2.22769 206.191 1.4353ZM197.545 1.4353C197.545 0.64291 198.186 0.00195312 198.978 0.00195312C199.771 0.00195312 200.415 0.64291 200.415 1.4353C200.415 2.22769 199.771 2.87217 198.978 2.87217C198.186 2.87217 197.545 2.22769 197.545 1.4353ZM188.899 1.4353C188.899 0.64291 189.54 0.00195312 190.336 0.00195312C191.128 0.00195312 191.769 0.64291 191.769 1.4353C191.769 2.22769 191.128 2.87217 190.336 2.87217C189.544 2.87217 188.899 2.22769 188.899 1.4353ZM180.253 1.4353C180.253 0.64291 180.894 0.00195312 181.69 0.00195312C182.483 0.00195312 183.127 0.64291 183.127 1.4353C183.127 2.22769 182.483 2.87217 181.69 2.87217C180.898 2.87217 180.253 2.22769 180.253 1.4353ZM171.607 1.4353C171.607 0.64291 172.248 0.00195312 173.044 0.00195312C173.837 0.00195312 174.481 0.64291 174.481 1.4353C174.481 2.22769 173.837 2.87217 173.044 2.87217C172.252 2.87217 171.607 2.22769 171.607 1.4353ZM162.962 1.4353C162.962 0.64291 163.603 0.00195312 164.398 0.00195312C165.191 0.00195312 165.835 0.64291 165.835 1.4353C165.835 2.22769 165.191 2.87217 164.398 2.87217C163.606 2.87217 162.962 2.22769 162.962 1.4353ZM154.316 1.4353C154.316 0.64291 154.957 0.00195312 155.749 0.00195312C156.545 0.00195312 157.186 0.64291 157.186 1.4353C157.186 2.22769 156.545 2.87217 155.749 2.87217C154.957 2.87217 154.316 2.22769 154.316 1.4353ZM145.67 1.4353C145.67 0.64291 146.311 0.00195312 147.103 0.00195312C147.896 0.00195312 148.54 0.64291 148.54 1.4353C148.54 2.22769 147.896 2.87217 147.103 2.87217C146.311 2.87217 145.67 2.22769 145.67 1.4353ZM137.024 1.4353C137.024 0.64291 137.665 0.00195312 138.457 0.00195312C139.25 0.00195312 139.894 0.64291 139.894 1.4353C139.894 2.22769 139.25 2.87217 138.457 2.87217C137.665 2.87217 137.024 2.22769 137.024 1.4353Z" fill="white"/>
</g>
<defs>
<clipPath id="clip0_205_156">
<rect width="347.406" height="76" fill="white"/>
</clipPath>
</defs>
</svg>
