<svg width="209" height="40" viewBox="0 0 209 40" fill="none" xmlns="http://www.w3.org/2000/svg">
<g clip-path="url(#clip0_702_529)">
<path d="M85.5644 19.2308H70.1364V23.53H85.5644V19.2308Z" fill="#A03788"/>
<path d="M81.8734 5.68319L67.8806 11.9911L69.746 15.8903L83.7388 9.58238L81.8734 5.68319Z" fill="#A03788"/>
<path d="M83.748 33.1491L69.7303 26.8934L67.8804 30.7995L81.898 37.0552L83.748 33.1491Z" fill="#A03788"/>
<path d="M0 39.9973V1.64612H22.1816C24.0615 1.64612 25.7657 2.05608 27.2906 2.876C28.8155 3.69592 30.0376 4.83872 30.9607 6.30079C31.8839 7.76286 32.3436 9.49702 32.3436 11.5069C32.3436 12.784 32.082 13.9993 31.555 15.1494C31.028 16.2995 30.3142 17.2935 29.4097 18.1352C28.5053 18.9769 27.4513 19.6335 26.2479 20.1052C27.6382 20.5442 28.8715 21.248 29.9442 22.213C31.0168 23.1817 31.8615 24.3136 32.4819 25.6124C33.1023 26.9112 33.4125 28.3044 33.4125 29.8064C33.4125 31.8525 32.9341 33.6411 31.9736 35.1757C31.0131 36.7104 29.7424 37.8967 28.1652 38.7348C26.5842 39.5764 24.8164 39.9973 22.858 39.9973H0ZM8.06908 17.2064H19.8083C20.6343 17.2064 21.3892 17.0142 22.0657 16.6332C22.7422 16.2487 23.2804 15.7299 23.6765 15.0696C24.0727 14.4129 24.267 13.6837 24.267 12.8783C24.267 12.0729 24.069 11.3437 23.6765 10.687C23.2804 10.0303 22.7459 9.50791 22.0657 9.12334C21.3892 8.73878 20.638 8.55013 19.8083 8.55013H8.06908V17.2064ZM8.06908 33.0933H20.5408C21.4416 33.0933 22.2526 32.8865 22.9702 32.4656C23.684 32.0448 24.2596 31.4788 24.6894 30.7641C25.1229 30.0531 25.3397 29.2767 25.3397 28.4386C25.3397 27.5606 25.1229 26.7734 24.6894 26.0804C24.2558 25.3875 23.6803 24.8288 22.9702 24.4116C22.2526 23.9907 21.4453 23.7803 20.5408 23.7803H8.06908V33.0933Z" fill="white"/>
<path d="M52.2341 39.9973C48.9601 39.9973 46.1122 39.3878 43.6829 38.1652C41.2573 36.9426 39.3774 35.2701 38.0394 33.1514C36.7014 31.0363 36.0361 28.6563 36.0361 26.0297C36.0361 23.0693 36.6565 20.497 37.8974 18.3021C39.1382 16.1108 40.8312 14.4129 42.9765 13.2085C45.1218 12.004 47.5474 11.4017 50.257 11.4017C53.4936 11.4017 56.1173 12.0584 58.1317 13.3717C60.1425 14.685 61.6225 16.4482 62.5606 18.6613C63.4987 20.8743 63.9733 23.3268 63.9733 26.0297C63.9733 26.3961 63.9546 26.8242 63.9173 27.3176C63.8799 27.8074 63.8238 28.1847 63.7491 28.4423H44.2771C44.5761 29.5742 45.0956 30.5211 45.8282 31.2866C46.5607 32.0521 47.4838 32.6289 48.5939 33.0135C49.7039 33.3981 50.9559 33.5903 52.3462 33.5903H60.3592V40.0009H52.2304L52.2341 39.9973ZM44.2211 23.3958H56.2406C56.1658 22.7028 56.035 22.0534 55.8444 21.4512C55.6538 20.8489 55.3959 20.312 55.0558 19.8331C54.7157 19.3579 54.3233 18.9588 53.8711 18.6286C53.4226 18.2985 52.8919 18.0445 52.2902 17.8631C51.6884 17.6817 51.0306 17.5874 50.3131 17.5874C49.3712 17.5874 48.5378 17.7543 47.8015 18.0808C47.069 18.411 46.456 18.8499 45.9664 19.3941C45.4768 19.942 45.0919 20.5623 44.8078 21.2589C44.5275 21.9518 44.3295 22.6666 44.2173 23.3958H44.2211Z" fill="white"/>
<path d="M100.992 39.9973C98.8098 39.9973 96.8215 39.4894 95.0387 38.4663C93.2522 37.4432 91.832 36.0646 90.7781 34.3305C89.7241 32.5927 89.1971 30.6662 89.1971 28.5511C89.1971 27.0165 89.5372 25.5726 90.2137 24.223C90.8902 22.8697 91.8133 21.6834 92.9794 20.6603C91.8133 19.6372 90.8902 18.4509 90.2137 17.0976C89.5372 15.748 89.1971 14.3222 89.1971 12.8239C89.1971 10.7414 89.7129 8.86217 90.7482 7.18242C91.7834 5.50267 93.1775 4.16033 94.9266 3.15538C96.6757 2.15044 98.6042 1.64978 100.712 1.64978H116.962V8.55379H101.617C100.824 8.55379 100.099 8.74607 99.4451 9.12701C98.7873 9.51157 98.2604 10.0231 97.8642 10.6616C97.468 11.3002 97.2737 12.0221 97.2737 12.8275C97.2737 13.6329 97.4718 14.2969 97.8642 14.9354C98.2566 15.5739 98.7873 16.0854 99.4451 16.4664C100.103 16.8509 100.828 17.0432 101.617 17.0432H115.049V23.9472H101.953C101.086 23.9472 100.297 24.1576 99.5834 24.5785C98.8696 24.9993 98.3052 25.558 97.8904 26.2474C97.4755 26.9439 97.27 27.7094 97.27 28.5511C97.27 29.3928 97.4755 30.1583 97.8904 30.8512C98.3015 31.5478 98.8658 32.092 99.5834 32.4947C100.301 32.8974 101.086 33.0969 101.953 33.0969H116.962V40.001H100.992V39.9973Z" fill="white"/>
<path d="M122.89 39.9973V0.00268555H130.623V39.9973H122.89Z" fill="white"/>
<path d="M151.75 39.9973C148.476 39.9973 145.628 39.3878 143.199 38.1652C140.774 36.9426 138.894 35.2701 137.556 33.1514C136.221 31.0363 135.552 28.6563 135.552 26.0297C135.552 23.0693 136.173 20.497 137.417 18.3021C138.658 16.1108 140.347 14.4129 142.496 13.2085C144.645 12.004 147.067 11.4017 149.777 11.4017C153.01 11.4017 155.637 12.0584 157.652 13.3717C159.662 14.685 161.139 16.4482 162.081 18.6613C163.019 20.8707 163.49 23.3268 163.49 26.0297C163.49 26.3961 163.471 26.8242 163.433 27.3176C163.396 27.8074 163.34 28.1847 163.265 28.4423H143.793C144.092 29.5742 144.608 30.5211 145.344 31.2866C146.077 32.0521 147 32.6289 148.11 33.0135C149.216 33.3981 150.472 33.5903 151.862 33.5903H159.875V40.0009H151.747L151.75 39.9973ZM143.737 23.3958H155.757C155.678 22.7028 155.551 22.0534 155.361 21.4512C155.17 20.8489 154.908 20.312 154.572 19.8331C154.236 19.3579 153.836 18.9588 153.387 18.6286C152.935 18.2985 152.408 18.0445 151.806 17.8631C151.205 17.6817 150.547 17.5874 149.833 17.5874C148.891 17.5874 148.054 17.7543 147.318 18.0808C146.585 18.411 145.972 18.8499 145.486 19.3941C144.997 19.942 144.608 20.5623 144.328 21.2589C144.044 21.9518 143.849 22.6666 143.734 23.3958H143.737Z" fill="white"/>
<path d="M182.416 39.9973C179.441 39.9973 176.791 39.3769 174.455 38.1326C172.123 36.8954 170.277 35.2193 168.924 33.1223C167.567 31.0218 166.891 28.6563 166.891 26.0261C166.891 23.3958 167.567 21.0303 168.924 18.9298C170.277 16.8292 172.119 15.1603 174.455 13.9159C176.791 12.6715 179.441 12.0511 182.416 12.0511H186.026V18.4618H182.416C180.835 18.4618 179.471 18.7883 178.323 19.4486C177.172 20.1052 176.294 21.0086 175.67 22.1586C175.046 23.3087 174.739 24.5966 174.739 26.0224C174.739 27.4482 175.049 28.7325 175.67 29.8862C176.29 31.0363 177.172 31.9396 178.323 32.5963C179.471 33.2493 180.835 33.5831 182.416 33.5831H186.026V39.9937H182.416V39.9973Z" fill="white"/>
<path d="M188.283 18.4653V12.0547H209V18.4653H188.283ZM201.379 39.9973C198.819 39.9973 196.82 39.2862 195.37 37.8604C193.919 36.4346 193.198 34.4973 193.198 32.0484V5.04187H200.927V31.8344C200.927 32.306 201.107 32.7196 201.465 33.0642C201.824 33.4089 202.246 33.5867 202.736 33.5867H209V39.9973H201.379Z" fill="white"/>
</g>
<defs>
<clipPath id="clip0_702_529">
<rect width="209" height="40" fill="white"/>
</clipPath>
</defs>
</svg>
